# Blender 4.5.4 LTS
# www.blender.org
mtllib garasu.mtl
o 円柱.004
v -0.604010 0.277835 -0.331605
v -0.604010 0.236670 -0.331605
v -0.524806 0.277835 -0.442134
v -0.524806 0.236670 -0.442134
v -0.425560 0.277835 -0.535088
v -0.425560 0.236670 -0.535088
v -0.310087 0.277835 -0.606893
v -0.310087 0.236670 -0.606894
v -0.182824 0.277835 -0.654792
v -0.182824 0.236670 -0.654792
v -0.048662 0.277835 -0.676942
v -0.048662 0.236670 -0.676942
v 0.087243 0.277835 -0.672493
v 0.087243 0.236671 -0.672493
v 0.219670 0.277835 -0.641616
v 0.219670 0.236671 -0.641616
v 0.343527 0.277835 -0.585496
v 0.343527 0.236671 -0.585497
v 0.454057 0.277835 -0.506292
v 0.454057 0.236671 -0.506292
v 0.547011 0.277835 -0.407046
v 0.547011 0.236671 -0.407046
v 0.618816 0.277836 -0.291573
v 0.618816 0.236671 -0.291573
v 0.666715 0.277836 -0.164310
v 0.666715 0.236671 -0.164310
v 0.688865 0.277836 -0.030148
v 0.688865 0.236671 -0.030148
v 0.684416 0.277836 0.105757
v 0.684416 0.236671 0.105757
v 0.653538 0.277836 0.238183
v 0.653538 0.236671 0.238183
v 0.597419 0.277836 0.362041
v 0.597419 0.236671 0.362041
v 0.518215 0.277836 0.472571
v 0.518215 0.236780 0.472571
v 0.442243 0.277836 0.551052
v 0.442243 0.237107 0.551052
v 0.303496 0.277836 0.637330
v 0.303496 0.237107 0.637330
v 0.176233 0.277836 0.685229
v 0.176233 0.236780 0.685229
v 0.069463 0.277836 0.708275
v 0.069463 0.236671 0.708275
v -0.093834 0.277835 0.702930
v -0.093834 0.236671 0.702930
v -0.226261 0.277835 0.672052
v -0.226261 0.236671 0.672052
v -0.327841 0.277835 0.631897
v -0.327841 0.236671 0.631897
v -0.482925 0.277835 0.520765
v -0.482925 0.236671 0.520765
v -0.553602 0.277835 0.437483
v -0.553602 0.236671 0.437483
v -0.625407 0.277835 0.322010
v -0.625407 0.236670 0.322010
v -0.673306 0.277835 0.194747
v -0.673306 0.236670 0.194747
v -0.695456 0.277835 0.060585
v -0.695456 0.236670 0.060585
v -0.691007 0.277835 -0.075321
v -0.691007 0.236670 -0.075321
v -0.660129 0.277835 -0.207747
v -0.660130 0.236670 -0.207747
v 0.398966 0.277836 0.584259
v 0.398966 0.237216 0.584259
v -0.720759 0.270973 -0.417228
v -0.625591 0.270973 -0.550035
v -0.506343 0.270973 -0.661723
v -0.367596 0.270973 -0.748002
v -0.214684 0.270973 -0.805554
v -0.053481 0.270973 -0.832169
v 0.109816 0.270973 -0.826823
v 0.268933 0.270973 -0.789722
v 0.417754 0.270973 -0.722292
v 0.550560 0.270973 -0.627124
v 0.662249 0.270973 -0.507876
v 0.748527 0.270973 -0.369129
v 0.806079 0.270973 -0.216216
v 0.832694 0.270973 -0.055014
v 0.827348 0.270973 0.108283
v 0.790247 0.270974 0.267400
v 0.722817 0.270974 0.416221
v 0.627649 0.270992 0.549028
v 0.531675 0.271064 0.646244
v 0.369654 0.271064 0.746994
v 0.216742 0.270992 0.804546
v 0.082931 0.270973 0.832058
v -0.107758 0.270973 0.825815
v -0.266874 0.270973 0.788715
v -0.393418 0.270973 0.737248
v -0.570779 0.270973 0.610153
v -0.660191 0.270973 0.506868
v -0.746469 0.270973 0.368122
v -0.804021 0.270973 0.215209
v -0.830636 0.270973 0.054007
v -0.825290 0.270973 -0.109291
v -0.788189 0.270973 -0.268407
v 0.488398 0.271082 0.679451
v -0.720759 0.243524 -0.417228
v -0.625591 0.243524 -0.550035
v -0.506343 0.243524 -0.661723
v -0.367596 0.243524 -0.748002
v -0.214684 0.243524 -0.805554
v -0.053481 0.243524 -0.832169
v 0.109816 0.243524 -0.826823
v 0.268933 0.243524 -0.789722
v 0.417754 0.243524 -0.722292
v 0.550560 0.243524 -0.627124
v 0.662249 0.243524 -0.507876
v 0.748527 0.243524 -0.369129
v 0.806079 0.243524 -0.216216
v 0.832694 0.243524 -0.055014
v 0.827348 0.243525 0.108283
v 0.790247 0.243525 0.267400
v 0.722817 0.243525 0.416221
v 0.627649 0.243615 0.549028
v 0.531675 0.243978 0.646244
v 0.369654 0.243978 0.746994
v 0.216742 0.243615 0.804546
v 0.082931 0.243524 0.832058
v -0.107758 0.243524 0.825815
v -0.266874 0.243524 0.788715
v -0.393418 0.243524 0.737248
v -0.570779 0.243524 0.610153
v -0.660191 0.243524 0.506868
v -0.746469 0.243524 0.368122
v -0.804021 0.243524 0.215209
v -0.830636 0.243524 0.054007
v -0.825290 0.243524 -0.109291
v -0.788189 0.243524 -0.268407
v 0.488398 0.244069 0.679451
v 0.015031 0.277835 0.711843
v 0.015031 0.236671 0.711843
v 0.028499 0.270973 0.835626
v 0.028499 0.243524 0.835626
v -0.441913 0.277835 0.556732
v -0.441913 0.236671 0.556732
v -0.529768 0.270973 0.646120
v -0.529768 0.243524 0.646120
v -0.464190 0.277835 0.540768
v -0.464190 0.236671 0.540768
v -0.552045 0.270973 0.630156
v -0.552045 0.243524 0.630156
v -0.375082 0.277835 0.604622
v -0.375082 0.236671 0.604622
v -0.440659 0.270973 0.709974
v -0.440659 0.243524 0.709974
v -0.505631 0.277835 -0.334120
v -0.702350 0.237521 -0.403732
v -0.505631 0.236675 -0.334120
v -0.609699 0.237521 -0.533026
v -0.426141 0.277835 -0.424761
v -0.426141 0.236675 -0.424761
v -0.493604 0.237521 -0.641760
v -0.330495 0.277835 -0.498153
v -0.330495 0.236675 -0.498153
v -0.358527 0.237521 -0.725757
v -0.222368 0.277835 -0.551475
v -0.222368 0.236675 -0.551475
v -0.209659 0.237521 -0.781787
v -0.105917 0.277835 -0.582678
v -0.105917 0.236675 -0.582678
v -0.052720 0.237521 -0.807698
v 0.014384 0.277835 -0.590563
v 0.014384 0.236676 -0.590563
v 0.106258 0.237521 -0.802493
v 0.133912 0.277835 -0.574826
v 0.133912 0.236676 -0.574827
v 0.261166 0.237521 -0.766374
v 0.248073 0.277835 -0.536074
v 0.248073 0.236676 -0.536074
v 0.406051 0.237521 -0.700727
v 0.352480 0.277835 -0.475794
v 0.352480 0.236676 -0.475794
v 0.535345 0.237521 -0.608076
v 0.443121 0.277835 -0.396304
v 0.443121 0.236676 -0.396304
v 0.644080 0.237521 -0.491982
v 0.516513 0.277835 -0.300658
v 0.516513 0.236676 -0.300658
v 0.728076 0.237521 -0.356905
v 0.569835 0.277836 -0.192532
v 0.569835 0.236676 -0.192532
v 0.784106 0.237521 -0.208036
v 0.601038 0.277836 -0.076081
v 0.601038 0.236676 -0.076081
v 0.810017 0.237521 -0.051097
v 0.608923 0.277836 0.044220
v 0.608923 0.236676 0.044220
v 0.804813 0.237521 0.107881
v 0.593187 0.277836 0.163748
v 0.593187 0.236676 0.163748
v 0.768693 0.237521 0.262789
v 0.554434 0.277836 0.277909
v 0.554434 0.236676 0.277909
v 0.703047 0.237521 0.407674
v 0.494155 0.277836 0.382316
v 0.494155 0.236697 0.382316
v 0.610396 0.237629 0.536968
v 0.419190 0.277836 0.470143
v 0.419190 0.236918 0.470143
v 0.517736 0.238037 0.631130
v 0.315129 0.277836 0.549992
v 0.315129 0.237138 0.549992
v 0.359224 0.238037 0.729699
v 0.210892 0.277836 0.599671
v 0.210892 0.236918 0.599671
v 0.210356 0.237629 0.785729
v 0.099767 0.277836 0.631048
v 0.099767 0.236697 0.631048
v 0.080999 0.237521 0.812543
v -0.031118 0.277835 0.639627
v -0.031118 0.236676 0.639627
v -0.105561 0.237521 0.806435
v -0.145388 0.277835 0.623023
v -0.145388 0.236676 0.623023
v -0.260470 0.237521 0.770316
v -0.255217 0.277835 0.587375
v -0.255217 0.236676 0.587374
v -0.382923 0.237521 0.720744
v -0.418212 0.277835 0.486391
v -0.418212 0.236676 0.486391
v -0.557081 0.237521 0.595944
v -0.458929 0.277835 0.441397
v -0.458929 0.236676 0.441397
v -0.643383 0.237521 0.495924
v -0.527989 0.277835 0.348855
v -0.527989 0.236676 0.348855
v -0.727379 0.237521 0.360847
v -0.581311 0.277835 0.240729
v -0.581311 0.236675 0.240728
v -0.783409 0.237521 0.211978
v -0.612514 0.277835 0.124277
v -0.612514 0.236675 0.124277
v -0.809320 0.237521 0.055040
v -0.620399 0.277835 0.003976
v -0.620399 0.236675 0.003976
v -0.804116 0.237521 -0.103939
v -0.604663 0.236675 -0.115551
v -0.565910 0.236675 -0.229713
v -0.604663 0.277835 -0.115551
v -0.767996 0.237521 -0.258847
v -0.565910 0.277835 -0.229713
v 0.371092 0.277836 0.515192
v 0.371092 0.237138 0.515192
v 0.474159 0.276992 0.664568
v -0.702350 0.276977 -0.403732
v -0.609699 0.276977 -0.533026
v -0.493604 0.276977 -0.641760
v -0.358527 0.276977 -0.725757
v -0.209659 0.276977 -0.781787
v -0.052720 0.276977 -0.807698
v 0.106258 0.276977 -0.802493
v 0.261166 0.276977 -0.766374
v 0.406051 0.276978 -0.700727
v 0.535345 0.276978 -0.608076
v 0.644080 0.276978 -0.491982
v 0.728076 0.276978 -0.356905
v 0.784106 0.276978 -0.208036
v 0.810017 0.276978 -0.051097
v 0.804813 0.276978 0.107881
v 0.768693 0.276978 0.262789
v 0.703047 0.276978 0.407674
v 0.610396 0.276980 0.536968
v 0.517736 0.276989 0.631130
v 0.359224 0.276989 0.729699
v 0.210356 0.276980 0.785729
v 0.080999 0.276978 0.812543
v -0.105561 0.276978 0.806435
v -0.260469 0.276978 0.770316
v -0.382923 0.276978 0.720744
v -0.557081 0.276977 0.595944
v -0.643383 0.276977 0.495924
v -0.727380 0.276977 0.360847
v -0.783409 0.276977 0.211978
v -0.809320 0.276977 0.055040
v -0.804116 0.276977 -0.103939
v -0.767996 0.276977 -0.258847
v 0.488398 0.257576 0.679451
v 0.511263 0.271080 0.664446
v -0.758127 0.270973 -0.344473
v -0.810645 0.270973 -0.189759
v -0.831971 0.270973 -0.027773
v -0.821285 0.270973 0.135261
v -0.778998 0.270973 0.293078
v -0.706735 0.270973 0.439612
v -0.610058 0.270973 0.567238
v -0.554387 0.270973 0.627656
v -0.340155 0.270973 0.760648
v -0.188227 0.270973 0.811170
v -0.029620 0.270973 0.833054
v 0.140218 0.270976 0.821922
v 0.294611 0.271028 0.779523
v 0.438645 0.271080 0.709603
v 0.573676 0.271028 0.605990
v 0.678493 0.270976 0.484960
v 0.760185 0.270974 0.343465
v 0.812703 0.270974 0.188752
v 0.834029 0.270973 0.026766
v 0.823343 0.270973 -0.136268
v 0.781056 0.270973 -0.294085
v 0.708793 0.270973 -0.440620
v 0.609331 0.270973 -0.570241
v 0.486493 0.270973 -0.677968
v 0.344998 0.270973 -0.759660
v 0.190285 0.270973 -0.812178
v 0.028299 0.270973 -0.833503
v -0.134736 0.270973 -0.822818
v -0.292552 0.270973 -0.780531
v -0.439087 0.270973 -0.708268
v -0.568708 0.270973 -0.608806
v -0.676435 0.270973 -0.485967
v -0.720759 0.257248 -0.417228
v -0.625591 0.257248 -0.550035
v -0.506343 0.257248 -0.661723
v -0.367596 0.257248 -0.748002
v -0.214683 0.257248 -0.805554
v -0.053481 0.257248 -0.832169
v 0.109816 0.257248 -0.826823
v 0.268933 0.257248 -0.789722
v 0.417754 0.257249 -0.722292
v 0.550560 0.257249 -0.627124
v 0.662249 0.257249 -0.507876
v 0.748527 0.257249 -0.369129
v 0.806079 0.257249 -0.216216
v 0.832694 0.257249 -0.055014
v 0.827348 0.257249 0.108283
v 0.790247 0.257249 0.267400
v 0.722817 0.257249 0.416221
v 0.627649 0.257304 0.549028
v 0.531674 0.257521 0.646244
v 0.369654 0.257521 0.746994
v 0.216742 0.257303 0.804546
v 0.082931 0.257249 0.832058
v -0.107758 0.257249 0.825815
v -0.266874 0.257249 0.788715
v -0.393419 0.257249 0.737248
v -0.570779 0.257248 0.610153
v -0.660191 0.257248 0.506868
v -0.746469 0.257248 0.368122
v -0.804021 0.257248 0.215209
v -0.830636 0.257248 0.054007
v -0.825290 0.257248 -0.109291
v -0.788189 0.257248 -0.268407
v 0.474159 0.238144 0.664568
v 0.511263 0.244058 0.664446
v -0.758127 0.243524 -0.344473
v -0.810645 0.243524 -0.189759
v -0.831971 0.243524 -0.027773
v -0.821285 0.243524 0.135261
v -0.778998 0.243524 0.293078
v -0.706735 0.243524 0.439612
v -0.610058 0.243524 0.567238
v -0.554387 0.243524 0.627656
v -0.340155 0.243524 0.760648
v -0.188227 0.243524 0.811170
v -0.029621 0.243524 0.833054
v 0.140218 0.243536 0.821922
v 0.294611 0.243797 0.779523
v 0.438645 0.244058 0.709603
v 0.573676 0.243797 0.605990
v 0.678493 0.243536 0.484960
v 0.760185 0.243525 0.343465
v 0.812703 0.243525 0.188752
v 0.834029 0.243525 0.026766
v 0.823343 0.243524 -0.136268
v 0.781056 0.243524 -0.294085
v 0.708793 0.243524 -0.440620
v 0.609331 0.243524 -0.570241
v 0.486493 0.243524 -0.677968
v 0.344998 0.243524 -0.759660
v 0.190285 0.243524 -0.812178
v 0.028298 0.243524 -0.833503
v -0.134736 0.243524 -0.822818
v -0.292552 0.243524 -0.780531
v -0.439087 0.243524 -0.708268
v -0.568708 0.243524 -0.608806
v -0.676435 0.243524 -0.485967
v 0.034747 0.277835 0.641783
v 0.034747 0.236676 0.641783
v 0.055847 0.270973 0.835852
v 0.055847 0.243524 0.835852
v 0.028499 0.257249 0.835626
v 0.026189 0.276978 0.816135
v 0.026189 0.237521 0.816135
v -0.365167 0.277835 0.525681
v -0.365167 0.236676 0.525681
v -0.485213 0.270973 0.678047
v -0.485213 0.243524 0.678047
v -0.529768 0.257249 0.646120
v -0.515784 0.276977 0.632160
v -0.515784 0.237521 0.632160
v -0.410237 0.277835 0.493384
v -0.410237 0.236676 0.493384
v -0.549260 0.270973 0.632151
v -0.549260 0.243524 0.632151
v -0.552045 0.257248 0.630156
v -0.538216 0.276977 0.616086
v -0.538216 0.237521 0.616086
v -0.315243 0.277835 0.560177
v -0.315243 0.236676 0.560177
v -0.418046 0.270973 0.725356
v -0.418046 0.243524 0.725356
v -0.430491 0.237521 0.693280
v -0.430491 0.276978 0.693280
v -0.440659 0.257249 0.709974
v -0.654218 0.237521 -0.466213
v -0.550164 0.237521 -0.584864
v -0.424963 0.237521 -0.680935
v -0.283424 0.237521 -0.750734
v -0.130988 0.237521 -0.791579
v 0.026488 0.237521 -0.801901
v 0.182951 0.237521 -0.781302
v 0.332390 0.237521 -0.730574
v 0.469060 0.237521 -0.651668
v 0.587711 0.237522 -0.547614
v 0.683782 0.237522 -0.422412
v 0.753581 0.237522 -0.280873
v 0.794426 0.237522 -0.128437
v 0.804748 0.237522 0.029039
v 0.784149 0.237522 0.185502
v 0.733421 0.237522 0.334941
v 0.654515 0.237536 0.471611
v 0.553532 0.237831 0.588352
v 0.422620 0.238126 0.688805
v 0.283720 0.237831 0.756132
v 0.134898 0.237536 0.797095
v -0.029760 0.237522 0.807887
v -0.182655 0.237522 0.786700
v -0.329154 0.237521 0.738078
v -0.536620 0.237521 0.609308
v -0.590354 0.237521 0.550905
v -0.683486 0.237521 0.427810
v -0.753285 0.237521 0.286271
v -0.794130 0.237521 0.133835
v -0.804451 0.237521 -0.023641
v -0.024918 0.236715 0.093828
v -0.783853 0.237521 -0.180104
v -0.733125 0.237521 -0.329543
v -0.024918 0.277835 0.093828
v 0.493022 0.238126 0.645025
v 0.493023 0.276991 0.645025
v -0.733125 0.276977 -0.329543
v -0.783853 0.276977 -0.180104
v -0.804451 0.276977 -0.023641
v -0.794130 0.276977 0.133835
v -0.753285 0.276977 0.286271
v -0.683486 0.276977 0.427810
v -0.590354 0.276977 0.550905
v -0.536620 0.276977 0.609308
v -0.329154 0.276978 0.738078
v -0.182655 0.276978 0.786700
v -0.029760 0.276978 0.807887
v 0.134898 0.276978 0.797095
v 0.283720 0.276985 0.756132
v 0.422620 0.276991 0.688805
v 0.553532 0.276985 0.588352
v 0.654514 0.276978 0.471611
v 0.733421 0.276978 0.334941
v 0.784149 0.276978 0.185502
v 0.804748 0.276978 0.029039
v 0.794426 0.276978 -0.128437
v 0.753581 0.276978 -0.280873
v 0.683782 0.276978 -0.422412
v 0.587711 0.276978 -0.547614
v 0.469060 0.276978 -0.651667
v 0.332390 0.276977 -0.730574
v 0.182951 0.276977 -0.781302
v 0.026488 0.276977 -0.801901
v -0.130988 0.276977 -0.791579
v -0.283424 0.276977 -0.750734
v -0.424963 0.276977 -0.680935
v -0.550165 0.276977 -0.584864
v -0.654218 0.276977 -0.466213
v 0.511263 0.257569 0.664446
v -0.758127 0.257248 -0.344473
v -0.810645 0.257248 -0.189759
v -0.831971 0.257248 -0.027773
v -0.821285 0.257248 0.135261
v -0.778998 0.257248 0.293078
v -0.706735 0.257248 0.439612
v -0.610058 0.257248 0.567238
v -0.554387 0.257248 0.627656
v -0.340155 0.257249 0.760648
v -0.188227 0.257249 0.811170
v -0.029621 0.257249 0.833054
v 0.140218 0.257256 0.821922
v 0.294610 0.257412 0.779523
v 0.438645 0.257569 0.709603
v 0.573676 0.257412 0.605990
v 0.678493 0.257256 0.484960
v 0.760185 0.257249 0.343465
v 0.812703 0.257249 0.188752
v 0.834029 0.257249 0.026766
v 0.823343 0.257249 -0.136268
v 0.781056 0.257249 -0.294085
v 0.708793 0.257249 -0.440620
v 0.609331 0.257249 -0.570241
v 0.486493 0.257249 -0.677968
v 0.344998 0.257249 -0.759660
v 0.190285 0.257248 -0.812178
v 0.028299 0.257248 -0.833504
v -0.134736 0.257248 -0.822818
v -0.292552 0.257248 -0.780531
v -0.439087 0.257248 -0.708268
v -0.568708 0.257248 -0.608806
v -0.676435 0.257248 -0.485967
v 0.055847 0.257249 0.835852
v 0.053101 0.276978 0.810600
v 0.053101 0.237522 0.810600
v -0.485213 0.257249 0.678047
v -0.469586 0.276977 0.658212
v -0.469586 0.237521 0.658212
v -0.549260 0.257248 0.632151
v -0.531209 0.276977 0.614054
v -0.531209 0.237521 0.614054
v -0.404669 0.237521 0.703863
v -0.404669 0.276978 0.703863
v -0.418046 0.257249 0.725356
vn -0.1827 -0.9747 -0.1287
vn -0.0024 -1.0000 -0.0054
vn -0.0064 -1.0000 -0.0009
vn -0.1803 -0.9748 -0.1314
vn -0.1511 -0.9757 -0.1590
vn -0.0012 -1.0000 -0.0057
vn -0.0060 -1.0000 -0.0020
vn -0.1486 -0.9757 -0.1609
vn -0.1151 -0.9764 -0.1825
vn -0.0000 -1.0000 -0.0058
vn -0.0054 -1.0000 -0.0030
vn -0.1127 -0.9765 -0.1838
vn -0.0761 -0.9771 -0.1988
vn 0.0011 -1.0000 -0.0057
vn -0.0047 -1.0000 -0.0039
vn -0.0738 -0.9771 -0.1995
vn -0.0354 -0.9775 -0.2077
vn 0.0022 -1.0000 -0.0054
vn -0.0038 -1.0000 -0.0047
vn -0.0332 -0.9776 -0.2080
vn 0.0058 -0.9778 -0.2093
vn 0.0032 -1.0000 -0.0049
vn -0.0029 -1.0000 -0.0052
vn 0.0079 -0.9779 -0.2091
vn 0.0464 -0.9780 -0.2035
vn 0.0041 -1.0000 -0.0042
vn -0.0018 -1.0000 -0.0056
vn 0.0484 -0.9780 -0.2031
vn 0.0853 -0.9779 -0.1908
vn 0.0049 -1.0000 -0.0034
vn -0.0007 -1.0000 -0.0058
vn 0.0872 -0.9779 -0.1899
vn 0.1214 -0.9777 -0.1713
vn 0.0055 -1.0000 -0.0025
vn 0.0004 -1.0000 -0.0058
vn 0.1232 -0.9777 -0.1701
vn 0.1538 -0.9773 -0.1456
vn 0.0059 -1.0000 -0.0014
vn 0.0015 -1.0000 -0.0056
vn 0.1555 -0.9773 -0.1440
vn 0.1813 -0.9768 -0.1143
vn 0.0062 -1.0000 -0.0003
vn 0.0026 -1.0000 -0.0052
vn 0.1829 -0.9767 -0.1122
vn 0.2031 -0.9760 -0.0780
vn 0.0062 -1.0000 0.0009
vn 0.0036 -1.0000 -0.0046
vn 0.2044 -0.9760 -0.0753
vn 0.2182 -0.9752 -0.0377
vn 0.0061 -1.0000 0.0020
vn 0.0045 -1.0000 -0.0038
vn 0.2191 -0.9751 -0.0345
vn 0.2258 -0.9742 0.0055
vn 0.0057 -1.0000 0.0032
vn 0.0052 -1.0000 -0.0029
vn 0.2260 -0.9741 0.0093
vn 0.2251 -0.9730 0.0503
vn 0.0051 -1.0000 0.0043
vn 0.0058 -1.0000 -0.0018
vn 0.2245 -0.9729 0.0546
vn 0.2156 -0.9718 0.0951
vn 0.0043 -1.0000 0.0052
vn 0.0062 -1.0000 -0.0005
vn 0.2141 -0.9717 0.0997
vn 0.1971 -0.9706 0.1382
vn 0.0032 -1.0000 0.0062
vn 0.0056 -1.0000 0.0018
vn 0.1937 -0.9705 0.1434
vn 0.1695 -0.9695 0.1768
vn 0.0006 -1.0000 0.0089
vn 0.0053 -1.0000 0.0037
vn 0.1760 -0.9697 0.1694
vn 0.1189 -0.9680 0.2209
vn 0.0001 -1.0000 0.0087
vn 0.0071 -1.0000 0.0032
vn 0.1274 -0.9686 0.2134
vn 0.0941 -0.9677 0.2339
vn 0.0019 -1.0000 0.0064
vn 0.0072 -1.0000 0.0038
vn 0.0883 -0.9673 0.2378
vn 0.0488 -0.9664 0.2523
vn -0.0007 -1.0000 0.0065
vn 0.0062 -1.0000 0.0052
vn 0.0582 -0.9660 0.2520
vn -0.0247 -0.9651 0.2608
vn -0.0051 -1.0000 0.0065
vn 0.0029 -1.0000 0.0064
vn -0.0147 -0.9656 0.2596
vn -0.0555 -0.9655 0.2545
vn -0.0043 -1.0000 0.0056
vn 0.0014 -1.0000 0.0069
vn -0.0628 -0.9655 0.2528
vn -0.1018 -0.9655 0.2397
vn -0.0054 -1.0000 0.0045
vn 0.0018 -1.0000 0.0080
vn -0.0933 -0.9650 0.2452
vn -0.3311 -0.9432 0.0266
vn -0.0448 -0.9984 -0.0349
vn 0.0029 -0.9999 0.0113
vn -0.1650 -0.9664 0.1970
vn -0.1980 -0.9665 0.1633
vn -0.0078 -1.0000 0.0005
vn -0.0026 -1.0000 0.0067
vn -0.1906 -0.9668 0.1704
vn -0.2127 -0.9676 0.1361
vn -0.0066 -1.0000 0.0006
vn -0.0039 -1.0000 0.0059
vn -0.2157 -0.9677 0.1303
vn -0.2312 -0.9687 0.0903
vn -0.0064 -1.0000 -0.0008
vn -0.0049 -1.0000 0.0050
vn -0.2328 -0.9689 0.0844
vn -0.2396 -0.9699 0.0424
vn -0.0060 -1.0000 -0.0021
vn -0.0057 -1.0000 0.0040
vn -0.2400 -0.9701 0.0368
vn -0.2382 -0.9712 -0.0052
vn -0.0053 -1.0000 -0.0032
vn -0.0062 -1.0000 0.0028
vn -0.2375 -0.9713 -0.0103
vn 0.0001 -1.0000 -0.0000
vn -0.0000 -1.0000 -0.0001
vn 0.0003 -1.0000 -0.0001
vn 0.0018 -1.0000 -0.0005
vn 0.0019 -1.0000 -0.0004
vn 0.0004 -1.0000 0.0007
vn -0.0019 -1.0000 0.0028
vn -0.0010 -1.0000 0.0016
vn -0.0001 -1.0000 0.0001
vn -0.0001 -1.0000 -0.0000
vn -0.0000 -1.0000 -0.0000
vn -0.0000 -1.0000 0.0001
vn -0.2275 -0.9724 -0.0507
vn -0.0045 -1.0000 -0.0041
vn -0.0065 -1.0000 0.0015
vn -0.2260 -0.9726 -0.0550
vn -0.2086 -0.9736 -0.0923
vn -0.0035 -1.0000 -0.0049
vn -0.0066 -1.0000 0.0003
vn -0.2066 -0.9737 -0.0958
vn -0.0000 1.0000 -0.0000
vn 0.1404 -0.9692 0.2024
vn -0.0043 -0.9999 0.0131
vn 0.0096 -1.0000 0.0001
vn 0.1552 -0.9698 0.1883
vn -0.0023 0.9999 0.0102
vn 0.1424 0.9695 0.1996
vn 0.1552 0.9700 0.1873
vn 0.0096 1.0000 -0.0010
vn -0.0035 1.0000 -0.0049
vn -0.2087 0.9736 -0.0923
vn -0.2066 0.9737 -0.0958
vn -0.0066 1.0000 0.0003
vn -0.0045 1.0000 -0.0042
vn -0.2276 0.9724 -0.0507
vn -0.2261 0.9726 -0.0550
vn -0.0066 1.0000 0.0015
vn -0.0054 1.0000 -0.0032
vn -0.2383 0.9712 -0.0052
vn -0.2375 0.9713 -0.0103
vn -0.0063 1.0000 0.0028
vn -0.0061 1.0000 -0.0020
vn -0.2397 0.9699 0.0424
vn -0.2400 0.9701 0.0368
vn -0.0058 1.0000 0.0040
vn -0.0065 1.0000 -0.0008
vn -0.2313 0.9687 0.0903
vn -0.2329 0.9688 0.0844
vn -0.0050 1.0000 0.0050
vn -0.0067 1.0000 0.0006
vn -0.2127 0.9676 0.1362
vn -0.2158 0.9677 0.1303
vn -0.0039 1.0000 0.0059
vn -0.0078 1.0000 0.0006
vn -0.1981 0.9665 0.1634
vn -0.1906 0.9668 0.1705
vn -0.0027 1.0000 0.0067
vn -0.0448 0.9984 -0.0349
vn -0.3312 0.9432 0.0266
vn -0.1650 0.9664 0.1970
vn 0.0028 0.9999 0.0114
vn -0.0054 1.0000 0.0045
vn -0.1018 0.9655 0.2397
vn -0.0933 0.9650 0.2452
vn 0.0017 1.0000 0.0081
vn -0.0044 1.0000 0.0056
vn -0.0555 0.9655 0.2546
vn -0.0628 0.9655 0.2529
vn 0.0014 1.0000 0.0069
vn -0.0051 1.0000 0.0065
vn -0.0247 0.9651 0.2609
vn -0.0147 0.9656 0.2596
vn 0.0029 1.0000 0.0064
vn -0.0020 1.0000 0.0069
vn 0.0477 0.9664 0.2527
vn 0.0580 0.9660 0.2521
vn 0.0059 1.0000 0.0053
vn -0.0005 1.0000 0.0071
vn 0.0916 0.9678 0.2346
vn 0.0859 0.9673 0.2386
vn 0.0049 1.0000 0.0046
vn -0.0006 1.0000 0.0082
vn 0.1183 0.9682 0.2204
vn 0.1261 0.9688 0.2134
vn 0.0057 1.0000 0.0033
vn 0.0021 1.0000 0.0067
vn 0.1711 0.9697 0.1746
vn 0.1782 0.9698 0.1664
vn 0.0074 1.0000 0.0007
vn 0.0034 1.0000 0.0061
vn 0.1973 0.9706 0.1381
vn 0.1944 0.9705 0.1425
vn 0.0063 1.0000 0.0008
vn 0.0044 1.0000 0.0053
vn 0.2157 0.9718 0.0951
vn 0.2142 0.9717 0.0997
vn 0.0062 1.0000 -0.0005
vn 0.0052 1.0000 0.0043
vn 0.2251 0.9730 0.0503
vn 0.2246 0.9729 0.0546
vn 0.0059 1.0000 -0.0017
vn 0.0058 1.0000 0.0032
vn 0.2258 0.9742 0.0055
vn 0.2261 0.9741 0.0093
vn 0.0053 1.0000 -0.0029
vn 0.0061 1.0000 0.0020
vn 0.2182 0.9752 -0.0377
vn 0.2191 0.9751 -0.0345
vn 0.0046 1.0000 -0.0038
vn 0.2031 0.9760 -0.0780
vn 0.2044 0.9760 -0.0753
vn 0.0037 1.0000 -0.0046
vn 0.0062 1.0000 -0.0003
vn 0.1814 0.9767 -0.1143
vn 0.1829 0.9767 -0.1122
vn 0.0027 1.0000 -0.0052
vn 0.0060 1.0000 -0.0015
vn 0.1538 0.9773 -0.1457
vn 0.1555 0.9773 -0.1440
vn 0.0016 1.0000 -0.0056
vn 0.0055 1.0000 -0.0025
vn 0.1215 0.9777 -0.1714
vn 0.1233 0.9777 -0.1702
vn 0.0005 1.0000 -0.0059
vn 0.0049 1.0000 -0.0034
vn 0.0853 0.9779 -0.1908
vn 0.0872 0.9779 -0.1900
vn -0.0007 1.0000 -0.0059
vn 0.0041 1.0000 -0.0043
vn 0.0464 0.9780 -0.2036
vn 0.0484 0.9780 -0.2031
vn -0.0018 1.0000 -0.0057
vn 0.0032 1.0000 -0.0049
vn 0.0058 0.9778 -0.2093
vn 0.0079 0.9778 -0.2092
vn -0.0029 1.0000 -0.0053
vn 0.0022 1.0000 -0.0054
vn -0.0354 0.9775 -0.2078
vn -0.0332 0.9776 -0.2080
vn -0.0038 1.0000 -0.0047
vn 0.0011 1.0000 -0.0058
vn -0.0762 0.9771 -0.1988
vn -0.0738 0.9771 -0.1996
vn -0.0047 1.0000 -0.0040
vn -0.0001 1.0000 -0.0059
vn -0.1151 0.9764 -0.1825
vn -0.1127 0.9765 -0.1838
vn -0.0055 1.0000 -0.0031
vn -0.0013 1.0000 -0.0058
vn -0.1511 0.9756 -0.1590
vn -0.1486 0.9757 -0.1610
vn -0.0061 1.0000 -0.0021
vn -0.0024 1.0000 -0.0055
vn -0.1827 0.9747 -0.1288
vn -0.1804 0.9748 -0.1314
vn -0.0065 1.0000 -0.0009
vn 0.6656 -0.0000 0.7464
vn 0.5487 -0.0000 0.8360
vn -0.9300 -0.0000 -0.3676
vn -0.8895 -0.0000 -0.4569
vn -0.9838 -0.0000 -0.1791
vn -0.9616 -0.0000 -0.2746
vn -0.9999 -0.0000 0.0163
vn -0.9967 -0.0000 -0.0817
vn -0.9775 -0.0000 0.2111
vn -0.9934 -0.0000 0.1143
vn -0.9175 -0.0000 0.3977
vn -0.9521 -0.0000 0.3059
vn -0.8223 -0.0000 0.5691
vn -0.8741 -0.0000 0.4858
vn -0.7377 -0.0000 0.6752
vn -0.7693 -0.0000 0.6389
vn -0.7299 -0.0000 0.6836
vn -0.3577 -0.0000 0.9338
vn -0.4022 -0.0000 0.9155
vn -0.1791 -0.0000 0.9838
vn -0.2746 -0.0000 0.9616
vn -0.0442 -0.0000 0.9990
vn -0.0922 -0.0000 0.9957
vn 0.2214 -0.0000 0.9752
vn 0.1742 -0.0000 0.9847
vn 0.3977 -0.0000 0.9175
vn 0.3059 -0.0000 0.9521
vn 0.5183 -0.0000 0.8552
vn 0.4765 -0.0000 0.8792
vn 0.7259 -0.0000 0.6878
vn 0.6919 -0.0000 0.7220
vn 0.8404 -0.0000 0.5419
vn 0.7833 -0.0000 0.6216
vn 0.9300 -0.0000 0.3676
vn 0.8895 -0.0000 0.4569
vn 0.9838 -0.0000 0.1791
vn 0.9616 -0.0000 0.2746
vn 0.9999 -0.0000 -0.0163
vn 0.9967 -0.0000 0.0817
vn 0.9775 -0.0000 -0.2111
vn 0.9934 -0.0000 -0.1143
vn 0.9175 -0.0000 -0.3977
vn 0.9521 -0.0000 -0.3059
vn 0.8223 -0.0000 -0.5691
vn 0.8741 -0.0000 -0.4858
vn 0.6955 -0.0000 -0.7186
vn 0.7625 -0.0000 -0.6470
vn 0.5419 -0.0000 -0.8404
vn 0.6216 -0.0000 -0.7833
vn 0.3676 -0.0000 -0.9300
vn 0.4569 -0.0000 -0.8895
vn 0.1791 -0.0000 -0.9838
vn 0.2745 -0.0000 -0.9616
vn -0.0163 -0.0000 -0.9999
vn 0.0817 -0.0000 -0.9967
vn -0.2111 -0.0000 -0.9775
vn -0.1143 -0.0000 -0.9934
vn -0.3977 -0.0000 -0.9175
vn -0.3059 -0.0000 -0.9521
vn -0.5691 -0.0000 -0.8223
vn -0.4858 -0.0000 -0.8741
vn -0.7186 -0.0000 -0.6955
vn -0.6470 -0.0000 -0.7625
vn -0.8404 -0.0000 -0.5419
vn -0.7833 -0.0000 -0.6216
vn 0.1387 -0.0000 0.9903
vn -0.0083 -0.0000 1.0000
vn -0.0078 0.9999 0.0071
vn 0.0087 0.9660 0.2582
vn 0.0251 0.9662 0.2565
vn 0.0087 0.9999 0.0053
vn 0.0087 -0.9661 0.2582
vn -0.0078 -0.9999 0.0071
vn 0.0087 -0.9999 0.0053
vn 0.0251 -0.9662 0.2564
vn -0.5825 -0.0000 0.8128
vn -0.0079 1.0000 0.0020
vn -0.1624 0.9657 0.2028
vn -0.1405 0.9653 0.2199
vn 0.0003 1.0000 0.0085
vn -0.1624 -0.9657 0.2027
vn -0.0079 -1.0000 0.0020
vn 0.0004 -1.0000 0.0085
vn -0.1405 -0.9654 0.2199
vn -0.0110 0.9999 -0.0022
vn -0.1734 0.9666 0.1888
vn 0.0013 0.9364 0.3509
vn 0.0366 0.9983 0.0452
vn -0.1734 -0.9666 0.1887
vn -0.0110 -0.9999 -0.0023
vn 0.0367 -0.9983 0.0451
vn 0.0014 -0.9364 0.3508
vn -0.1363 -0.9660 0.2196
vn -0.0101 -0.9999 0.0010
vn 0.0039 -0.9999 0.0097
vn -0.1223 -0.9659 0.2282
vn -0.0102 0.9999 0.0011
vn -0.1363 0.9660 0.2197
vn -0.1224 0.9659 0.2283
vn 0.0039 0.9999 0.0098
vn -0.4348 -0.0000 0.9005
vn -0.5624 -0.0000 0.8268
vt 1.000000 1.000000
vt 1.000000 1.000000
vt 0.984375 0.991319
vt 0.984375 0.923611
vt 0.984375 1.000000
vt 0.968750 1.000000
vt 0.968750 0.989583
vt 0.968750 0.916667
vt 0.953125 0.989583
vt 0.953125 0.916667
vt 0.953125 1.000000
vt 0.937500 1.000000
vt 0.937500 0.989583
vt 0.937500 0.916667
vt 0.921875 0.989583
vt 0.921875 0.916667
vt 0.921875 1.000000
vt 0.906250 1.000000
vt 0.906250 0.989583
vt 0.906250 0.916667
vt 0.890625 0.989583
vt 0.890625 0.916667
vt 0.890625 1.000000
vt 0.875000 1.000000
vt 0.875000 0.989583
vt 0.875000 0.916667
vt 0.859375 0.989583
vt 0.859375 0.916667
vt 0.859375 1.000000
vt 0.843750 1.000000
vt 0.843750 0.989583
vt 0.843750 0.916667
vt 0.828125 0.989583
vt 0.828125 0.916667
vt 0.828125 1.000000
vt 0.812500 1.000000
vt 0.812500 0.989583
vt 0.812500 0.916667
vt 0.796875 0.989583
vt 0.796875 0.916667
vt 0.796875 1.000000
vt 0.781250 1.000000
vt 0.781250 0.989583
vt 0.781250 0.916667
vt 0.765625 0.989583
vt 0.765625 0.916667
vt 0.765625 1.000000
vt 0.750000 1.000000
vt 0.750000 0.989583
vt 0.750000 0.916667
vt 0.734375 0.989583
vt 0.734375 0.916667
vt 0.734375 1.000000
vt 0.718750 1.000000
vt 0.718750 0.989583
vt 0.718750 0.916667
vt 0.703125 0.989583
vt 0.703125 0.916667
vt 0.703125 1.000000
vt 0.687500 1.000000
vt 0.687500 0.989583
vt 0.687500 0.916667
vt 0.671875 0.989583
vt 0.671875 0.916667
vt 0.671875 1.000000
vt 0.656250 1.000000
vt 0.656250 0.989583
vt 0.656250 0.916667
vt 0.640625 0.989583
vt 0.640625 0.916667
vt 0.640625 1.000000
vt 0.625000 1.000000
vt 0.625000 0.989583
vt 0.625000 0.916667
vt 0.609375 0.989583
vt 0.609375 0.916667
vt 0.609375 1.000000
vt 0.593750 1.000000
vt 0.593750 0.989583
vt 0.593750 0.916667
vt 0.578125 0.989583
vt 0.578125 0.916667
vt 0.578125 1.000000
vt 0.562500 1.000000
vt 0.562500 0.989583
vt 0.562500 0.916667
vt 0.546875 0.989583
vt 0.546875 0.916667
vt 0.546875 1.000000
vt 0.531250 1.000000
vt 0.531250 0.989583
vt 0.531250 0.916667
vt 0.515625 0.989583
vt 0.515625 0.916667
vt 0.515625 1.000000
vt 0.500000 1.000000
vt 0.500000 0.989583
vt 0.500000 0.916667
vt 0.484375 0.989583
vt 0.484375 0.916667
vt 0.484375 1.000000
vt 0.468750 1.000000
vt 0.468750 0.989583
vt 0.468750 0.916667
vt 0.453125 0.991320
vt 0.453234 0.923611
vt 0.453125 1.000000
vt 0.437500 1.000000
vt 0.437500 1.000000
vt 0.421875 0.991319
vt 0.421766 0.923611
vt 0.421875 1.000000
vt 0.406250 1.000000
vt 0.406250 0.989583
vt 0.406250 0.916667
vt 0.390625 0.989583
vt 0.390625 0.916667
vt 0.390625 1.000000
vt 0.375000 1.000000
vt 0.375000 0.989583
vt 0.375000 0.916667
vt 0.359375 0.991320
vt 0.359484 0.923611
vt 0.359375 1.000000
vt 0.343750 1.000000
vt 0.343750 1.000000
vt 0.343750 1.000000
vt 0.050447 0.116663
vt 0.051558 0.126363
vt 0.044578 0.141499
vt 0.039358 0.137410
vt 0.075495 0.144624
vt 0.082798 0.164833
vt 0.028269 0.158156
vt 0.028269 0.158156
vt 0.028269 0.158156
vt 0.312500 1.000000
vt 0.312500 1.000000
vt 0.296875 0.991319
vt 0.296875 0.923611
vt 0.296875 1.000000
vt 0.281250 1.000000
vt 0.281250 0.989583
vt 0.281250 0.916667
vt 0.265625 0.991320
vt 0.265734 0.923611
vt 0.265625 1.000000
vt 0.250000 1.000000
vt 0.250000 1.000000
vt 0.014612 0.296822
vt 0.020076 0.295408
vt 0.021041 0.295158
vt 0.014612 0.296822
vt 0.049329 0.287841
vt 0.065109 0.284433
vt 0.014612 0.296822
vt 0.218750 1.000000
vt 0.218750 1.000000
vt 0.203125 0.991319
vt 0.203017 0.923611
vt 0.203125 1.000000
vt 0.187500 1.000000
vt 0.187500 0.989583
vt 0.187500 0.916667
vt 0.171875 0.989583
vt 0.171875 0.916667
vt 0.171875 1.000000
vt 0.156250 1.000000
vt 0.156250 0.989583
vt 0.156250 0.916667
vt 0.140625 0.989583
vt 0.140625 0.916667
vt 0.140625 1.000000
vt 0.125000 1.000000
vt 0.125000 0.989583
vt 0.125000 0.916667
vt 0.109375 0.989583
vt 0.109375 0.916667
vt 0.109375 1.000000
vt 0.093750 1.000000
vt 0.093750 0.989583
vt 0.093750 0.916667
vt 0.078125 0.989583
vt 0.078125 0.916667
vt 0.078125 1.000000
vt 0.062500 1.000000
vt 0.062500 0.989583
vt 0.062500 0.916667
vt 0.158156 0.471731
vt 0.137410 0.460642
vt 0.223781 0.243133
vt 0.180667 0.478560
vt 0.116663 0.449553
vt 0.098479 0.434629
vt 0.137410 0.460642
vt 0.080294 0.419706
vt 0.065371 0.401521
vt 0.050447 0.383337
vt 0.039358 0.362590
vt 0.065371 0.401521
vt 0.028269 0.341844
vt 0.021440 0.319333
vt 0.039358 0.362590
vt 0.065109 0.284433
vt 0.021440 0.319333
vt 0.068788 0.281250
vt 0.048560 0.280037
vt 0.067233 0.265463
vt 0.068788 0.281250
vt 0.046254 0.256626
vt 0.061635 0.249161
vt 0.067233 0.265463
vt 0.010000 0.250000
vt 0.012306 0.226589
vt 0.061635 0.249161
vt 0.014612 0.203178
vt 0.021440 0.180667
vt 0.082798 0.164833
vt 0.021440 0.180667
vt 0.091796 0.147999
vt 0.065371 0.098479
vt 0.091796 0.147999
vt 0.080294 0.080294
vt 0.098479 0.065371
vt 0.116663 0.050447
vt 0.137410 0.039358
vt 0.158156 0.028269
vt 0.172596 0.076091
vt 0.137410 0.039358
vt 0.180667 0.021440
vt 0.203178 0.014612
vt 0.226589 0.012306
vt 0.180667 0.021440
vt 0.250000 0.010000
vt 0.273411 0.012306
vt 0.296822 0.014612
vt 0.319333 0.021440
vt 0.341844 0.028269
vt 0.362590 0.039358
vt 0.319333 0.021440
vt 0.383337 0.050447
vt 0.401521 0.065371
vt 0.362590 0.039358
vt 0.419706 0.080294
vt 0.434629 0.098479
vt 0.401521 0.065371
vt 0.449553 0.116663
vt 0.460642 0.137410
vt 0.471731 0.158156
vt 0.478560 0.180667
vt 0.460642 0.137410
vt 0.485389 0.203178
vt 0.487694 0.226589
vt 0.478560 0.180667
vt 0.490000 0.250000
vt 0.487694 0.273411
vt 0.485389 0.296822
vt 0.478560 0.319333
vt 0.471731 0.341844
vt 0.460642 0.362590
vt 0.478560 0.319333
vt 0.449553 0.383337
vt 0.434629 0.401521
vt 0.460642 0.362590
vt 0.419706 0.419706
vt 0.401521 0.434629
vt 0.434629 0.401521
vt 0.383337 0.449553
vt 0.362590 0.460642
vt 0.401521 0.434629
vt 0.341844 0.471731
vt 0.319333 0.478560
vt 0.362590 0.460642
vt 0.296822 0.485389
vt 0.273411 0.487694
vt 0.319333 0.478560
vt 0.250000 0.490000
vt 0.226589 0.487694
vt 0.203178 0.485389
vt 0.180667 0.478560
vt 0.046875 0.989583
vt 0.046875 0.916667
vt 0.046875 1.000000
vt 0.031250 1.000000
vt 0.031250 0.989583
vt 0.031250 0.916667
vt 0.015625 0.991320
vt 0.015625 0.923611
vt 0.015625 1.000000
vt 0.000000 1.000000
vt 0.000000 1.000000
vt 0.703178 0.485389
vt 0.726589 0.487694
vt 0.722915 0.242935
vt 0.680667 0.478560
vt 0.750000 0.490000
vt 0.773411 0.487694
vt 0.726589 0.487694
vt 0.796822 0.485389
vt 0.819333 0.478560
vt 0.773411 0.487694
vt 0.841844 0.471731
vt 0.862591 0.460642
vt 0.883337 0.449553
vt 0.901521 0.434629
vt 0.919706 0.419706
vt 0.934629 0.401521
vt 0.949553 0.383337
vt 0.960642 0.362590
vt 0.934629 0.401521
vt 0.971731 0.341844
vt 0.978560 0.319333
vt 0.960642 0.362590
vt 0.985389 0.296822
vt 0.987694 0.273411
vt 0.978560 0.319333
vt 0.990000 0.250000
vt 0.987694 0.226589
vt 0.985389 0.203178
vt 0.978560 0.180667
vt 0.971731 0.158156
vt 0.960642 0.137410
vt 0.978560 0.180667
vt 0.949553 0.116663
vt 0.934629 0.098479
vt 0.960642 0.137410
vt 0.919706 0.080294
vt 0.901521 0.065371
vt 0.883337 0.050447
vt 0.862591 0.039358
vt 0.841844 0.028269
vt 0.819333 0.021440
vt 0.796822 0.014612
vt 0.773411 0.012306
vt 0.750000 0.010000
vt 0.726589 0.012306
vt 0.773411 0.012306
vt 0.703178 0.014612
vt 0.680667 0.021440
vt 0.726589 0.012306
vt 0.658156 0.028269
vt 0.658156 0.028269
vt 0.637410 0.039358
vt 0.616663 0.050447
vt 0.598479 0.065371
vt 0.580294 0.080294
vt 0.565371 0.098479
vt 0.598479 0.065371
vt 0.550447 0.116663
vt 0.550447 0.116663
vt 0.539358 0.137410
vt 0.528269 0.158156
vt 0.521440 0.180667
vt 0.539358 0.137410
vt 0.514612 0.203178
vt 0.512306 0.226589
vt 0.521440 0.180667
vt 0.510000 0.250000
vt 0.512306 0.273411
vt 0.514612 0.296822
vt 0.521440 0.319333
vt 0.528269 0.341844
vt 0.539358 0.362590
vt 0.521440 0.319333
vt 0.550447 0.383337
vt 0.565371 0.401521
vt 0.539358 0.362590
vt 0.580294 0.419706
vt 0.598479 0.434629
vt 0.565371 0.401521
vt 0.616663 0.449553
vt 0.637410 0.460642
vt 0.598479 0.434629
vt 0.658156 0.471731
vt 0.158156 0.028269
vt 0.158156 0.028269
vt 0.159955 0.034232
vt 0.031250 0.500000
vt 0.031250 0.510417
vt 0.015625 0.508681
vt 0.015625 0.500000
vt 0.031250 0.583333
vt 0.015625 0.576389
vt 0.000000 0.500000
vt 0.000000 0.500000
vt 0.062500 0.500000
vt 0.062500 0.510417
vt 0.046875 0.510417
vt 0.046875 0.500000
vt 0.062500 0.583333
vt 0.046875 0.583333
vt 0.093750 0.500000
vt 0.093750 0.510417
vt 0.078125 0.510417
vt 0.078125 0.500000
vt 0.093750 0.583333
vt 0.078125 0.583333
vt 0.125000 0.500000
vt 0.125000 0.510417
vt 0.109375 0.510417
vt 0.109375 0.500000
vt 0.125000 0.583333
vt 0.109375 0.583333
vt 0.156250 0.500000
vt 0.156250 0.510417
vt 0.140625 0.510417
vt 0.140625 0.500000
vt 0.156250 0.583333
vt 0.140625 0.583333
vt 0.187500 0.500000
vt 0.187500 0.510417
vt 0.171875 0.510417
vt 0.171875 0.500000
vt 0.187500 0.583333
vt 0.171875 0.583333
vt 0.218750 0.500000
vt 0.203125 0.508681
vt 0.203125 0.500000
vt 0.218750 0.500000
vt 0.203017 0.576389
vt 0.514612 0.296822
vt 0.514612 0.296822
vt 0.514612 0.296822
vt 0.281250 0.500000
vt 0.281250 0.510417
vt 0.266168 0.510417
vt 0.265625 0.500000
vt 0.281250 0.583333
vt 0.266276 0.583333
vt 0.255208 0.583333
vt 0.254774 0.510417
vt 0.250000 0.500000
vt 0.312500 0.500000
vt 0.312500 0.510417
vt 0.296875 0.510417
vt 0.296875 0.500000
vt 0.312500 0.583333
vt 0.296875 0.583333
vt 0.343750 0.500000
vt 0.338976 0.510417
vt 0.327583 0.510417
vt 0.328125 0.500000
vt 0.338542 0.583333
vt 0.327474 0.583333
vt 0.375000 0.500000
vt 0.375000 0.510417
vt 0.359918 0.510417
vt 0.359375 0.500000
vt 0.375000 0.583333
vt 0.360026 0.583333
vt 0.348958 0.583333
vt 0.348524 0.510417
vt 0.343750 0.500000
vt 0.406250 0.500000
vt 0.406250 0.510417
vt 0.390625 0.510417
vt 0.390625 0.500000
vt 0.406250 0.583333
vt 0.390625 0.583333
vt 0.437500 0.500000
vt 0.421875 0.508681
vt 0.421875 0.500000
vt 0.437500 0.500000
vt 0.421767 0.576389
vt 0.468750 0.500000
vt 0.468750 0.500000
vt 0.453125 0.500000
vt 0.453125 0.500000
vt 0.468750 0.500000
vt 0.453125 0.500000
vt 0.500000 0.500000
vt 0.484375 0.500000
vt 0.484375 0.500000
vt 0.484375 0.500000
vt 0.531250 0.500000
vt 0.531250 0.510417
vt 0.515625 0.508681
vt 0.515625 0.500000
vt 0.531250 0.583333
vt 0.515625 0.576389
vt 0.500000 0.500000
vt 0.562500 0.500000
vt 0.562500 0.510417
vt 0.546875 0.510417
vt 0.546875 0.500000
vt 0.562500 0.583333
vt 0.546875 0.583333
vt 0.593750 0.500000
vt 0.593750 0.510417
vt 0.578125 0.510417
vt 0.578125 0.500000
vt 0.593750 0.583333
vt 0.578125 0.583333
vt 0.625000 0.500000
vt 0.625000 0.510417
vt 0.609375 0.510417
vt 0.609375 0.500000
vt 0.625000 0.583333
vt 0.609375 0.583333
vt 0.656250 0.500000
vt 0.656250 0.510417
vt 0.640625 0.510417
vt 0.640625 0.500000
vt 0.656250 0.583333
vt 0.640625 0.583333
vt 0.687500 0.500000
vt 0.687500 0.510417
vt 0.671875 0.510417
vt 0.671875 0.500000
vt 0.687500 0.583333
vt 0.671875 0.583333
vt 0.718750 0.500000
vt 0.718750 0.510417
vt 0.703125 0.510417
vt 0.703125 0.500000
vt 0.718750 0.583333
vt 0.703125 0.583333
vt 0.750000 0.500000
vt 0.750000 0.510417
vt 0.734375 0.510417
vt 0.734375 0.500000
vt 0.750000 0.583333
vt 0.734375 0.583333
vt 0.781250 0.500000
vt 0.781250 0.510417
vt 0.765625 0.510417
vt 0.765625 0.500000
vt 0.781250 0.583333
vt 0.765625 0.583333
vt 0.812500 0.500000
vt 0.812500 0.510417
vt 0.796875 0.510417
vt 0.796875 0.500000
vt 0.812500 0.583333
vt 0.796875 0.583333
vt 0.843750 0.500000
vt 0.843750 0.510417
vt 0.828125 0.510417
vt 0.828125 0.500000
vt 0.843750 0.583333
vt 0.828125 0.583333
vt 0.875000 0.500000
vt 0.875000 0.510417
vt 0.859375 0.510417
vt 0.859375 0.500000
vt 0.875000 0.583333
vt 0.859375 0.583333
vt 0.906250 0.500000
vt 0.906250 0.510417
vt 0.890625 0.510417
vt 0.890625 0.500000
vt 0.906250 0.583333
vt 0.890625 0.583333
vt 0.937500 0.500000
vt 0.937500 0.510417
vt 0.921875 0.510417
vt 0.921875 0.500000
vt 0.937500 0.583333
vt 0.921875 0.583333
vt 0.968750 0.500000
vt 0.968750 0.510417
vt 0.953125 0.510417
vt 0.953125 0.500000
vt 0.968750 0.583333
vt 0.953125 0.583333
vt 1.000000 0.500000
vt 0.984375 0.508681
vt 0.984375 0.500000
vt 1.000000 0.500000
vt 0.984375 0.576389
vt 0.441840 0.748264
vt 0.437500 0.750000
vt 0.433160 0.750000
vt 0.031250 0.750000
vt 0.015625 0.750000
vt 0.000000 0.750000
vt 0.062500 0.583333
vt 0.062500 0.750000
vt 0.046875 0.750000
vt 0.046875 0.583333
vt 0.031250 0.583333
vt 0.093750 0.583333
vt 0.093750 0.750000
vt 0.078125 0.750000
vt 0.078125 0.583333
vt 0.093750 0.916667
vt 0.125000 0.583333
vt 0.125000 0.750000
vt 0.109375 0.750000
vt 0.109375 0.583333
vt 0.125000 0.916667
vt 0.109375 0.916667
vt 0.156250 0.583333
vt 0.156250 0.750000
vt 0.140625 0.750000
vt 0.140625 0.583333
vt 0.156250 0.916667
vt 0.140625 0.916667
vt 0.187500 0.583333
vt 0.187500 0.750000
vt 0.171875 0.750000
vt 0.171875 0.583333
vt 0.171875 0.916667
vt 0.214410 0.750000
vt 0.202691 0.750000
vt 0.218750 0.750000
vt 0.218316 0.750000
vt 0.281250 0.750000
vt 0.266168 0.751736
vt 0.254774 0.758681
vt 0.312500 0.758681
vt 0.296875 0.751736
vt 0.338976 0.760417
vt 0.327583 0.760417
vt 0.328125 1.000000
vt 0.375000 0.750000
vt 0.359918 0.751736
vt 0.348524 0.758681
vt 0.406250 0.583333
vt 0.406250 0.750000
vt 0.390625 0.750000
vt 0.390625 0.583333
vt 0.406250 0.916667
vt 0.375000 0.750000
vt 0.375000 0.583333
vt 0.421441 0.750000
vt 0.406250 0.750000
vt 0.468750 0.739583
vt 0.453559 0.741320
vt 0.500000 0.741320
vt 0.484375 0.739583
vt 0.531250 0.750000
vt 0.515625 0.748264
vt 0.562500 0.583333
vt 0.562500 0.750000
vt 0.546875 0.750000
vt 0.546875 0.583333
vt 0.531250 0.583333
vt 0.593750 0.583333
vt 0.593750 0.750000
vt 0.578125 0.750000
vt 0.578125 0.583333
vt 0.593750 0.916667
vt 0.578125 0.916667
vt 0.625000 0.583333
vt 0.625000 0.750000
vt 0.609375 0.750000
vt 0.609375 0.583333
vt 0.625000 0.916667
vt 0.656250 0.583333
vt 0.656250 0.750000
vt 0.640625 0.750000
vt 0.640625 0.583333
vt 0.640625 0.916667
vt 0.687500 0.583333
vt 0.687500 0.750000
vt 0.671875 0.750000
vt 0.671875 0.583333
vt 0.687500 0.916667
vt 0.718750 0.583333
vt 0.718750 0.750000
vt 0.703125 0.750000
vt 0.703125 0.583333
vt 0.718750 0.916667
vt 0.703125 0.916667
vt 0.750000 0.583333
vt 0.750000 0.750000
vt 0.734375 0.750000
vt 0.734375 0.583333
vt 0.750000 0.916667
vt 0.781250 0.583333
vt 0.781250 0.750000
vt 0.765625 0.750000
vt 0.765625 0.583333
vt 0.765625 0.916667
vt 0.812500 0.583333
vt 0.812500 0.750000
vt 0.796875 0.750000
vt 0.796875 0.583333
vt 0.796875 0.916667
vt 0.843750 0.583333
vt 0.843750 0.750000
vt 0.828125 0.750000
vt 0.828125 0.583333
vt 0.843750 0.916667
vt 0.875000 0.583333
vt 0.875000 0.750000
vt 0.859375 0.750000
vt 0.859375 0.583333
vt 0.859375 0.916667
vt 0.906250 0.583333
vt 0.906250 0.750000
vt 0.890625 0.750000
vt 0.890625 0.583333
vt 0.906250 0.916667
vt 0.937500 0.583333
vt 0.937500 0.750000
vt 0.921875 0.750000
vt 0.921875 0.583333
vt 0.968750 0.583333
vt 0.968750 0.750000
vt 0.953125 0.750000
vt 0.953125 0.583333
vt 0.968750 0.916667
vt 1.000000 0.750000
vt 0.984375 0.750000
vt 0.968750 0.750000
vt 0.343750 0.760417
vt 0.343750 0.583333
vt 0.343750 1.000000
vt 0.343750 0.510417
vt 0.343750 0.500000
vt 0.050447 0.116663
vt 0.050447 0.116663
vt 0.055360 0.121329
vt 0.244792 0.583333
vt 0.245226 0.760417
vt 0.234267 0.758681
vt 0.233832 0.576389
vt 0.234375 1.000000
vt 0.223090 0.751736
vt 0.245226 0.510417
vt 0.233832 0.508681
vt 0.234375 0.500000
vt 0.016296 0.257022
vt 0.019456 0.272376
vt 0.012306 0.273411
vt 0.019366 0.288200
vt 0.219184 0.750000
vt 0.021598 0.294125
vt 0.010000 0.250000
vt 0.016657 0.250649
vt 0.250000 0.510417
vt 0.250000 0.500000
vt 0.250000 0.583333
vt 0.250000 0.760417
s 0
usemtl マテリアル
f 100/1/1 379/4/1 408/3/1 150/2/1
f 150/2/2 408/3/2 151/5/2 2/2/2
f 408/3/3 152/7/3 4/6/3 151/5/3
f 379/4/4 101/8/4 152/7/4 408/3/4
f 101/8/5 378/10/5 409/9/5 152/7/5
f 152/7/6 409/9/6 154/11/6 4/6/6
f 409/9/7 155/13/7 6/12/7 154/11/7
f 378/10/8 102/14/8 155/13/8 409/9/8
f 102/14/9 377/16/9 410/15/9 155/13/9
f 155/13/10 410/15/10 157/17/10 6/12/10
f 410/15/11 158/19/11 8/18/11 157/17/11
f 377/16/12 103/20/12 158/19/12 410/15/12
f 103/20/13 376/22/13 411/21/13 158/19/13
f 158/19/14 411/21/14 160/23/14 8/18/14
f 411/21/15 161/25/15 10/24/15 160/23/15
f 376/22/16 104/26/16 161/25/16 411/21/16
f 104/26/17 375/28/17 412/27/17 161/25/17
f 161/25/18 412/27/18 163/29/18 10/24/18
f 412/27/19 164/31/19 12/30/19 163/29/19
f 375/28/20 105/32/20 164/31/20 412/27/20
f 105/32/21 374/34/21 413/33/21 164/31/21
f 164/31/22 413/33/22 166/35/22 12/30/22
f 413/33/23 167/37/23 14/36/23 166/35/23
f 374/34/24 106/38/24 167/37/24 413/33/24
f 106/38/25 373/40/25 414/39/25 167/37/25
f 167/37/26 414/39/26 169/41/26 14/36/26
f 414/39/27 170/43/27 16/42/27 169/41/27
f 373/40/28 107/44/28 170/43/28 414/39/28
f 107/44/29 372/46/29 415/45/29 170/43/29
f 170/43/30 415/45/30 172/47/30 16/42/30
f 415/45/31 173/49/31 18/48/31 172/47/31
f 372/46/32 108/50/32 173/49/32 415/45/32
f 108/50/33 371/52/33 416/51/33 173/49/33
f 173/49/34 416/51/34 175/53/34 18/48/34
f 416/51/35 176/55/35 20/54/35 175/53/35
f 371/52/36 109/56/36 176/55/36 416/51/36
f 109/56/37 370/58/37 417/57/37 176/55/37
f 176/55/38 417/57/38 178/59/38 20/54/38
f 417/57/39 179/61/39 22/60/39 178/59/39
f 370/58/40 110/62/40 179/61/40 417/57/40
f 110/62/41 369/64/41 418/63/41 179/61/41
f 179/61/42 418/63/42 181/65/42 22/60/42
f 418/63/43 182/67/43 24/66/43 181/65/43
f 369/64/44 111/68/44 182/67/44 418/63/44
f 111/68/45 368/70/45 419/69/45 182/67/45
f 182/67/46 419/69/46 184/71/46 24/66/46
f 419/69/47 185/73/47 26/72/47 184/71/47
f 368/70/48 112/74/48 185/73/48 419/69/48
f 112/74/49 367/76/49 420/75/49 185/73/49
f 185/73/50 420/75/50 187/77/50 26/72/50
f 420/75/51 188/79/51 28/78/51 187/77/51
f 367/76/52 113/80/52 188/79/52 420/75/52
f 113/80/53 366/82/53 421/81/53 188/79/53
f 188/79/54 421/81/54 190/83/54 28/78/54
f 421/81/55 191/85/55 30/84/55 190/83/55
f 366/82/56 114/86/56 191/85/56 421/81/56
f 114/86/57 365/88/57 422/87/57 191/85/57
f 191/85/58 422/87/58 193/89/58 30/84/58
f 422/87/59 194/91/59 32/90/59 193/89/59
f 365/88/60 115/92/60 194/91/60 422/87/60
f 115/92/61 364/94/61 423/93/61 194/91/61
f 194/91/62 423/93/62 196/95/62 32/90/62
f 423/93/63 197/97/63 34/96/63 196/95/63
f 364/94/64 116/98/64 197/97/64 423/93/64
f 116/98/65 363/100/65 424/99/65 197/97/65
f 197/97/66 424/99/66 199/101/66 34/96/66
f 424/99/67 200/103/67 36/102/67 199/101/67
f 363/100/68 117/104/68 200/103/68 424/99/68
f 117/104/69 362/106/69 425/105/69 200/103/69
f 200/103/70 425/105/70 202/107/70 36/102/70
f 425/105/71 203/108/71 38/108/71 202/107/71
f 362/106/72 118/109/72 203/108/72 425/105/72
f 132/109/73 361/111/73 426/110/73 346/108/73
f 346/108/74 426/110/74 205/112/74 66/108/74
f 426/110/75 206/114/75 40/113/75 205/112/75
f 361/111/76 119/115/76 206/114/76 426/110/76
f 119/115/77 360/117/77 427/116/77 206/114/77
f 206/114/78 427/116/78 208/118/78 40/113/78
f 427/116/79 209/120/79 42/119/79 208/118/79
f 360/117/80 120/121/80 209/120/80 427/116/80
f 120/121/81 359/123/81 428/122/81 209/120/81
f 209/120/82 428/122/82 211/124/82 42/119/82
f 428/122/83 212/126/83 44/125/83 211/124/83
f 359/123/84 121/127/84 212/126/84 428/122/84
f 136/128/85 358/131/85 429/130/85 386/129/85
f 386/129/86 429/130/86 214/133/86 134/132/86
f 429/130/87 215/135/87 46/134/87 214/133/87
f 358/131/88 122/136/88 215/135/88 429/130/88
f 122/137/89 357/140/89 430/139/89 215/138/89
f 215/138/90 430/139/90 217/141/90 46/138/90
f 430/139/91 218/143/91 48/142/91 217/141/91
f 357/140/92 123/144/92 218/143/92 430/139/92
f 123/144/93 356/146/93 431/145/93 218/143/93
f 218/143/94 431/145/94 220/147/94 48/142/94
f 431/145/95 221/148/95 50/148/95 220/147/95
f 356/146/96 124/149/96 221/148/96 431/145/96
f 144/150/97 355/153/97 432/152/97 400/151/97
f 400/151/98 432/152/98 223/155/98 142/154/98
f 432/152/99 224/153/99 52/150/99 223/155/99
f 355/153/100 125/156/100 224/153/100 432/152/100
f 125/157/101 354/160/101 433/159/101 224/158/101
f 224/158/102 433/159/102 226/161/102 52/158/102
f 433/159/103 227/163/103 54/162/103 226/161/103
f 354/160/104 126/164/104 227/163/104 433/159/104
f 126/164/105 353/166/105 434/165/105 227/163/105
f 227/163/106 434/165/106 229/167/106 54/162/106
f 434/165/107 230/169/107 56/168/107 229/167/107
f 353/166/108 127/170/108 230/169/108 434/165/108
f 127/170/109 352/172/109 435/171/109 230/169/109
f 230/169/110 435/171/110 232/173/110 56/168/110
f 435/171/111 233/175/111 58/174/111 232/173/111
f 352/172/112 128/176/112 233/175/112 435/171/112
f 128/176/113 351/178/113 436/177/113 233/175/113
f 233/175/114 436/177/114 235/179/114 58/174/114
f 436/177/115 236/181/115 60/180/115 235/179/115
f 351/178/116 129/182/116 236/181/116 436/177/116
f 129/182/117 350/184/117 437/183/117 236/181/117
f 236/181/118 437/183/118 238/185/118 60/180/118
f 437/183/119 239/187/119 62/186/119 238/185/119
f 350/184/120 130/188/120 239/187/120 437/183/120
f 62/189/121 240/192/121 438/191/121 238/190/121
f 60/193/121 238/195/121 438/191/121 235/194/121
f 58/196/121 235/194/121 438/191/121 232/197/121
f 56/198/121 232/200/121 438/191/121 229/199/121
f 54/201/121 229/203/121 438/191/121 226/202/121
f 52/150/121 226/205/121 438/191/121 223/204/121
f 142/154/122 223/155/122 438/191/122 395/206/122
f 138/207/122 395/209/122 438/191/122 388/208/122
f 146/210/122 388/212/122 438/191/122 402/211/122
f 50/213/122 402/215/122 438/191/122 220/214/122
f 48/216/122 220/214/122 438/191/122 217/217/122
f 46/134/122 217/219/122 438/191/122 214/218/122
f 134/132/122 214/133/122 438/191/122 381/220/122
f 44/128/123 381/222/123 438/191/123 211/221/123
f 42/223/124 211/221/124 438/191/124 208/224/124
f 40/225/125 208/224/125 438/191/125 205/226/125
f 66/227/126 205/229/126 438/191/126 246/228/126
f 38/227/127 246/228/127 438/191/127 202/230/127
f 36/231/128 202/233/128 438/191/128 199/232/128
f 34/234/129 199/232/129 438/191/129 196/235/129
f 32/236/130 196/235/130 438/191/130 193/237/130
f 30/238/130 193/240/130 438/191/130 190/239/130
f 28/241/130 190/243/130 438/191/130 187/242/130
f 26/244/130 187/246/130 438/191/130 184/245/130
f 24/247/130 184/245/130 438/191/130 181/248/130
f 22/249/131 181/251/131 438/191/131 178/250/131
f 20/252/131 178/254/131 438/191/131 175/253/131
f 18/255/131 175/253/131 438/191/131 172/256/131
f 16/257/132 172/256/132 438/191/132 169/258/132
f 14/259/132 169/261/132 438/191/132 166/260/132
f 12/262/132 166/264/132 438/191/132 163/263/132
f 10/265/132 163/267/132 438/191/132 160/266/132
f 8/268/132 160/270/132 438/191/132 157/269/132
f 6/271/131 157/273/131 438/191/131 154/272/131
f 4/274/131 154/276/131 438/191/131 151/275/131
f 2/277/121 151/275/121 438/191/121 241/278/121
f 64/279/121 241/278/121 438/191/121 240/280/121
f 130/188/133 349/282/133 439/281/133 239/187/133
f 239/187/134 439/281/134 240/283/134 62/186/134
f 439/281/135 243/285/135 64/284/135 240/283/135
f 349/282/136 131/286/136 243/285/136 439/281/136
f 131/286/137 348/288/137 440/287/137 243/285/137
f 243/285/138 440/287/138 241/289/138 64/284/138
f 440/287/139 150/290/139 2/290/139 241/289/139
f 348/288/140 100/291/140 150/290/140 440/287/140
f 63/292/141 242/295/141 441/294/141 244/293/141
f 1/296/141 244/298/141 441/294/141 149/297/141
f 3/299/141 149/301/141 441/294/141 153/300/141
f 5/302/141 153/300/141 441/294/141 156/303/141
f 7/304/141 156/303/141 441/294/141 159/305/141
f 9/306/141 159/305/141 441/294/141 162/307/141
f 11/308/141 162/310/141 441/294/141 165/309/141
f 13/311/141 165/313/141 441/294/141 168/312/141
f 15/314/141 168/316/141 441/294/141 171/315/141
f 17/317/141 171/315/141 441/294/141 174/318/141
f 19/319/141 174/318/141 441/294/141 177/320/141
f 21/321/141 177/323/141 441/294/141 180/322/141
f 23/324/141 180/326/141 441/294/141 183/325/141
f 25/327/141 183/325/141 441/294/141 186/328/141
f 27/329/141 186/328/141 441/294/141 189/330/141
f 29/331/141 189/330/141 441/294/141 192/332/141
f 31/333/141 192/332/141 441/294/141 195/334/141
f 33/335/141 195/337/141 441/294/141 198/336/141
f 35/338/141 198/340/141 441/294/141 201/339/141
f 37/341/141 201/339/141 441/294/141 245/342/141
f 65/341/141 245/342/141 441/294/141 204/343/141
f 39/344/141 204/343/141 441/294/141 207/345/141
f 41/346/141 207/348/141 441/294/141 210/347/141
f 43/349/141 210/347/141 441/294/141 380/350/141
f 133/349/141 380/350/141 441/294/141 213/351/141
f 45/352/141 213/354/141 441/294/141 216/353/141
f 47/355/141 216/357/141 441/294/141 219/356/141
f 49/358/141 219/356/141 441/294/141 401/358/141
f 145/358/141 401/358/141 441/294/141 387/359/141
f 137/360/141 387/359/141 441/294/141 394/360/141
f 141/360/141 394/360/141 441/294/141 222/360/141
f 51/360/141 222/360/141 441/294/141 225/361/141
f 53/362/141 225/364/141 441/294/141 228/363/141
f 55/365/141 228/367/141 441/294/141 231/366/141
f 57/368/141 231/370/141 441/294/141 234/369/141
f 59/371/141 234/373/141 441/294/141 237/372/141
f 61/374/141 237/372/141 441/294/141 242/295/141
f 118/375/142 347/376/142 442/377/142 203/376/142
f 203/376/143 442/377/143 246/228/143 38/227/143
f 442/377/144 346/376/144 66/227/144 246/228/144
f 347/376/145 132/375/145 346/376/145 442/377/145
f 37/341/146 245/342/146 443/341/146 266/342/146
f 266/342/147 443/341/147 281/342/147 85/341/147
f 443/341/148 247/342/148 99/341/148 281/342/148
f 245/342/149 65/341/149 247/342/149 443/341/149
f 63/378/150 244/381/150 444/380/150 279/379/150
f 279/379/151 444/380/151 282/383/151 98/382/151
f 444/380/152 248/385/152 67/384/152 282/383/152
f 244/381/153 1/385/153 248/385/153 444/380/153
f 61/386/154 242/389/154 445/388/154 278/387/154
f 278/387/155 445/388/155 283/391/155 97/390/155
f 445/388/156 279/379/156 98/382/156 283/391/156
f 242/389/157 63/378/157 279/379/157 445/388/157
f 59/392/158 237/395/158 446/394/158 277/393/158
f 277/393/159 446/394/159 284/397/159 96/396/159
f 446/394/160 278/387/160 97/390/160 284/397/160
f 237/395/161 61/386/161 278/387/161 446/394/161
f 57/398/162 234/401/162 447/400/162 276/399/162
f 276/399/163 447/400/163 285/403/163 95/402/163
f 447/400/164 277/393/164 96/396/164 285/403/164
f 234/401/165 59/392/165 277/393/165 447/400/165
f 55/404/166 231/407/166 448/406/166 275/405/166
f 275/405/167 448/406/167 286/409/167 94/408/167
f 448/406/168 276/399/168 95/402/168 286/409/168
f 231/407/169 57/398/169 276/399/169 448/406/169
f 53/410/170 228/413/170 449/412/170 274/411/170
f 274/411/171 449/412/171 287/415/171 93/414/171
f 449/412/172 275/405/172 94/408/172 287/415/172
f 228/413/173 55/404/173 275/405/173 449/412/173
f 51/416/174 225/418/174 450/417/174 273/416/174
f 273/416/175 450/417/175 288/420/175 92/419/175
f 450/417/176 274/411/176 93/414/176 288/420/176
f 225/418/177 53/410/177 274/411/177 450/417/177
f 141/421/178 222/360/178 451/423/178 399/422/178
f 399/422/179 451/423/179 289/360/179 143/421/179
f 451/423/180 273/360/180 92/360/180 289/360/180
f 222/360/181 51/360/181 273/360/181 451/423/181
f 47/424/182 219/427/182 452/426/182 271/425/182
f 271/425/183 452/426/183 290/429/183 90/428/183
f 452/426/184 272/431/184 91/430/184 290/429/184
f 219/427/185 49/432/185 272/431/185 452/426/185
f 45/433/186 216/436/186 453/435/186 270/434/186
f 270/434/187 453/435/187 291/438/187 89/437/187
f 453/435/188 271/425/188 90/428/188 291/438/188
f 216/436/189 47/424/189 271/425/189 453/435/189
f 133/439/190 213/442/190 454/441/190 385/440/190
f 385/440/191 454/441/191 292/444/191 135/443/191
f 454/441/192 270/434/192 89/437/192 292/444/192
f 213/442/193 45/433/193 270/434/193 454/441/193
f 41/445/194 210/448/194 455/447/194 268/446/194
f 268/446/195 455/447/195 293/450/195 87/449/195
f 455/447/196 269/452/196 88/451/196 293/450/196
f 210/448/197 43/453/197 269/452/197 455/447/197
f 39/454/198 207/457/198 456/456/198 267/455/198
f 267/455/199 456/456/199 294/459/199 86/458/199
f 456/456/200 268/446/200 87/449/200 294/459/200
f 207/457/201 41/445/201 268/446/201 456/456/201
f 65/460/202 204/462/202 457/461/202 247/460/202
f 247/460/203 457/461/203 295/464/203 99/463/203
f 457/461/204 267/455/204 86/458/204 295/464/204
f 204/462/205 39/454/205 267/455/205 457/461/205
f 35/465/206 201/468/206 458/467/206 265/466/206
f 265/466/207 458/467/207 296/470/207 84/469/207
f 458/467/208 266/460/208 85/460/208 296/470/208
f 201/468/209 37/460/209 266/460/209 458/467/209
f 33/471/210 198/473/210 459/472/210 264/471/210
f 264/471/211 459/472/211 297/474/211 83/471/211
f 459/472/212 265/466/212 84/469/212 297/474/212
f 198/473/213 35/465/213 265/466/213 459/472/213
f 31/475/214 195/478/214 460/477/214 263/476/214
f 263/476/215 460/477/215 298/480/215 82/479/215
f 460/477/216 264/471/216 83/481/216 298/480/216
f 195/478/217 33/471/217 264/471/217 460/477/217
f 29/482/218 192/485/218 461/484/218 262/483/218
f 262/483/219 461/484/219 299/487/219 81/486/219
f 461/484/220 263/476/220 82/479/220 299/487/220
f 192/485/221 31/475/221 263/476/221 461/484/221
f 27/488/222 189/491/222 462/490/222 261/489/222
f 261/489/223 462/490/223 300/493/223 80/492/223
f 462/490/224 262/483/224 81/486/224 300/493/224
f 189/491/225 29/482/225 262/483/225 462/490/225
f 25/494/226 186/497/226 463/496/226 260/495/226
f 260/495/227 463/496/227 301/499/227 79/498/227
f 463/496/228 261/489/228 80/492/228 301/499/228
f 186/497/229 27/488/229 261/489/229 463/496/229
f 23/500/213 183/503/213 464/502/213 259/501/213
f 259/501/230 464/502/230 302/505/230 78/504/230
f 464/502/231 260/495/231 79/498/231 302/505/231
f 183/503/232 25/494/232 260/495/232 464/502/232
f 21/506/233 180/509/233 465/508/233 258/507/233
f 258/507/234 465/508/234 303/511/234 77/510/234
f 465/508/235 259/501/235 78/504/235 303/511/235
f 180/509/236 23/500/236 259/501/236 465/508/236
f 19/512/237 177/515/237 466/514/237 257/513/237
f 257/513/238 466/514/238 304/517/238 76/516/238
f 466/514/239 258/507/239 77/510/239 304/517/239
f 177/515/240 21/506/240 258/507/240 466/514/240
f 17/518/241 174/521/241 467/520/241 256/519/241
f 256/519/242 467/520/242 305/523/242 75/522/242
f 467/520/243 257/513/243 76/516/243 305/523/243
f 174/521/244 19/512/244 257/513/244 467/520/244
f 15/524/245 171/527/245 468/526/245 255/525/245
f 255/525/246 468/526/246 306/529/246 74/528/246
f 468/526/247 256/519/247 75/522/247 306/529/247
f 171/527/248 17/518/248 256/519/248 468/526/248
f 13/530/249 168/533/249 469/532/249 254/531/249
f 254/531/250 469/532/250 307/535/250 73/534/250
f 469/532/251 255/525/251 74/528/251 307/535/251
f 168/533/252 15/524/252 255/525/252 469/532/252
f 11/536/253 165/539/253 470/538/253 253/537/253
f 253/537/254 470/538/254 308/541/254 72/540/254
f 470/538/255 254/531/255 73/534/255 308/541/255
f 165/539/256 13/530/256 254/531/256 470/538/256
f 9/542/257 162/545/257 471/544/257 252/543/257
f 252/543/258 471/544/258 309/547/258 71/546/258
f 471/544/259 253/537/259 72/540/259 309/547/259
f 162/545/260 11/536/260 253/537/260 471/544/260
f 7/548/261 159/551/261 472/550/261 251/549/261
f 251/549/262 472/550/262 310/553/262 70/552/262
f 472/550/263 252/543/263 71/546/263 310/553/263
f 159/551/264 9/542/264 252/543/264 472/550/264
f 5/554/265 156/557/265 473/556/265 250/555/265
f 250/555/266 473/556/266 311/559/266 69/558/266
f 473/556/267 251/549/267 70/552/267 311/559/267
f 156/557/268 7/548/268 251/549/268 473/556/268
f 3/560/269 153/563/269 474/562/269 249/561/269
f 249/561/270 474/562/270 312/565/270 68/564/270
f 474/562/271 250/555/271 69/558/271 312/565/271
f 153/563/272 5/554/272 250/555/272 474/562/272
f 1/566/273 149/568/273 475/567/273 248/566/273
f 248/566/274 475/567/274 313/570/274 67/569/274
f 475/567/275 249/561/275 68/564/275 313/570/275
f 149/568/276 3/560/276 249/561/276 475/567/276
f 85/463/277 281/460/277 476/572/277 332/571/277
f 332/571/277 476/572/277 347/108/277 118/109/277
f 476/572/278 280/573/278 132/109/278 347/108/278
f 281/460/278 99/463/278 280/573/278 476/572/278
f 98/382/279 282/383/279 477/575/279 345/574/279
f 345/574/279 477/575/279 348/288/279 131/286/279
f 477/575/280 314/576/280 100/291/280 348/288/280
f 282/383/280 67/384/280 314/576/280 477/575/280
f 97/577/281 283/580/281 478/579/281 344/578/281
f 344/578/281 478/579/281 349/282/281 130/188/281
f 478/579/282 345/574/282 131/286/282 349/282/282
f 283/580/282 98/581/282 345/574/282 478/579/282
f 96/582/283 284/585/283 479/584/283 343/583/283
f 343/583/283 479/584/283 350/184/283 129/586/283
f 479/584/284 344/578/284 130/188/284 350/184/284
f 284/585/284 97/577/284 344/578/284 479/584/284
f 95/587/285 285/590/285 480/589/285 342/588/285
f 342/588/285 480/589/285 351/592/285 128/591/285
f 480/589/286 343/583/286 129/586/286 351/592/286
f 285/590/286 96/582/286 343/583/286 480/589/286
f 94/593/287 286/596/287 481/595/287 341/594/287
f 341/594/287 481/595/287 352/598/287 127/597/287
f 481/595/288 342/588/288 128/591/288 352/598/288
f 286/596/288 95/587/288 342/588/288 481/595/288
f 93/599/289 287/602/289 482/601/289 340/600/289
f 340/600/289 482/601/289 353/603/289 126/164/289
f 482/601/290 341/594/290 127/597/290 353/603/290
f 287/602/290 94/593/290 341/594/290 482/601/290
f 92/419/291 288/420/291 483/605/291 339/604/291
f 339/604/291 483/605/291 354/160/291 125/157/291
f 483/605/292 340/600/292 126/164/292 354/160/292
f 288/420/292 93/414/292 340/600/292 483/605/292
f 143/419/293 289/416/293 484/607/293 398/606/293
f 398/606/293 484/607/293 355/158/293 144/157/293
f 484/607/293 339/604/293 125/157/293 355/158/293
f 289/416/293 92/419/293 339/604/293 484/607/293
f 90/428/294 290/429/294 485/609/294 337/608/294
f 337/608/294 485/609/294 356/146/294 123/144/294
f 485/609/295 338/610/295 124/149/295 356/146/295
f 290/429/295 91/430/295 338/610/295 485/609/295
f 89/437/296 291/438/296 486/612/296 336/611/296
f 336/611/296 486/612/296 357/140/296 122/137/296
f 486/612/297 337/608/297 123/144/297 357/140/297
f 291/438/297 90/428/297 337/608/297 486/612/297
f 135/443/298 292/444/298 487/614/298 384/613/298
f 384/613/298 487/614/298 358/615/298 136/127/298
f 487/614/299 336/611/299 122/137/299 358/615/299
f 292/444/299 89/437/299 336/611/299 487/614/299
f 87/449/300 293/450/300 488/617/300 334/616/300
f 334/616/300 488/617/300 359/123/300 120/121/300
f 488/617/301 335/618/301 121/127/301 359/123/301
f 293/450/301 88/451/301 335/618/301 488/617/301
f 86/619/302 294/622/302 489/621/302 333/620/302
f 333/620/302 489/621/302 360/117/302 119/623/302
f 489/621/303 334/624/303 120/121/303 360/117/303
f 294/622/303 87/625/303 334/624/303 489/621/303
f 99/463/304 295/464/304 490/626/304 280/573/304
f 280/573/304 490/626/304 361/111/304 132/109/304
f 490/626/305 333/627/305 119/115/305 361/111/305
f 295/464/305 86/458/305 333/627/305 490/626/305
f 84/469/306 296/470/306 491/629/306 331/628/306
f 331/628/306 491/629/306 362/106/306 117/104/306
f 491/629/307 332/571/307 118/109/307 362/106/307
f 296/470/307 85/463/307 332/571/307 491/629/307
f 83/481/308 297/474/308 492/631/308 330/630/308
f 330/630/308 492/631/308 363/100/308 116/98/308
f 492/631/309 331/628/309 117/104/309 363/100/309
f 297/474/309 84/469/309 331/628/309 492/631/309
f 82/479/310 298/480/310 493/633/310 329/632/310
f 329/632/310 493/633/310 364/94/310 115/92/310
f 493/633/311 330/630/311 116/98/311 364/94/311
f 298/480/311 83/481/311 330/630/311 493/633/311
f 81/634/312 299/637/312 494/636/312 328/635/312
f 328/635/312 494/636/312 365/88/312 114/86/312
f 494/636/313 329/632/313 115/92/313 365/88/313
f 299/637/313 82/638/313 329/632/313 494/636/313
f 80/639/314 300/642/314 495/641/314 327/640/314
f 327/640/314 495/641/314 366/644/314 113/643/314
f 495/641/315 328/635/315 114/86/315 366/644/315
f 300/642/315 81/634/315 328/635/315 495/641/315
f 79/645/316 301/648/316 496/647/316 326/646/316
f 326/646/316 496/647/316 367/76/316 112/649/316
f 496/647/317 327/640/317 113/643/317 367/76/317
f 301/648/317 80/639/317 327/640/317 496/647/317
f 78/650/318 302/653/318 497/652/318 325/651/318
f 325/651/318 497/652/318 368/654/318 111/68/318
f 497/652/319 326/646/319 112/649/319 368/654/319
f 302/653/319 79/645/319 326/646/319 497/652/319
f 77/655/320 303/658/320 498/657/320 324/656/320
f 324/656/320 498/657/320 369/64/320 110/659/320
f 498/657/321 325/651/321 111/68/321 369/64/321
f 303/658/321 78/650/321 325/651/321 498/657/321
f 76/660/322 304/663/322 499/662/322 323/661/322
f 323/661/322 499/662/322 370/665/322 109/664/322
f 499/662/323 324/656/323 110/659/323 370/665/323
f 304/663/323 77/655/323 324/656/323 499/662/323
f 75/666/324 305/669/324 500/668/324 322/667/324
f 322/667/324 500/668/324 371/52/324 108/670/324
f 500/668/325 323/661/325 109/664/325 371/52/325
f 305/669/325 76/660/325 323/661/325 500/668/325
f 74/671/326 306/674/326 501/673/326 321/672/326
f 321/672/326 501/673/326 372/675/326 107/44/326
f 501/673/327 322/667/327 108/670/327 372/675/327
f 306/674/327 75/666/327 322/667/327 501/673/327
f 73/676/328 307/679/328 502/678/328 320/677/328
f 320/677/328 502/678/328 373/680/328 106/38/328
f 502/678/329 321/672/329 107/44/329 373/680/329
f 307/679/329 74/671/329 321/672/329 502/678/329
f 72/681/330 308/684/330 503/683/330 319/682/330
f 319/682/330 503/683/330 374/34/330 105/685/330
f 503/683/331 320/677/331 106/38/331 374/34/331
f 308/684/331 73/676/331 320/677/331 503/683/331
f 71/686/332 309/689/332 504/688/332 318/687/332
f 318/687/332 504/688/332 375/690/332 104/26/332
f 504/688/333 319/682/333 105/685/333 375/690/333
f 309/689/333 72/681/333 319/682/333 504/688/333
f 70/691/334 310/694/334 505/693/334 317/692/334
f 317/692/334 505/693/334 376/22/334 103/695/334
f 505/693/335 318/687/335 104/26/335 376/22/335
f 310/694/335 71/686/335 318/687/335 505/693/335
f 69/696/336 311/699/336 506/698/336 316/697/336
f 316/697/336 506/698/336 377/16/336 102/14/336
f 506/698/337 317/692/337 103/695/337 377/16/337
f 311/699/337 70/691/337 317/692/337 506/698/337
f 68/700/338 312/703/338 507/702/338 315/701/338
f 315/701/338 507/702/338 378/10/338 101/704/338
f 507/702/339 316/697/339 102/14/339 378/10/339
f 312/703/339 69/696/339 316/697/339 507/702/339
f 67/569/340 313/570/340 508/706/340 314/705/340
f 314/705/340 508/706/340 379/4/340 100/1/340
f 508/706/341 315/707/341 101/8/341 379/4/341
f 313/570/341 68/564/341 315/707/341 508/706/341
f 88/451/342 382/709/342 509/708/342 335/618/342
f 335/618/342 509/708/342 383/710/342 121/127/342
f 509/708/343 384/613/343 136/127/343 383/710/343
f 382/709/343 135/443/343 384/613/343 509/708/343
f 43/453/344 380/712/344 510/711/344 269/452/344
f 269/452/345 510/711/345 382/709/345 88/451/345
f 510/711/346 385/440/346 135/443/346 382/709/346
f 380/712/347 133/439/347 385/440/347 510/711/347
f 121/713/348 383/714/348 511/715/348 212/714/348
f 212/714/349 511/715/349 381/222/349 44/128/349
f 511/715/350 386/129/350 134/132/350 381/222/350
f 383/714/351 136/128/351 386/129/351 511/715/351
f 147/716/352 389/719/352 512/718/352 407/717/352
f 407/717/352 512/718/352 390/720/352 148/149/352
f 512/718/352 391/721/352 140/157/352 390/720/352
f 389/719/352 139/419/352 391/721/352 512/718/352
f 145/432/353 387/724/353 513/723/353 406/722/353
f 406/722/354 513/723/354 389/719/354 147/716/354
f 513/723/355 392/416/355 139/419/355 389/719/355
f 387/724/356 137/416/356 392/416/356 513/723/356
f 148/213/357 390/727/357 514/726/357 405/725/357
f 405/725/358 514/726/358 388/212/358 146/210/358
f 514/726/359 393/728/359 138/207/359 388/212/359
f 390/727/360 140/150/360 393/728/360 514/726/360
f 139/419/352 396/416/352 515/729/352 391/721/352
f 391/721/352 515/729/352 397/158/352 140/157/352
f 515/729/352 398/606/352 144/157/352 397/158/352
f 396/416/352 143/419/352 398/606/352 515/729/352
f 137/360/361 394/360/361 516/423/361 392/360/361
f 392/360/362 516/423/362 396/360/362 139/360/362
f 516/423/363 399/422/363 143/421/363 396/360/363
f 394/360/364 141/421/364 399/422/364 516/423/364
f 140/150/365 397/153/365 517/730/365 393/728/365
f 393/728/366 517/730/366 395/209/366 138/207/366
f 517/730/367 400/151/367 142/154/367 395/209/367
f 397/153/368 144/150/368 400/151/368 517/730/368
f 124/731/369 404/731/369 518/732/369 221/731/369
f 221/731/370 518/732/370 402/215/370 50/213/370
f 518/732/371 405/725/371 146/210/371 402/215/371
f 404/731/372 148/213/372 405/725/372 518/732/372
f 49/432/373 401/734/373 519/733/373 272/431/373
f 272/431/374 519/733/374 403/735/374 91/430/374
f 519/733/375 406/722/375 147/716/375 403/735/375
f 401/734/376 145/432/376 406/722/376 519/733/376
f 91/430/377 403/735/377 520/736/377 338/610/377
f 338/610/377 520/736/377 404/148/377 124/149/377
f 520/736/378 407/717/378 148/149/378 404/148/378
f 403/735/378 147/716/378 407/717/378 520/736/378
