# Blender 4.5.3 LTS
# www.blender.org
mtllib gia3.mtl
o 円柱.002
v 0.000398 0.484169 -0.311137
v 0.000398 0.505200 -0.311137
v 0.058708 0.484169 -0.305394
v 0.058708 0.505200 -0.305394
v 0.114778 0.484169 -0.288386
v 0.114778 0.505200 -0.288386
v 0.166451 0.484169 -0.260766
v 0.166451 0.505200 -0.260766
v 0.211744 0.484169 -0.223595
v 0.211744 0.505200 -0.223595
v 0.248915 0.484169 -0.178303
v 0.248915 0.505200 -0.178303
v 0.276535 0.484169 -0.126629
v 0.276535 0.505200 -0.126629
v 0.293543 0.484169 -0.070559
v 0.293543 0.505200 -0.070559
v 0.299286 0.484169 -0.012249
v 0.299286 0.505200 -0.012249
v 0.293543 0.484169 0.046061
v 0.293543 0.505200 0.046061
v 0.276535 0.484169 0.102131
v 0.276535 0.505200 0.102131
v 0.248915 0.484169 0.153804
v 0.248915 0.505200 0.153804
v 0.211744 0.484169 0.199097
v 0.211744 0.505200 0.199097
v 0.166451 0.484169 0.236268
v 0.166451 0.505200 0.236268
v 0.114778 0.484169 0.263888
v 0.114778 0.505200 0.263888
v 0.058708 0.484169 0.280896
v 0.058708 0.505200 0.280896
v 0.000398 0.484169 0.286639
v 0.000398 0.505200 0.286639
v -0.057912 0.484169 0.280896
v -0.057912 0.505200 0.280896
v -0.113982 0.484169 0.263888
v -0.113982 0.505200 0.263888
v -0.165656 0.484169 0.236268
v -0.165656 0.505200 0.236268
v -0.210948 0.484169 0.199097
v -0.210948 0.505200 0.199097
v -0.248119 0.484169 0.153804
v -0.248119 0.505200 0.153804
v -0.275739 0.484169 0.102131
v -0.275739 0.505200 0.102131
v -0.292747 0.484169 0.046061
v -0.292747 0.505200 0.046061
v -0.298490 0.484169 -0.012249
v -0.298490 0.505200 -0.012249
v -0.292747 0.484169 -0.070559
v -0.292747 0.505200 -0.070559
v -0.275739 0.484169 -0.126629
v -0.275739 0.505200 -0.126629
v -0.248119 0.484169 -0.178303
v -0.248119 0.505200 -0.178303
v -0.210948 0.484169 -0.223595
v -0.210948 0.505200 -0.223595
v -0.165656 0.484169 -0.260766
v -0.165656 0.505200 -0.260766
v -0.113982 0.484169 -0.288386
v -0.113982 0.505200 -0.288386
v -0.057912 0.484169 -0.305394
v -0.057912 0.505200 -0.305394
v -0.002275 0.484169 -0.338271
v -0.002275 0.505200 -0.338271
v 0.066623 0.505200 -0.331485
v 0.066623 0.484169 -0.331485
v 0.122692 0.484169 -0.314477
v 0.122692 0.505200 -0.314477
v 0.183748 0.505200 -0.281842
v 0.183748 0.484169 -0.281842
v 0.229041 0.484169 -0.244671
v 0.229041 0.505200 -0.244671
v 0.272960 0.505200 -0.191155
v 0.272960 0.484169 -0.191155
v 0.300580 0.484169 -0.139481
v 0.300580 0.505200 -0.139481
v 0.320677 0.505200 -0.073232
v 0.320677 0.484169 -0.073232
v 0.326420 0.484169 -0.014922
v 0.326420 0.505200 -0.014922
v 0.319634 0.505200 0.053976
v 0.319634 0.484169 0.053976
v 0.302626 0.484169 0.110045
v 0.302626 0.505200 0.110045
v 0.269991 0.505200 0.171101
v 0.269991 0.484169 0.171101
v 0.232820 0.484169 0.216394
v 0.232820 0.505200 0.216394
v 0.179304 0.505200 0.260313
v 0.179304 0.484169 0.260313
v 0.127630 0.484169 0.287933
v 0.127630 0.505200 0.287933
v 0.061381 0.505200 0.308030
v 0.061381 0.484169 0.308030
v 0.003070 0.484169 0.313773
v 0.003070 0.505200 0.313773
v -0.065827 0.505200 0.306987
v -0.065827 0.484169 0.306987
v -0.121896 0.484169 0.289979
v -0.121896 0.505200 0.289979
v -0.182952 0.505200 0.257344
v -0.182952 0.484169 0.257344
v -0.228245 0.484169 0.220173
v -0.228245 0.505200 0.220173
v -0.272164 0.505200 0.166657
v -0.272164 0.484169 0.166657
v -0.299784 0.484169 0.114983
v -0.299784 0.505200 0.114983
v -0.319881 0.505200 0.048734
v -0.319881 0.484169 0.048734
v -0.325624 0.484169 -0.009577
v -0.325624 0.505200 -0.009577
v -0.318838 0.505200 -0.078474
v -0.318838 0.484169 -0.078474
v -0.301830 0.484169 -0.134543
v -0.301830 0.505200 -0.134543
v -0.269195 0.505200 -0.195599
v -0.269195 0.484169 -0.195599
v -0.232024 0.484169 -0.240892
v -0.232024 0.505200 -0.240892
v -0.178508 0.505200 -0.284811
v -0.178508 0.484169 -0.284811
v -0.126834 0.484169 -0.312431
v -0.126834 0.505200 -0.312431
v -0.060585 0.505200 -0.332528
v -0.060585 0.484169 -0.332528
v -0.027677 0.505200 -0.002023
v -0.027147 0.505200 0.003360
v -0.027147 0.505200 -0.007405
v -0.023027 0.505200 -0.017352
v -0.023027 0.505200 0.013307
v -0.025576 0.505200 -0.012581
v -0.025576 0.505200 0.008536
v -0.015414 0.505200 0.020919
v -0.015414 0.505200 -0.024964
v -0.005468 0.505200 -0.029084
v 0.005298 0.505200 -0.029084
v -0.000085 0.505200 -0.029614
v -0.010644 0.505200 -0.027514
v -0.019595 0.505200 0.017488
v -0.019595 0.505200 -0.021533
v -0.010644 0.505200 0.023469
v -0.000085 0.505200 0.025569
v 0.005298 0.505200 0.025039
v -0.005468 0.505200 0.025039
v 0.015244 0.505200 0.020919
v 0.010474 0.505200 0.023469
v 0.010474 0.505200 -0.027514
v 0.019426 0.505200 -0.021533
v 0.022857 0.505200 0.013307
v 0.022857 0.505200 -0.017352
v 0.027507 0.505200 -0.002023
v 0.026977 0.505200 0.003360
v 0.026977 0.505200 -0.007405
v 0.025407 0.505200 -0.012581
v 0.019426 0.505200 0.017488
v 0.025407 0.505200 0.008536
v 0.015244 0.505200 -0.024964
v -0.000085 0.484169 -0.029614
v 0.005298 0.484169 -0.029084
v 0.015244 0.484169 0.020919
v 0.015244 0.484169 -0.024964
v 0.010474 0.484169 0.023469
v 0.010474 0.484169 -0.027514
v 0.022857 0.484169 0.013307
v 0.022857 0.484169 -0.017352
v 0.027507 0.484169 -0.002023
v 0.026977 0.484169 0.003360
v 0.026977 0.484169 -0.007405
v 0.025407 0.484169 0.008536
v 0.025407 0.484169 -0.012581
v 0.019426 0.484169 -0.021533
v 0.019426 0.484169 0.017488
v -0.027677 0.484169 -0.002023
v -0.027147 0.484169 -0.007405
v -0.027147 0.484169 0.003360
v -0.023027 0.484169 0.013307
v -0.023027 0.484169 -0.017352
v -0.019595 0.484169 0.017488
v -0.025576 0.484169 0.008536
v -0.025576 0.484169 -0.012581
v -0.019595 0.484169 -0.021533
v -0.015414 0.484169 0.020919
v -0.010644 0.484169 -0.027514
v -0.010644 0.484169 0.023469
v -0.015414 0.484169 -0.024964
v 0.005298 0.484169 0.025039
v -0.005468 0.484169 0.025039
v -0.000085 0.484169 0.025569
v -0.005468 0.484169 -0.029084
vn 0.0980 -0.0000 -0.9952
vn 0.7730 -0.0000 0.6344
vn 0.4714 -0.0000 -0.8819
vn -0.0000 -1.0000 -0.0000
vn 0.7730 -0.0000 -0.6344
vn 0.8819 -0.0000 -0.4714
vn 0.9569 -0.0000 -0.2903
vn -0.0000 1.0000 -0.0000
vn 0.9952 -0.0000 0.0980
vn 0.4714 -0.0000 0.8819
vn 0.8819 -0.0000 0.4714
vn 0.6344 -0.0000 0.7730
vn 0.2903 -0.0000 0.9569
vn -0.6344 -0.0000 0.7730
vn -0.0980 -0.0000 0.9952
vn -0.4714 -0.0000 0.8819
vn -0.7730 -0.0000 -0.6344
vn -0.7730 -0.0000 0.6344
vn -0.9569 -0.0000 0.2903
vn -0.8819 -0.0000 0.4714
vn -0.9952 -0.0000 -0.0980
vn -0.8819 -0.0000 -0.4714
vn -0.6344 -0.0000 -0.7730
vn 0.6344 -0.0000 -0.7730
vn -0.2903 -0.0000 -0.9569
vn 0.2903 -0.0000 -0.9569
vn 0.9952 -0.0000 -0.0980
vn 0.9569 -0.0000 0.2903
vn 0.0980 -0.0000 0.9952
vn -0.2903 -0.0000 0.9569
vn -0.9952 -0.0000 0.0980
vn -0.9569 -0.0000 -0.2903
vn -0.4714 -0.0000 -0.8819
vn -0.0980 -0.0000 -0.9952
vt 1.000000 0.500000
vt 0.968750 0.500000
vt 0.968750 1.000000
vt 1.000000 1.000000
vt 0.875000 1.000000
vt 0.875000 0.500000
vt 0.937500 0.500000
vt 0.906250 0.500000
vt 0.906250 1.000000
vt 0.937500 1.000000
vt 0.528269 0.158156
vt 0.550447 0.116663
vt 0.843750 0.500000
vt 0.843750 1.000000
vt 0.062500 1.000000
vt 0.062500 0.500000
vt 0.812500 0.500000
vt 0.781250 0.500000
vt 0.781250 1.000000
vt 0.812500 1.000000
vt 0.383337 0.449553
vt 0.419706 0.419706
vt 0.750000 0.500000
vt 0.718750 0.500000
vt 0.718750 1.000000
vt 0.750000 1.000000
vt 0.343750 0.500000
vt 0.343750 1.000000
vt 0.687500 0.500000
vt 0.656250 0.500000
vt 0.656250 1.000000
vt 0.687500 1.000000
vt 0.116663 0.449553
vt 0.158156 0.471731
vt 0.625000 0.500000
vt 0.593750 0.500000
vt 0.593750 1.000000
vt 0.625000 1.000000
vt 0.919706 0.419706
vt 0.883337 0.449553
vt 0.562500 0.500000
vt 0.531250 0.500000
vt 0.531250 1.000000
vt 0.562500 1.000000
vt 0.500000 0.500000
vt 0.468750 0.500000
vt 0.468750 1.000000
vt 0.500000 1.000000
vt 0.658156 0.471731
vt 0.616663 0.449553
vt 0.437500 0.500000
vt 0.406250 0.500000
vt 0.406250 1.000000
vt 0.437500 1.000000
vt 0.375000 0.500000
vt 0.375000 1.000000
vt 0.449553 0.116663
vt 0.419706 0.080294
vt 0.312500 0.500000
vt 0.281250 0.500000
vt 0.281250 1.000000
vt 0.312500 1.000000
vt 0.093750 0.500000
vt 0.093750 1.000000
vt 0.250000 0.500000
vt 0.218750 0.500000
vt 0.218750 1.000000
vt 0.250000 1.000000
vt 0.919706 0.080294
vt 0.949553 0.116663
vt 0.187500 0.500000
vt 0.156250 0.500000
vt 0.156250 1.000000
vt 0.187500 1.000000
vt 0.125000 0.500000
vt 0.125000 1.000000
vt 0.250000 0.490000
vt 0.296822 0.485388
vt 0.341844 0.471731
vt 0.449553 0.383337
vt 0.471731 0.341844
vt 0.485388 0.296822
vt 0.490000 0.250000
vt 0.485388 0.203178
vt 0.471731 0.158156
vt 0.270081 0.233310
vt 0.271342 0.237466
vt 0.271768 0.241788
vt 0.271342 0.246111
vt 0.270081 0.250267
vt 0.268034 0.254097
vt 0.265279 0.257455
vt 0.261921 0.260210
vt 0.258091 0.262257
vt 0.253935 0.263518
vt 0.249612 0.263944
vt 0.245290 0.263518
vt 0.241134 0.262257
vt 0.237303 0.260210
vt 0.233946 0.257455
vt 0.231191 0.254097
vt 0.229143 0.250267
vt 0.227883 0.246111
vt 0.227457 0.241788
vt 0.227883 0.237466
vt 0.229143 0.233310
vt 0.231191 0.229479
vt 0.233946 0.226122
vt 0.237303 0.223367
vt 0.241134 0.221319
vt 0.158156 0.028269
vt 0.116663 0.050447
vt 0.080294 0.080294
vt 0.050447 0.116663
vt 0.028269 0.158156
vt 0.014612 0.203178
vt 0.010000 0.250000
vt 0.014612 0.296822
vt 0.028269 0.341844
vt 0.050447 0.383337
vt 0.080294 0.419706
vt 0.203178 0.485388
vt 0.383337 0.050447
vt 0.341844 0.028269
vt 0.296822 0.014612
vt 0.250000 0.010000
vt 0.203178 0.014612
vt 0.245290 0.220058
vt 0.249612 0.219633
vt 0.253935 0.220058
vt 0.258091 0.221319
vt 0.261921 0.223367
vt 0.265279 0.226122
vt 0.268034 0.229479
vt 0.031250 0.500000
vt 0.031250 1.000000
vt 0.841844 0.471731
vt 0.796822 0.485388
vt 0.750000 0.490000
vt 0.703178 0.485388
vt 0.580294 0.419706
vt 0.550447 0.383337
vt 0.528269 0.341844
vt 0.514612 0.296822
vt 0.510000 0.250000
vt 0.514612 0.203178
vt 0.727883 0.237466
vt 0.727457 0.241788
vt 0.727883 0.246111
vt 0.729143 0.250267
vt 0.731191 0.254097
vt 0.733946 0.257455
vt 0.737303 0.260210
vt 0.741134 0.262257
vt 0.745290 0.263518
vt 0.749612 0.263944
vt 0.753935 0.263518
vt 0.758091 0.262257
vt 0.761921 0.260210
vt 0.765279 0.257455
vt 0.768034 0.254097
vt 0.770081 0.250267
vt 0.771342 0.246111
vt 0.771768 0.241788
vt 0.771342 0.237466
vt 0.770081 0.233310
vt 0.768034 0.229479
vt 0.765279 0.226122
vt 0.761921 0.223367
vt 0.758091 0.221319
vt 0.753935 0.220058
vt 0.796822 0.014612
vt 0.841844 0.028269
vt 0.883337 0.050447
vt 0.971731 0.158156
vt 0.985388 0.203178
vt 0.990000 0.250000
vt 0.985388 0.296822
vt 0.971731 0.341844
vt 0.949553 0.383337
vt 0.749612 0.219633
vt 0.745290 0.220058
vt 0.741134 0.221319
vt 0.737303 0.223367
vt 0.733946 0.226122
vt 0.731191 0.229479
vt 0.729143 0.233310
vt 0.580294 0.080294
vt 0.616663 0.050447
vt 0.658156 0.028269
vt 0.703178 0.014612
vt 0.750000 0.010000
vt 0.000000 0.500000
vt 0.000000 1.000000
vt 1.000000 0.811187
vt 1.000000 0.885020
vt 0.968750 0.811187
vt 0.968750 0.885020
vt 0.937500 0.811187
vt 0.937500 0.885020
vt 0.906250 0.811187
vt 0.906250 0.885020
vt 0.875000 0.811187
vt 0.875000 0.885020
vt 0.843750 0.811187
vt 0.843750 0.885020
vt 0.812500 0.811187
vt 0.812500 0.885020
vt 0.781250 0.811187
vt 0.781250 0.885020
vt 0.750000 0.811187
vt 0.750000 0.885020
vt 0.718750 0.811187
vt 0.718750 0.885020
vt 0.687500 0.811187
vt 0.687500 0.885020
vt 0.656250 0.811187
vt 0.656250 0.885020
vt 0.625000 0.885020
vt 0.625000 0.811187
vt 0.593750 0.885020
vt 0.593750 0.811187
vt 0.562500 0.885020
vt 0.562500 0.811187
vt 0.531250 0.885020
vt 0.531250 0.811187
vt 0.500000 0.885020
vt 0.500000 0.811187
vt 0.468750 0.885020
vt 0.468750 0.811187
vt 0.437500 0.885020
vt 0.437500 0.811187
vt 0.406250 0.885020
vt 0.406250 0.811187
vt 0.375000 0.885020
vt 0.375000 0.811187
vt 0.343750 0.885020
vt 0.343750 0.811187
vt 0.312500 0.885020
vt 0.312500 0.811187
vt 0.281250 0.885020
vt 0.281250 0.811187
vt 0.250000 0.885020
vt 0.250000 0.811187
vt 0.218750 0.885020
vt 0.218750 0.811187
vt 0.187500 0.885020
vt 0.187500 0.811187
vt 0.156250 0.885020
vt 0.156250 0.811187
vt 0.125000 0.811187
vt 0.125000 0.885020
vt 0.093750 0.811187
vt 0.093750 0.885020
vt 0.062500 0.811187
vt 0.062500 0.885020
vt 0.031250 0.811187
vt 0.031250 0.885020
s 0
usemtl マテリアル.013
f 1/1/1 2/4/1 4/3/1 3/2/1
f 10/5/2 9/6/2 73/6/2 74/5/2
f 5/7/3 6/10/3 8/9/3 7/8/3
f 45/11/4 43/12/4 108/12/4 109/11/4
f 9/6/5 10/5/5 12/14/5 11/13/5
f 62/15/6 61/16/6 125/16/6 126/15/6
f 13/17/7 14/20/7 16/19/7 15/18/7
f 8/21/8 10/22/8 74/22/8 71/21/8
f 17/23/9 18/26/9 20/25/9 19/24/9
f 43/27/10 44/28/10 107/28/10 108/27/10
f 21/29/11 22/32/11 24/31/11 23/30/11
f 60/33/8 62/34/8 126/34/8 123/33/8
f 25/35/12 26/38/12 28/37/12 27/36/12
f 9/39/4 7/40/4 72/40/4 73/39/4
f 29/41/13 30/44/13 32/43/13 31/42/13
f 26/38/14 25/35/14 89/35/14 90/38/14
f 33/45/15 34/48/15 36/47/15 35/46/15
f 61/49/4 59/50/4 124/50/4 125/49/4
f 37/51/16 38/54/16 40/53/16 39/52/16
f 7/8/17 8/9/17 71/9/17 72/8/17
f 41/55/18 42/56/18 44/28/18 43/27/18
f 24/57/8 26/58/8 90/58/8 87/57/8
f 45/59/19 46/62/19 48/61/19 47/60/19
f 59/63/20 60/64/20 123/64/20 124/63/20
f 49/65/21 50/68/21 52/67/21 51/66/21
f 25/69/4 23/70/4 88/70/4 89/69/4
f 53/71/22 54/74/22 56/73/22 55/72/22
f 42/56/17 41/55/17 105/55/17 106/56/17
f 57/75/23 58/76/23 60/64/23 59/63/23
f 23/30/24 24/31/24 87/31/24 88/30/24
f 2/77/8 64/122/8 62/34/8 60/33/8 58/121/8 56/120/8 54/119/8 52/118/8 50/117/8 48/116/8 46/115/8 44/114/8 42/113/8 40/112/8 38/111/8 144/110/8 136/109/8 142/108/8 133/107/8 135/106/8 130/105/8 129/104/8 131/103/8 134/102/8 132/101/8 143/100/8 137/99/8 141/98/8 138/97/8 140/96/8 139/95/8 150/94/8 160/93/8 151/92/8 153/91/8 157/90/8 156/89/8 154/88/8 155/87/8 159/86/8 22/85/8 20/84/8 18/83/8 16/82/8 14/81/8 12/80/8 10/22/8 8/21/8 6/79/8 4/78/8
f 159/86/8 152/134/8 158/133/8 148/132/8 149/131/8 146/130/8 145/129/8 147/128/8 144/110/8 38/111/8 36/127/8 34/126/8 32/125/8 30/124/8 28/123/8 26/58/8 24/57/8 22/85/8
f 61/16/25 62/15/25 64/136/25 63/135/25
f 40/112/8 42/113/8 106/113/8 103/112/8
f 7/40/4 9/39/4 11/180/4 13/179/4 15/178/4 17/177/4 19/176/4 21/175/4 23/70/4 25/69/4 27/174/4 29/173/4 31/172/4 189/171/4 165/170/4 163/169/4 175/168/4 167/167/4 172/166/4 170/165/4 169/164/4 171/163/4 173/162/4 168/161/4 174/160/4 164/159/4 166/158/4 162/157/4 161/156/4 192/155/4 186/154/4 188/153/4 184/152/4 180/151/4 183/150/4 177/149/4 176/148/4 178/147/4 47/146/4 49/145/4 51/144/4 53/143/4 55/142/4 57/141/4 59/50/4 61/49/4 63/140/4 1/139/4 3/138/4 5/137/4
f 31/172/4 33/192/4 35/191/4 37/190/4 39/189/4 41/188/4 43/12/4 45/11/4 47/146/4 178/147/4 182/187/4 179/186/4 181/185/4 185/184/4 187/183/4 190/182/4 191/181/4 189/171/4
f 68/2/26 67/3/26 70/10/26 69/7/26
f 72/8/24 71/9/24 74/5/24 73/6/24
f 76/13/6 75/14/6 78/20/6 77/17/6
f 80/18/27 79/19/27 82/26/27 81/23/27
f 84/24/28 83/25/28 86/32/28 85/29/28
f 88/30/2 87/31/2 90/38/2 89/35/2
f 92/36/10 91/37/10 94/44/10 93/41/10
f 96/42/29 95/43/29 98/48/29 97/45/29
f 100/46/30 99/47/30 102/54/30 101/51/30
f 104/52/14 103/53/14 106/56/14 105/55/14
f 108/27/20 107/28/20 110/62/20 109/59/20
f 112/60/31 111/61/31 114/68/31 113/65/31
f 116/66/32 115/67/32 118/74/32 117/71/32
f 120/72/17 119/73/17 122/76/17 121/75/17
f 124/63/33 123/64/33 126/15/33 125/16/33
f 128/135/34 127/136/34 66/194/34 65/193/34
f 44/114/8 46/115/8 110/115/8 107/114/8
f 27/36/6 28/37/6 91/37/6 92/36/6
f 46/62/33 45/59/33 109/59/33 110/62/33
f 29/173/4 27/174/4 92/174/4 93/173/4
f 63/135/31 64/136/31 127/136/31 128/135/31
f 28/123/8 30/124/8 94/124/8 91/123/8
f 11/13/33 12/14/33 75/14/33 76/13/33
f 1/139/4 63/140/4 128/140/4 65/139/4
f 30/44/20 29/41/20 93/41/20 94/44/20
f 13/179/4 11/180/4 76/180/4 77/179/4
f 64/122/8 2/77/8 66/77/8 127/122/8
f 47/60/29 48/61/29 111/61/29 112/60/29
f 12/80/8 14/81/8 78/81/8 75/80/8
f 49/145/4 47/146/4 112/146/4 113/145/4
f 14/20/10 13/17/10 77/17/10 78/20/10
f 48/116/8 50/117/8 114/117/8 111/116/8
f 31/42/27 32/43/27 95/43/27 96/42/27
f 50/68/34 49/65/34 113/65/34 114/68/34
f 33/192/4 31/172/4 96/172/4 97/192/4
f 32/125/8 34/126/8 98/126/8 95/125/8
f 15/18/34 16/19/34 79/19/34 80/18/34
f 34/48/31 33/45/31 97/45/31 98/48/31
f 17/177/4 15/178/4 80/178/4 81/177/4
f 51/66/30 52/67/30 115/67/30 116/66/30
f 16/82/8 18/83/8 82/83/8 79/82/8
f 53/143/4 51/144/4 116/144/4 117/143/4
f 18/26/29 17/23/29 81/23/29 82/26/29
f 52/118/8 54/119/8 118/119/8 115/118/8
f 35/46/28 36/47/28 99/47/28 100/46/28
f 54/74/26 53/71/26 117/71/26 118/74/26
f 37/190/4 35/191/4 100/191/4 101/190/4
f 36/127/8 38/111/8 102/111/8 99/127/8
f 19/24/26 20/25/26 83/25/26 84/24/26
f 38/54/32 37/51/32 101/51/32 102/54/32
f 21/175/4 19/176/4 84/176/4 85/175/4
f 2/4/27 1/1/27 65/1/27 66/4/27
f 55/72/14 56/73/14 119/73/14 120/72/14
f 20/84/8 22/85/8 86/85/8 83/84/8
f 3/2/32 4/3/32 67/3/32 68/2/32
f 57/141/4 55/142/4 120/142/4 121/141/4
f 22/32/30 21/29/30 85/29/30 86/32/30
f 5/137/4 3/138/4 68/138/4 69/137/4
f 56/120/8 58/121/8 122/121/8 119/120/8
f 39/52/2 40/53/2 103/53/2 104/52/2
f 4/78/8 6/79/8 70/79/8 67/78/8
f 58/76/24 57/75/24 121/75/24 122/76/24
f 41/188/4 39/189/4 104/189/4 105/188/4
f 6/10/28 5/7/28 69/7/28 70/10/28
f 176/195/9 177/195/9 131/196/9 129/196/9
f 177/197/28 183/197/28 134/198/28 131/198/28
f 183/199/11 180/199/11 132/200/11 134/200/11
f 180/201/2 184/201/2 143/202/2 132/202/2
f 184/203/12 188/203/12 137/204/12 143/204/12
f 188/205/10 186/205/10 141/206/10 137/206/10
f 186/207/13 192/207/13 138/208/13 141/208/13
f 192/209/29 161/209/29 140/210/29 138/210/29
f 161/211/15 162/211/15 139/212/15 140/212/15
f 162/213/30 166/213/30 150/214/30 139/214/30
f 166/215/16 164/215/16 160/216/16 150/216/16
f 164/217/14 174/217/14 151/218/14 160/218/14
f 151/219/18 174/220/18 168/220/18 153/219/18
f 153/221/20 168/222/20 173/222/20 157/221/20
f 157/223/19 173/224/19 171/224/19 156/223/19
f 156/225/31 171/226/31 169/226/31 154/225/31
f 154/227/21 169/228/21 170/228/21 155/227/21
f 155/229/32 170/230/32 172/230/32 159/229/32
f 159/231/22 172/232/22 167/232/22 152/231/22
f 152/233/17 167/234/17 175/234/17 158/233/17
f 158/235/23 175/236/23 163/236/23 148/235/23
f 148/237/33 163/238/33 165/238/33 149/237/33
f 149/239/25 165/240/25 189/240/25 146/239/25
f 146/241/34 189/242/34 191/242/34 145/241/34
f 145/243/1 191/244/1 190/244/1 147/243/1
f 147/245/26 190/246/26 187/246/26 144/245/26
f 144/247/3 187/248/3 185/248/3 136/247/3
f 136/249/24 185/250/24 181/250/24 142/249/24
f 181/251/5 179/251/5 133/252/5 142/252/5
f 179/253/6 182/253/6 135/254/6 133/254/6
f 182/255/7 178/255/7 130/256/7 135/256/7
f 178/257/27 176/257/27 129/258/27 130/258/27
