# Blender 4.5.4 LTS
# www.blender.org
mtllib hari3.mtl
o 立方体
v -0.615981 0.011344 0.026639
v -0.615981 -0.011344 0.026639
v -0.615981 0.011344 -0.028625
v -0.615981 -0.011344 -0.028625
v 1.233770 0.011344 0.026639
v 1.233770 -0.011344 0.026639
v 1.233770 0.011344 -0.028625
v 1.233770 -0.011344 -0.028625
v -0.821508 0.007562 0.035850
v -0.821508 0.007562 -0.037835
v 1.233770 0.007562 -0.037835
v 1.233770 0.007562 0.035850
v -0.821508 -0.007562 0.035850
v -0.821509 -0.007562 -0.037835
v 1.233770 -0.007562 -0.037835
v 1.233770 -0.007562 0.035850
v 0.822714 0.011344 -0.037835
v 0.822714 -0.011344 -0.037835
v 0.822714 0.011344 0.035850
v 0.822714 -0.011344 0.035850
v 0.822714 0.007562 0.054272
v 0.822714 0.007562 -0.056257
v 0.822714 -0.007562 0.054272
v 0.822714 -0.007562 -0.056257
v -0.751096 0.011344 -0.000993
v -0.786302 -0.010871 0.034272
v -0.751096 -0.011344 -0.000993
v -0.786302 0.010871 -0.036258
v 0.027245 0.011344 -0.036258
v 1.182388 -0.011344 -0.036258
v 1.233770 0.010871 -0.036258
v 1.233770 0.011344 -0.000993
v 1.233770 -0.011344 -0.000993
v 1.233770 0.010871 0.034272
v 1.182388 0.011344 0.034272
v 0.027245 -0.011344 0.034272
v -0.786302 0.010871 0.034272
v -0.821509 0.000000 -0.037835
v 1.233770 -0.000000 -0.037835
v 1.233770 -0.000000 0.035850
v 0.000603 0.007562 0.051969
v 1.233770 0.007562 -0.000993
v 1.182388 0.007562 -0.053954
v -1.129800 0.007562 -0.000993
v -0.821509 0.000000 0.035850
v -0.786302 -0.010871 -0.036258
v 1.233770 -0.010871 -0.036258
v 1.233770 -0.010871 0.034272
v 0.000603 -0.007562 0.051969
v 1.233770 -0.007562 -0.000993
v 1.182388 -0.007562 -0.053954
v -1.129800 -0.007562 -0.000993
v 1.182388 0.011344 -0.036258
v 0.027245 -0.011344 -0.036258
v 0.027245 0.011344 0.034272
v 1.182388 -0.011344 0.034272
v 1.182388 0.007562 0.051969
v 0.000603 0.007562 -0.053954
v 1.182388 -0.007562 0.051969
v 0.000603 -0.007562 -0.053954
v 0.822714 0.000000 -0.056257
v 0.822714 0.000000 0.054272
v 0.822714 0.010871 -0.053954
v 0.822714 0.010871 0.051969
v 0.822714 -0.011344 -0.000993
v 0.822714 0.011344 -0.000993
v 0.822714 -0.010871 0.051969
v 0.822714 -0.010871 -0.053954
v -1.082224 -0.010871 -0.000993
v 1.182388 -0.010871 -0.051737
v 1.233770 -0.010871 -0.000993
v 0.007263 -0.010871 0.049751
v 1.182388 0.011344 -0.000993
v 0.013924 -0.011344 -0.000993
v 0.007263 0.010871 0.049751
v 1.233770 0.010871 -0.000993
v 1.182388 0.010871 -0.051737
v -1.082224 0.010871 -0.000993
v 0.000603 -0.000000 0.051969
v 1.233770 0.000000 -0.000993
v 1.182388 -0.000000 -0.053954
v -1.129800 0.000000 -0.000993
v 0.000603 0.000000 -0.053954
v 1.182388 0.000000 0.051969
v 0.007263 0.010871 -0.051737
v 1.182388 0.010871 0.049751
v 1.182388 -0.011344 -0.000993
v 0.013924 0.011344 -0.000993
v 1.182388 -0.010871 0.049751
v 0.007263 -0.010871 -0.051737
vn -0.0596 -0.8644 0.4992
vn -0.0017 -0.9999 0.0117
vn -0.0017 -0.9999 -0.0117
vn -0.0596 -0.8644 -0.4992
vn 0.0052 -0.5640 -0.8257
vn 0.0002 -0.9996 -0.0299
vn 0.0092 -0.9991 -0.0409
vn 0.2577 -0.4807 -0.8382
vn 1.0000 -0.0000 -0.0000
vn 1.0000 0.0001 -0.0000
vn -0.0023 -0.5656 0.8247
vn -0.0001 -0.9996 0.0299
vn -0.0006 -0.9993 0.0361
vn -0.0160 -0.5719 0.8202
vn -0.0000 1.0000 -0.0000
vn -0.0000 -1.0000 -0.0000
vn -0.0001 0.9996 0.0299
vn -0.0023 0.5656 0.8247
vn -0.0160 0.5719 0.8202
vn -0.0006 0.9993 0.0361
vn 1.0000 -0.0001 -0.0000
vn 0.0002 0.9996 -0.0299
vn 0.0052 0.5640 -0.8257
vn 0.2577 0.4807 -0.8382
vn 0.0092 0.9991 -0.0409
vn -0.0017 0.9999 0.0117
vn -0.0596 0.8644 0.4992
vn -0.0596 0.8644 -0.4992
vn -0.0017 0.9999 -0.0117
vn -0.0028 -0.0000 1.0000
vn -0.0196 -0.0000 0.9998
vn 0.0064 -0.0000 -1.0000
vn 0.2993 -0.0000 -0.9542
vn -0.1187 -0.0000 0.9929
vn -0.1187 -0.0000 -0.9929
vn -0.0196 -0.0000 -0.9998
vn -0.0028 -0.0000 -1.0000
vn 0.2993 -0.0000 0.9542
vn 0.0064 -0.0000 1.0000
vn -0.0006 0.9993 -0.0361
vn -0.0160 0.5719 -0.8202
vn -0.0023 0.5656 -0.8247
vn -0.0001 0.9996 -0.0299
vn 0.0092 0.9991 0.0409
vn 0.2577 0.4807 0.8382
vn 0.0052 0.5640 0.8257
vn 0.0002 0.9996 0.0299
vn 0.2577 -0.4807 0.8382
vn 0.0092 -0.9991 0.0409
vn 0.0002 -0.9996 0.0299
vn 0.0052 -0.5640 0.8257
vn -0.0160 -0.5719 -0.8202
vn -0.0006 -0.9993 -0.0361
vn -0.0001 -0.9996 -0.0299
vn -0.0023 -0.5656 -0.8247
vt 0.625000 0.000000
vt 0.625000 0.000000
vt 0.621528 0.125000
vt 0.590278 0.125000
vt 0.625000 0.125000
vt 0.625000 0.250000
vt 0.625000 0.250000
vt 0.625000 0.500000
vt 0.662327 0.505208
vt 0.625000 0.510224
vt 0.587674 0.504340
vt 0.666667 0.541667
vt 0.630208 0.545235
vt 0.625000 0.562500
vt 0.619792 0.545235
vt 0.583333 0.541667
vt 0.619792 0.625000
vt 0.583333 0.625000
vt 0.625000 0.625000
vt 0.625000 0.687500
vt 0.619792 0.704765
vt 0.583333 0.708333
vt 0.625000 0.750000
vt 0.662326 0.744792
vt 0.754340 0.745660
vt 0.750000 0.750000
vt 0.666667 0.708333
vt 0.755208 0.711806
vt 0.875000 0.750000
vt 0.875000 0.750000
vt 0.875000 0.750000
vt 0.375000 0.500000
vt 0.374132 0.540895
vt 0.371528 0.625000
vt 0.340278 0.625000
vt 0.375000 0.562500
vt 0.375000 0.625000
vt 0.375000 0.687500
vt 0.374132 0.709105
vt 0.375000 0.750000
vt 0.755208 0.538194
vt 0.755208 0.625000
vt 0.666667 0.625000
vt 0.875000 0.500000
vt 0.875000 0.625000
vt 0.755208 0.711806
vt 0.380208 0.787326
vt 0.379340 0.879340
vt 0.375000 0.875000
vt 0.416667 0.791667
vt 0.413194 0.880208
vt 0.375000 1.000000
vt 0.375000 1.000000
vt 0.375000 1.000000
vt 0.380208 0.545235
vt 0.380208 0.625000
vt 0.416667 0.541667
vt 0.416667 0.625000
vt 0.416667 0.708333
vt 0.380208 0.704765
vt 0.380208 0.462674
vt 0.380208 0.505015
vt 0.374132 0.540895
vt 0.416667 0.458333
vt 0.416667 0.500000
vt 0.375000 0.000000
vt 0.375000 0.000000
vt 0.379340 0.125000
vt 0.375000 0.125000
vt 0.375000 0.000000
vt 0.413194 0.125000
vt 0.416667 0.250000
vt 0.380208 0.250000
vt 0.375000 0.250000
vt 0.504340 0.788194
vt 0.504340 0.879340
vt 0.625000 0.875000
vt 0.625000 1.000000
vt 0.500000 1.000000
vt 0.500000 0.541667
vt 0.500000 0.625000
vt 0.416667 0.625000
vt 0.583333 0.625000
vt 0.500000 0.708333
vt 0.504340 0.461806
vt 0.500868 0.500868
vt 0.500000 0.541667
vt 0.500000 0.000000
vt 0.500868 0.125000
vt 0.504340 0.250000
vt 0.505208 0.370660
vt 0.416667 0.369792
vt 0.625000 0.375000
vt 0.500000 0.708333
vt 0.500868 0.749132
vt 0.416667 0.750000
vt 0.587674 0.745660
vt 0.380208 0.370660
vt 0.375000 0.375000
vt 0.380208 0.744985
vt 0.374132 0.709105
vt 0.630208 0.545235
vt 0.630208 0.625000
vt 0.630208 0.704765
vt 0.125000 0.500000
vt 0.250000 0.500000
vt 0.246528 0.625000
vt 0.125000 0.625000
vt 0.250000 0.750000
vt 0.125000 0.750000
vt 0.625000 0.739776
vt 0.875000 0.500000
vt 0.754340 0.504340
vt 0.750000 0.500000
vt 0.755208 0.538194
s 0
usemtl マテリアル
f 13/1/1 52/4/1 69/3/1 26/2/1
f 26/2/2 69/3/2 27/5/2 2/2/2
f 69/3/3 46/6/3 4/6/3 27/5/3
f 52/4/4 14/7/4 46/6/4 69/3/4
f 24/8/5 51/11/5 70/10/5 68/9/5
f 68/9/6 70/10/6 30/13/6 18/12/6
f 70/10/7 47/15/7 8/14/7 30/13/7
f 51/11/8 15/16/8 47/15/8 70/10/8
f 15/16/9 50/18/9 71/17/9 47/15/9
f 47/15/10 71/17/10 33/19/10 8/14/10
f 71/17/10 48/21/10 6/20/10 33/19/10
f 50/18/9 16/22/9 48/21/9 71/17/9
f 23/23/11 49/26/11 72/25/11 67/24/11
f 67/24/12 72/25/12 36/28/12 20/27/12
f 72/25/13 26/30/13 2/29/13 36/28/13
f 49/26/14 13/31/14 26/30/14 72/25/14
f 17/32/15 66/35/15 73/34/15 53/33/15
f 53/33/15 73/34/15 32/37/15 7/36/15
f 73/34/15 35/39/15 5/38/15 32/37/15
f 66/35/15 19/40/15 35/39/15 73/34/15
f 18/12/16 65/43/16 74/42/16 54/41/16
f 54/41/16 74/42/16 27/45/16 4/44/16
f 74/42/16 36/46/16 2/29/16 27/45/16
f 65/43/16 20/27/16 36/46/16 74/42/16
f 19/40/17 55/49/17 75/48/17 64/47/17
f 64/47/18 75/48/18 41/51/18 21/50/18
f 75/48/19 37/53/19 9/52/19 41/51/19
f 55/49/20 1/54/20 37/53/20 75/48/20
f 7/36/9 32/37/9 76/56/9 31/55/9
f 31/55/9 76/56/9 42/58/9 11/57/9
f 76/56/9 34/60/9 12/59/9 42/58/9
f 32/37/21 5/38/21 34/60/21 76/56/21
f 17/32/22 53/63/22 77/62/22 63/61/22
f 63/61/23 77/62/23 43/65/23 22/64/23
f 77/62/24 31/55/24 11/57/24 43/65/24
f 53/63/25 7/36/25 31/55/25 77/62/25
f 1/66/26 25/69/26 78/68/26 37/67/26
f 37/67/27 78/68/27 44/71/27 9/70/27
f 78/68/28 28/73/28 10/72/28 44/71/28
f 25/69/29 3/74/29 28/73/29 78/68/29
f 21/50/30 41/51/30 79/76/30 62/75/30
f 62/75/30 79/76/30 49/77/30 23/23/30
f 79/76/31 45/79/31 13/78/31 49/77/31
f 41/51/31 9/52/31 45/79/31 79/76/31
f 11/57/9 42/82/9 80/81/9 39/80/9
f 39/80/9 80/81/9 50/83/9 15/16/9
f 80/81/9 40/84/9 16/22/9 50/83/9
f 42/82/9 12/59/9 40/84/9 80/81/9
f 22/64/32 43/65/32 81/86/32 61/85/32
f 61/85/32 81/86/32 51/11/32 24/8/32
f 81/86/33 39/87/33 15/16/33 51/11/33
f 43/65/33 11/57/33 39/87/33 81/86/33
f 9/70/34 44/71/34 82/89/34 45/88/34
f 45/88/34 82/89/34 52/4/34 13/1/34
f 82/89/35 38/90/35 14/7/35 52/4/35
f 44/71/35 10/72/35 38/90/35 82/89/35
f 10/72/36 58/92/36 83/91/36 38/90/36
f 38/90/36 83/91/36 60/93/36 14/7/36
f 83/91/37 61/85/37 24/8/37 60/93/37
f 58/92/37 22/64/37 61/85/37 83/91/37
f 12/59/38 57/96/38 84/95/38 40/94/38
f 40/94/38 84/95/38 59/97/38 16/22/38
f 84/95/39 62/75/39 23/23/39 59/97/39
f 57/96/39 21/50/39 62/75/39 84/95/39
f 3/74/40 29/99/40 85/98/40 28/73/40
f 28/73/41 85/98/41 58/92/41 10/72/41
f 85/98/42 63/61/42 22/64/42 58/92/42
f 29/99/43 17/32/43 63/61/43 85/98/43
f 5/38/44 35/101/44 86/100/44 34/60/44
f 34/60/45 86/100/45 57/96/45 12/59/45
f 86/100/46 64/47/46 21/50/46 57/96/46
f 35/101/47 19/40/47 64/47/47 86/100/47
f 8/14/16 33/19/16 87/103/16 30/102/16
f 30/102/16 87/103/16 65/43/16 18/12/16
f 87/103/16 56/104/16 20/27/16 65/43/16
f 33/19/16 6/20/16 56/104/16 87/103/16
f 3/105/15 25/108/15 88/107/15 29/106/15
f 29/106/15 88/107/15 66/35/15 17/32/15
f 88/107/15 55/109/15 19/40/15 66/35/15
f 25/108/15 1/110/15 55/109/15 88/107/15
f 16/22/48 59/97/48 89/111/48 48/21/48
f 48/21/49 89/111/49 56/104/49 6/20/49
f 89/111/50 67/24/50 20/27/50 56/104/50
f 59/97/51 23/23/51 67/24/51 89/111/51
f 14/112/52 60/114/52 90/113/52 46/112/52
f 46/112/53 90/113/53 54/115/53 4/44/53
f 90/113/54 68/9/54 18/12/54 54/115/54
f 60/114/55 24/8/55 68/9/55 90/113/55
