# Blender 4.5.4 LTS
# www.blender.org
mtllib gia4.mtl
o 円柱.007
v -0.006971 0.509328 0.199050
v -0.006971 0.519136 0.199050
v -0.047333 0.509328 0.195075
v -0.047333 0.519136 0.195075
v -0.086145 0.509328 0.183302
v -0.086145 0.519136 0.183302
v -0.121913 0.509328 0.164183
v -0.121913 0.519136 0.164183
v -0.153265 0.509328 0.138454
v -0.153265 0.519136 0.138454
v -0.178994 0.509328 0.107102
v -0.178994 0.519136 0.107102
v -0.198113 0.509328 0.071333
v -0.198113 0.519136 0.071333
v -0.209886 0.509328 0.032522
v -0.209886 0.519136 0.032522
v -0.213862 0.509328 -0.007840
v -0.213862 0.519136 -0.007840
v -0.209886 0.509328 -0.048203
v -0.209886 0.519136 -0.048203
v -0.198113 0.509328 -0.087014
v -0.198113 0.519136 -0.087014
v -0.178994 0.509328 -0.122782
v -0.178994 0.519136 -0.122782
v -0.153265 0.509328 -0.154134
v -0.153265 0.519136 -0.154134
v -0.121913 0.509328 -0.179863
v -0.121913 0.519136 -0.179863
v -0.086145 0.509328 -0.198982
v -0.086145 0.519136 -0.198982
v -0.047333 0.509328 -0.210755
v -0.047333 0.519136 -0.210755
v -0.006971 0.509328 -0.214731
v -0.006971 0.519136 -0.214731
v 0.033391 0.509328 -0.210755
v 0.033391 0.519136 -0.210755
v 0.072202 0.509328 -0.198982
v 0.072202 0.519136 -0.198982
v 0.107971 0.509328 -0.179863
v 0.107971 0.519136 -0.179863
v 0.139323 0.509328 -0.154134
v 0.139323 0.519136 -0.154134
v 0.165052 0.509328 -0.122782
v 0.165052 0.519136 -0.122782
v 0.184171 0.509328 -0.087014
v 0.184171 0.519136 -0.087014
v 0.195944 0.509328 -0.048203
v 0.195944 0.519136 -0.048203
v 0.199919 0.509328 -0.007840
v 0.199919 0.519136 -0.007840
v 0.195944 0.509328 0.032522
v 0.195944 0.519136 0.032522
v 0.184171 0.509328 0.071333
v 0.184171 0.519136 0.071333
v 0.165052 0.509328 0.107102
v 0.165052 0.519136 0.107102
v 0.139323 0.509328 0.138454
v 0.139323 0.519136 0.138454
v 0.107971 0.509328 0.164183
v 0.107971 0.519136 0.164183
v 0.072202 0.509328 0.183302
v 0.072202 0.519136 0.183302
v 0.033391 0.509328 0.195075
v 0.033391 0.519136 0.195075
v -0.004564 0.509328 0.223490
v -0.004564 0.519136 0.223490
v -0.054462 0.519136 0.218575
v -0.054462 0.509328 0.218575
v -0.093273 0.509328 0.206802
v -0.093273 0.519136 0.206802
v -0.137492 0.519136 0.183166
v -0.137492 0.509328 0.183166
v -0.168844 0.509328 0.157437
v -0.168844 0.519136 0.157437
v -0.200652 0.519136 0.118678
v -0.200652 0.509328 0.118678
v -0.219771 0.509328 0.082910
v -0.219771 0.519136 0.082910
v -0.234326 0.519136 0.034929
v -0.234326 0.509328 0.034929
v -0.238301 0.509328 -0.005433
v -0.238301 0.519136 -0.005433
v -0.233386 0.519136 -0.055331
v -0.233386 0.509328 -0.055331
v -0.221613 0.509328 -0.094142
v -0.221613 0.519136 -0.094142
v -0.197977 0.519136 -0.138361
v -0.197977 0.509328 -0.138361
v -0.172248 0.509328 -0.169713
v -0.172248 0.519136 -0.169713
v -0.133490 0.519136 -0.201521
v -0.133490 0.509328 -0.201521
v -0.097721 0.509328 -0.220640
v -0.097721 0.519136 -0.220640
v -0.049741 0.519136 -0.235195
v -0.049741 0.509328 -0.235195
v -0.009378 0.509328 -0.239170
v -0.009378 0.519136 -0.239170
v 0.040520 0.519136 -0.234255
v 0.040520 0.509328 -0.234255
v 0.079331 0.509328 -0.222482
v 0.079331 0.519136 -0.222482
v 0.123550 0.519136 -0.198847
v 0.123550 0.509328 -0.198847
v 0.154902 0.509328 -0.173117
v 0.154902 0.519136 -0.173117
v 0.186710 0.519136 -0.134359
v 0.186710 0.509328 -0.134359
v 0.205829 0.509328 -0.098590
v 0.205829 0.519136 -0.098590
v 0.220383 0.519136 -0.050610
v 0.220383 0.509328 -0.050610
v 0.224359 0.509328 -0.010247
v 0.224359 0.519136 -0.010247
v 0.219444 0.519136 0.039651
v 0.219444 0.509328 0.039651
v 0.207671 0.509328 0.078462
v 0.207671 0.519136 0.078462
v 0.184035 0.519136 0.122681
v 0.184035 0.509328 0.122681
v 0.158306 0.509328 0.154033
v 0.158306 0.519136 0.154033
v 0.119547 0.519136 0.185841
v 0.119547 0.509328 0.185841
v 0.083779 0.509328 0.204959
v 0.083779 0.519136 0.204959
v 0.035798 0.519136 0.219514
v 0.035798 0.509328 0.219514
v 0.011887 0.519136 -0.001302
v 0.012107 0.519136 0.000930
v 0.011887 0.519136 0.003161
v 0.011236 0.519136 -0.003447
v 0.011236 0.519136 0.005307
v 0.010179 0.519136 -0.005425
v 0.010179 0.519136 0.007284
v 0.008757 0.519136 -0.007158
v 0.008757 0.519136 0.009017
v 0.005046 0.519136 -0.009637
v 0.005046 0.519136 0.011497
v 0.007024 0.519136 -0.008580
v 0.007024 0.519136 0.010440
v 0.002901 0.519136 -0.010288
v 0.000669 0.519136 -0.010508
v 0.000669 0.519136 0.012367
v -0.003708 0.519136 -0.009637
v -0.003708 0.519136 0.011497
v -0.001562 0.519136 -0.010288
v -0.001562 0.519136 0.012148
v -0.007418 0.519136 0.009017
v -0.009898 0.519136 0.005307
v -0.010549 0.519136 0.003161
v -0.008841 0.519136 0.007284
v -0.005685 0.519136 0.010440
v -0.005685 0.519136 -0.008580
v 0.002901 0.519136 0.012148
v -0.008841 0.519136 -0.005425
v -0.007418 0.519136 -0.007158
v -0.010549 0.519136 -0.001302
v -0.010768 0.519136 0.000930
v -0.009898 0.519136 -0.003447
v -0.003708 0.509328 0.011497
v -0.005685 0.509328 0.010440
v -0.007418 0.509328 -0.007158
v -0.007418 0.509328 0.009017
v -0.009898 0.509328 -0.003447
v -0.009898 0.509328 0.005307
v -0.010768 0.509328 0.000930
v -0.010549 0.509328 -0.001302
v -0.010549 0.509328 0.003161
v -0.008841 0.509328 0.007284
v -0.008841 0.509328 -0.005425
v 0.012107 0.509328 0.000930
v 0.011236 0.509328 -0.003447
v 0.011887 0.509328 -0.001302
v 0.011887 0.509328 0.003161
v 0.011236 0.509328 0.005307
v 0.010179 0.509328 -0.005425
v 0.010179 0.509328 0.007284
v 0.008757 0.509328 -0.007158
v 0.008757 0.509328 0.009017
v 0.007024 0.509328 -0.008580
v 0.007024 0.509328 0.010440
v 0.005046 0.509328 -0.009637
v 0.005046 0.509328 0.011497
v 0.002901 0.509328 -0.010288
v 0.002901 0.509328 0.012148
v -0.001562 0.509328 -0.010288
v -0.001562 0.509328 0.012148
v -0.003708 0.509328 -0.009637
v -0.005685 0.509328 -0.008580
v 0.000669 0.509328 -0.010508
v 0.000669 0.509328 0.012367
vn -0.0980 -0.0000 0.9952
vn -0.0000 1.0000 -0.0000
vn -0.4714 -0.0000 0.8819
vn -0.0980 -0.0000 -0.9952
vn -0.7730 -0.0000 0.6344
vn -0.9569 -0.0000 0.2903
vn -0.0000 -1.0000 -0.0000
vn -0.9952 -0.0000 -0.0980
vn 0.8819 -0.0000 -0.4714
vn -0.8819 -0.0000 -0.4714
vn -0.6344 -0.0000 -0.7730
vn 0.4714 -0.0000 0.8819
vn -0.2903 -0.0000 -0.9569
vn 0.0980 -0.0000 -0.9952
vn 0.9952 -0.0000 -0.0980
vn 0.4714 -0.0000 -0.8819
vn 0.7730 -0.0000 -0.6344
vn 0.9569 -0.0000 -0.2903
vn -0.8819 -0.0000 0.4714
vn 0.9952 -0.0000 0.0980
vn 0.8819 -0.0000 0.4714
vn -0.7730 -0.0000 -0.6344
vn 0.6344 -0.0000 0.7730
vn 0.2903 -0.0000 0.9569
vn -0.2903 -0.0000 0.9569
vn -0.6344 -0.0000 0.7730
vn -0.9952 -0.0000 0.0980
vn -0.9569 -0.0000 -0.2903
vn -0.4714 -0.0000 -0.8819
vn 0.2903 -0.0000 -0.9569
vn 0.6344 -0.0000 -0.7730
vn 0.9569 -0.0000 0.2903
vn 0.7730 -0.0000 0.6344
vn 0.0980 -0.0000 0.9952
vt 1.000000 0.500000
vt 1.000000 1.000000
vt 0.968750 1.000000
vt 0.968750 0.500000
vt 0.449553 0.383337
vt 0.471731 0.341844
vt 0.937500 0.500000
vt 0.937500 1.000000
vt 0.906250 1.000000
vt 0.906250 0.500000
vt 0.281250 0.500000
vt 0.281250 1.000000
vt 0.875000 0.500000
vt 0.875000 1.000000
vt 0.843750 1.000000
vt 0.843750 0.500000
vt 0.203178 0.485388
vt 0.250000 0.490000
vt 0.812500 0.500000
vt 0.812500 1.000000
vt 0.781250 1.000000
vt 0.781250 0.500000
vt 0.971731 0.341844
vt 0.949553 0.383337
vt 0.750000 0.500000
vt 0.750000 1.000000
vt 0.718750 1.000000
vt 0.718750 0.500000
vt 0.562500 1.000000
vt 0.562500 0.500000
vt 0.687500 0.500000
vt 0.687500 1.000000
vt 0.656250 1.000000
vt 0.656250 0.500000
vt 0.750000 0.490000
vt 0.703178 0.485388
vt 0.625000 0.500000
vt 0.625000 1.000000
vt 0.593750 1.000000
vt 0.593750 0.500000
vt 0.531250 1.000000
vt 0.531250 0.500000
vt 0.383337 0.050447
vt 0.341844 0.028269
vt 0.500000 0.500000
vt 0.500000 1.000000
vt 0.468750 1.000000
vt 0.468750 0.500000
vt 0.031250 0.500000
vt 0.031250 1.000000
vt 0.437500 0.500000
vt 0.437500 1.000000
vt 0.406250 1.000000
vt 0.406250 0.500000
vt 0.841844 0.028269
vt 0.883337 0.050447
vt 0.375000 0.500000
vt 0.375000 1.000000
vt 0.343750 1.000000
vt 0.343750 0.500000
vt 0.312500 1.000000
vt 0.312500 0.500000
vt 0.250000 0.500000
vt 0.250000 1.000000
vt 0.218750 1.000000
vt 0.218750 0.500000
vt 0.050447 0.116663
vt 0.028269 0.158156
vt 0.187500 0.500000
vt 0.187500 1.000000
vt 0.156250 1.000000
vt 0.156250 0.500000
vt 0.125000 0.500000
vt 0.125000 1.000000
vt 0.093750 1.000000
vt 0.093750 0.500000
vt 0.528269 0.158156
vt 0.550447 0.116663
vt 0.080294 0.419706
vt 0.050447 0.383337
vt 0.028269 0.341844
vt 0.228879 0.265251
vt 0.230105 0.267545
vt 0.231755 0.269555
vt 0.233766 0.271205
vt 0.236060 0.272431
vt 0.238549 0.273187
vt 0.241137 0.273441
vt 0.243725 0.273187
vt 0.246214 0.272431
vt 0.341844 0.471731
vt 0.296822 0.485388
vt 0.158156 0.471731
vt 0.116663 0.449553
vt 0.080294 0.080294
vt 0.116663 0.050447
vt 0.158156 0.028269
vt 0.203178 0.014612
vt 0.250000 0.010000
vt 0.296822 0.014612
vt 0.419706 0.080294
vt 0.449553 0.116663
vt 0.471731 0.158156
vt 0.485388 0.203178
vt 0.490000 0.250000
vt 0.485388 0.296822
vt 0.419706 0.419706
vt 0.383337 0.449553
vt 0.248508 0.271205
vt 0.250519 0.269555
vt 0.252169 0.267545
vt 0.253395 0.265251
vt 0.254150 0.262762
vt 0.254405 0.260174
vt 0.254150 0.257585
vt 0.253395 0.255096
vt 0.252169 0.252802
vt 0.250519 0.250792
vt 0.248508 0.249142
vt 0.246214 0.247916
vt 0.243725 0.247160
vt 0.241137 0.246905
vt 0.238549 0.247160
vt 0.236060 0.247915
vt 0.233766 0.249142
vt 0.231755 0.250792
vt 0.230105 0.252802
vt 0.228879 0.255096
vt 0.228124 0.257585
vt 0.227869 0.260173
vt 0.228124 0.262762
vt 0.014612 0.296822
vt 0.010000 0.250000
vt 0.014612 0.203178
vt 0.062500 0.500000
vt 0.062500 1.000000
vt 0.796822 0.485388
vt 0.841844 0.471731
vt 0.883337 0.449553
vt 0.919706 0.419706
vt 0.985388 0.296822
vt 0.990000 0.250000
vt 0.985388 0.203178
vt 0.971731 0.158156
vt 0.949553 0.116663
vt 0.919706 0.080294
vt 0.796822 0.014612
vt 0.750000 0.010000
vt 0.703178 0.014612
vt 0.658156 0.028269
vt 0.616663 0.050447
vt 0.580294 0.080294
vt 0.514612 0.203178
vt 0.728124 0.257585
vt 0.728879 0.255096
vt 0.730105 0.252802
vt 0.731755 0.250792
vt 0.733766 0.249142
vt 0.736059 0.247915
vt 0.738548 0.247160
vt 0.741137 0.246906
vt 0.743725 0.247160
vt 0.746214 0.247916
vt 0.748508 0.249142
vt 0.750519 0.250792
vt 0.752169 0.252802
vt 0.753395 0.255096
vt 0.754150 0.257585
vt 0.754405 0.260174
vt 0.754150 0.262762
vt 0.753395 0.265251
vt 0.752169 0.267545
vt 0.750519 0.269555
vt 0.748508 0.271205
vt 0.746214 0.272431
vt 0.743725 0.273187
vt 0.741137 0.273441
vt 0.738549 0.273186
vt 0.510000 0.250000
vt 0.514612 0.296822
vt 0.528269 0.341844
vt 0.550447 0.383337
vt 0.580294 0.419706
vt 0.616663 0.449553
vt 0.658156 0.471731
vt 0.736059 0.272431
vt 0.733766 0.271205
vt 0.731755 0.269555
vt 0.730105 0.267545
vt 0.728879 0.265251
vt 0.728124 0.262762
vt 0.727869 0.260173
vt 0.000000 1.000000
vt 0.000000 0.500000
vt 0.031250 0.666225
vt 0.031250 0.651653
vt 0.062500 0.666225
vt 0.062500 0.651653
vt 0.093750 0.666225
vt 0.093750 0.651653
vt 0.125000 0.666225
vt 0.125000 0.651653
vt 0.156250 0.651653
vt 0.156250 0.666225
vt 0.187500 0.651653
vt 0.187500 0.666225
vt 0.218750 0.651653
vt 0.218750 0.666225
vt 0.250000 0.651653
vt 0.250000 0.666225
vt 0.281250 0.651653
vt 0.281250 0.666225
vt 0.312500 0.651653
vt 0.312500 0.666225
vt 0.343750 0.651653
vt 0.343750 0.666225
vt 0.375000 0.651653
vt 0.375000 0.666225
vt 0.406250 0.651653
vt 0.406250 0.666225
vt 0.437500 0.651653
vt 0.437500 0.666225
vt 0.468750 0.651653
vt 0.468750 0.666225
vt 0.500000 0.651653
vt 0.500000 0.666225
vt 0.531250 0.651653
vt 0.531250 0.666225
vt 0.562500 0.651653
vt 0.562500 0.666225
vt 0.593750 0.651653
vt 0.593750 0.666225
vt 0.625000 0.651653
vt 0.625000 0.666225
vt 0.656250 0.666225
vt 0.656250 0.651653
vt 0.687500 0.666225
vt 0.687500 0.651653
vt 0.718750 0.666225
vt 0.718750 0.651653
vt 0.750000 0.666225
vt 0.750000 0.651653
vt 0.781250 0.666225
vt 0.781250 0.651653
vt 0.812500 0.666225
vt 0.812500 0.651653
vt 0.843750 0.666225
vt 0.843750 0.651653
vt 0.875000 0.666225
vt 0.875000 0.651653
vt 0.906250 0.666225
vt 0.906250 0.651653
vt 0.937500 0.666225
vt 0.937500 0.651653
vt 0.968750 0.666225
vt 0.968750 0.651653
vt 1.000000 0.666225
vt 1.000000 0.651653
s 0
usemtl マテリアル.025
f 1/1/1 2/2/1 4/3/1 3/4/1
f 12/5/2 14/6/2 78/6/2 75/5/2
f 5/7/3 6/8/3 8/9/3 7/10/3
f 47/11/4 48/12/4 111/12/4 112/11/4
f 9/13/5 10/14/5 12/15/5 11/16/5
f 64/17/2 2/18/2 66/18/2 127/17/2
f 13/19/6 14/20/6 16/21/6 15/22/6
f 13/23/7 11/24/7 76/24/7 77/23/7
f 17/25/8 18/26/8 20/27/8 19/28/8
f 30/29/9 29/30/9 93/30/9 94/29/9
f 21/31/10 22/32/10 24/33/10 23/34/10
f 1/35/7 63/36/7 128/36/7 65/35/7
f 25/37/11 26/38/11 28/39/11 27/40/11
f 11/16/12 12/15/12 75/15/12 76/16/12
f 29/30/13 30/29/13 32/41/13 31/42/13
f 28/43/2 30/44/2 94/44/2 91/43/2
f 33/45/14 34/46/14 36/47/14 35/48/14
f 63/49/15 64/50/15 127/50/15 128/49/15
f 37/51/16 38/52/16 40/53/16 39/54/16
f 29/55/7 27/56/7 92/56/7 93/55/7
f 41/57/17 42/58/17 44/59/17 43/60/17
f 46/61/12 45/62/12 109/62/12 110/61/12
f 45/62/18 46/61/18 48/12/18 47/11/18
f 27/40/19 28/39/19 91/39/19 92/40/19
f 49/63/20 50/64/20 52/65/20 51/66/20
f 44/67/2 46/68/2 110/68/2 107/67/2
f 53/69/21 54/70/21 56/71/21 55/72/21
f 10/14/22 9/13/22 73/13/22 74/14/22
f 57/73/23 58/74/23 60/75/23 59/76/23
f 45/77/7 43/78/7 108/78/7 109/77/7
f 58/79/2 56/80/2 54/81/2 133/82/2 135/83/2 137/84/2 141/85/2 139/86/2 155/87/2 144/88/2 148/89/2 146/90/2 6/91/2 4/92/2 2/18/2 64/17/2 62/93/2 60/94/2
f 42/95/2 40/96/2 38/97/2 36/98/2 34/99/2 32/100/2 30/44/2 28/43/2 26/101/2 24/102/2 22/103/2 20/104/2 18/105/2 16/106/2 14/6/2 12/5/2 10/107/2 8/108/2 6/91/2 146/90/2 153/109/2 149/110/2 152/111/2 150/112/2 151/113/2 159/114/2 158/115/2 160/116/2 156/117/2 157/118/2 154/119/2 145/120/2 147/121/2 143/122/2 142/123/2 138/124/2 140/125/2 136/126/2 134/127/2 132/128/2 129/129/2 130/130/2 131/131/2 133/82/2 54/81/2 52/132/2 50/133/2 48/134/2 46/68/2 44/67/2
f 61/135/24 62/136/24 64/50/24 63/49/24
f 62/136/19 61/135/19 125/135/19 126/136/19
f 63/36/7 1/35/7 3/137/7 5/138/7 7/139/7 9/140/7 11/24/7 13/23/7 15/141/7 17/142/7 19/143/7 21/144/7 23/145/7 25/146/7 27/56/7 29/55/7 31/147/7 33/148/7 35/149/7 37/150/7 39/151/7 41/152/7 43/78/7 45/77/7 47/153/7 174/154/7 173/155/7 177/156/7 179/157/7 181/158/7 183/159/7 185/160/7 191/161/7 187/162/7 189/163/7 190/164/7 163/165/7 171/166/7 165/167/7 168/168/7 167/169/7 169/170/7 166/171/7 170/172/7 164/173/7 162/174/7 161/175/7 188/176/7 192/177/7 186/178/7
f 174/154/7 47/153/7 49/179/7 51/180/7 53/181/7 55/182/7 57/183/7 59/184/7 61/185/7 63/36/7 186/178/7 184/186/7 182/187/7 180/188/7 178/189/7 176/190/7 175/191/7 172/192/7
f 68/4/25 67/3/25 70/8/25 69/7/25
f 72/10/26 71/9/26 74/14/26 73/13/26
f 76/16/19 75/15/19 78/20/19 77/19/19
f 80/22/27 79/21/27 82/26/27 81/25/27
f 84/28/28 83/27/28 86/32/28 85/31/28
f 88/34/22 87/33/22 90/38/22 89/37/22
f 92/40/29 91/39/29 94/29/29 93/30/29
f 96/42/4 95/41/4 98/46/4 97/45/4
f 100/48/30 99/47/30 102/52/30 101/51/30
f 104/54/31 103/53/31 106/58/31 105/57/31
f 108/60/9 107/59/9 110/61/9 109/62/9
f 112/11/15 111/12/15 114/64/15 113/63/15
f 116/66/32 115/65/32 118/70/32 117/69/32
f 120/72/33 119/71/33 122/74/33 121/73/33
f 124/76/12 123/75/12 126/136/12 125/135/12
f 128/49/34 127/50/34 66/193/34 65/194/34
f 49/179/7 47/153/7 112/153/7 113/179/7
f 14/20/29 13/19/29 77/19/29 78/20/29
f 48/134/2 50/133/2 114/133/2 111/134/2
f 31/42/27 32/41/27 95/41/27 96/42/27
f 50/64/34 49/63/34 113/63/34 114/64/34
f 33/148/7 31/147/7 96/147/7 97/148/7
f 32/100/2 34/99/2 98/99/2 95/100/2
f 15/22/34 16/21/34 79/21/34 80/22/34
f 34/46/15 33/45/15 97/45/15 98/46/15
f 17/142/7 15/141/7 80/141/7 81/142/7
f 51/66/30 52/65/30 115/65/30 116/66/30
f 16/106/2 18/105/2 82/105/2 79/106/2
f 53/181/7 51/180/7 116/180/7 117/181/7
f 18/26/4 17/25/4 81/25/4 82/26/4
f 52/132/2 54/81/2 118/81/2 115/132/2
f 35/48/28 36/47/28 99/47/28 100/48/28
f 54/70/25 53/69/25 117/69/25 118/70/25
f 37/150/7 35/149/7 100/149/7 101/150/7
f 36/98/2 38/97/2 102/97/2 99/98/2
f 19/28/25 20/27/25 83/27/25 84/28/25
f 38/52/32 37/51/32 101/51/32 102/52/32
f 21/144/7 19/143/7 84/143/7 85/144/7
f 2/2/27 1/1/27 65/1/27 66/2/27
f 55/72/31 56/71/31 119/71/31 120/72/31
f 20/104/2 22/103/2 86/103/2 83/104/2
f 3/4/32 4/3/32 67/3/32 68/4/32
f 57/183/7 55/182/7 120/182/7 121/183/7
f 22/32/30 21/31/30 85/31/30 86/32/30
f 5/138/7 3/137/7 68/137/7 69/138/7
f 56/80/2 58/79/2 122/79/2 119/80/2
f 39/54/22 40/53/22 103/53/22 104/54/22
f 4/92/2 6/91/2 70/91/2 67/92/2
f 58/74/26 57/73/26 121/73/26 122/74/26
f 41/152/7 39/151/7 104/151/7 105/152/7
f 6/8/28 5/7/28 69/7/28 70/8/28
f 40/96/2 42/95/2 106/95/2 103/96/2
f 23/34/26 24/33/26 87/33/26 88/34/26
f 42/58/33 41/57/33 105/57/33 106/58/33
f 25/146/7 23/145/7 88/145/7 89/146/7
f 59/76/9 60/75/9 123/75/9 124/76/9
f 24/102/2 26/101/2 90/101/2 87/102/2
f 7/10/33 8/9/33 71/9/33 72/10/33
f 61/185/7 59/184/7 124/184/7 125/185/7
f 26/38/31 25/37/31 89/37/31 90/38/31
f 9/140/7 7/139/7 72/139/7 73/140/7
f 60/94/2 62/93/2 126/93/2 123/94/2
f 43/60/29 44/59/29 107/59/29 108/60/29
f 8/108/2 10/107/2 74/107/2 71/108/2
f 159/195/15 151/195/15 169/196/15 167/196/15
f 151/197/18 150/197/18 166/198/18 169/198/18
f 150/199/9 152/199/9 170/200/9 166/200/9
f 152/201/17 149/201/17 164/202/17 170/202/17
f 164/203/31 149/204/31 153/204/31 162/203/31
f 162/205/16 153/206/16 146/206/16 161/205/16
f 161/207/30 146/208/30 148/208/30 188/207/30
f 188/209/14 148/210/14 144/210/14 192/209/14
f 192/211/4 144/212/4 155/212/4 186/211/4
f 186/213/13 155/214/13 139/214/13 184/213/13
f 184/215/29 139/216/29 141/216/29 182/215/29
f 182/217/11 141/218/11 137/218/11 180/217/11
f 180/219/22 137/220/22 135/220/22 178/219/22
f 178/221/10 135/222/10 133/222/10 176/221/10
f 176/223/28 133/224/28 131/224/28 175/223/28
f 175/225/8 131/226/8 130/226/8 172/225/8
f 172/227/27 130/228/27 129/228/27 174/227/27
f 174/229/6 129/230/6 132/230/6 173/229/6
f 173/231/19 132/232/19 134/232/19 177/231/19
f 177/233/5 134/234/5 136/234/5 179/233/5
f 136/235/26 140/235/26 181/236/26 179/236/26
f 140/237/3 138/237/3 183/238/3 181/238/3
f 138/239/25 142/239/25 185/240/25 183/240/25
f 142/241/1 143/241/1 191/242/1 185/242/1
f 143/243/34 147/243/34 187/244/34 191/244/34
f 147/245/24 145/245/24 189/246/24 187/246/24
f 145/247/12 154/247/12 190/248/12 189/248/12
f 154/249/23 157/249/23 163/250/23 190/250/23
f 157/251/33 156/251/33 171/252/33 163/252/33
f 156/253/21 160/253/21 165/254/21 171/254/21
f 160/255/32 158/255/32 168/256/32 165/256/32
f 158/257/20 159/257/20 167/258/20 168/258/20
