# Blender 4.5.4 LTS
# www.blender.org
mtllib gia5.mtl
o 円柱.008
v 0.000029 0.656317 -0.052437
v 0.000029 0.663961 -0.052437
v 0.010258 0.656317 -0.051429
v 0.010258 0.663961 -0.051429
v 0.020093 0.656317 -0.048446
v 0.020093 0.663961 -0.048446
v 0.029157 0.656317 -0.043601
v 0.029157 0.663961 -0.043601
v 0.037102 0.656317 -0.037081
v 0.037102 0.663961 -0.037081
v 0.043622 0.656317 -0.029136
v 0.043622 0.663961 -0.029136
v 0.048466 0.656317 -0.020072
v 0.048466 0.663961 -0.020072
v 0.051450 0.656317 -0.010237
v 0.051450 0.663961 -0.010237
v 0.052457 0.656317 -0.000009
v 0.052457 0.663961 -0.000009
v 0.051450 0.656317 0.010219
v 0.051450 0.663961 0.010219
v 0.048466 0.656317 0.020054
v 0.048466 0.663961 0.020054
v 0.043622 0.656317 0.029118
v 0.043622 0.663961 0.029118
v 0.037102 0.656317 0.037063
v 0.037102 0.663961 0.037063
v 0.029157 0.656317 0.043583
v 0.029157 0.663961 0.043583
v 0.020093 0.656317 0.048428
v 0.020093 0.663961 0.048428
v 0.010258 0.656317 0.051412
v 0.010258 0.663961 0.051412
v 0.000029 0.656317 0.052419
v 0.000029 0.663961 0.052419
v -0.010199 0.656317 0.051412
v -0.010199 0.663961 0.051412
v -0.020034 0.656317 0.048428
v -0.020034 0.663961 0.048428
v -0.029098 0.656317 0.043583
v -0.029098 0.663961 0.043583
v -0.037043 0.656317 0.037063
v -0.037043 0.663961 0.037063
v -0.043563 0.656317 0.029118
v -0.043563 0.663961 0.029118
v -0.048408 0.656317 0.020054
v -0.048408 0.663961 0.020054
v -0.051391 0.656317 0.010219
v -0.051391 0.663961 0.010219
v -0.052398 0.656317 -0.000009
v -0.052398 0.663961 -0.000009
v -0.051391 0.656317 -0.010237
v -0.051391 0.663961 -0.010237
v -0.048408 0.656317 -0.020072
v -0.048408 0.663961 -0.020072
v -0.043563 0.656317 -0.029136
v -0.043563 0.663961 -0.029136
v -0.037043 0.656317 -0.037081
v -0.037043 0.663961 -0.037081
v -0.029098 0.656317 -0.043601
v -0.029098 0.663961 -0.043601
v -0.020034 0.656317 -0.048446
v -0.020034 0.663961 -0.048446
v -0.010199 0.656317 -0.051429
v -0.010199 0.663961 -0.051429
v 0.000837 0.656317 -0.060639
v 0.011065 0.656317 -0.059632
v 0.011065 0.663961 -0.059632
v 0.000837 0.663961 -0.060639
v 0.023978 0.663961 -0.055715
v 0.023978 0.656317 -0.055715
v 0.033042 0.656317 -0.050870
v 0.033042 0.663961 -0.050870
v 0.043473 0.663961 -0.042310
v 0.043473 0.656317 -0.042310
v 0.049993 0.656317 -0.034365
v 0.049993 0.663961 -0.034365
v 0.056354 0.663961 -0.022465
v 0.056354 0.656317 -0.022465
v 0.059337 0.656317 -0.012630
v 0.059337 0.663961 -0.012630
v 0.060660 0.663961 0.000799
v 0.060660 0.656317 0.000799
v 0.059652 0.656317 0.011027
v 0.059652 0.663961 0.011027
v 0.055735 0.663961 0.023940
v 0.055735 0.656317 0.023940
v 0.050891 0.656317 0.033004
v 0.050891 0.663961 0.033004
v 0.042330 0.663961 0.043434
v 0.042330 0.656317 0.043434
v 0.034386 0.656317 0.049955
v 0.034386 0.663961 0.049955
v 0.022485 0.663961 0.056315
v 0.022485 0.656317 0.056315
v 0.012650 0.656317 0.059299
v 0.012650 0.663961 0.059299
v -0.000778 0.663961 0.060621
v -0.000778 0.656317 0.060621
v -0.011007 0.656317 0.059614
v -0.011007 0.663961 0.059614
v -0.023919 0.663961 0.055697
v -0.023919 0.656317 0.055697
v -0.032983 0.656317 0.050852
v -0.032983 0.663961 0.050852
v -0.043414 0.663961 0.042292
v -0.043414 0.656317 0.042292
v -0.049934 0.656317 0.034347
v -0.049934 0.663961 0.034347
v -0.056295 0.663961 0.022447
v -0.056295 0.656317 0.022447
v -0.059278 0.656317 0.012612
v -0.059278 0.663961 0.012612
v -0.060601 0.663961 -0.000817
v -0.060601 0.656317 -0.000817
v -0.059593 0.656317 -0.011045
v -0.059593 0.663961 -0.011045
v -0.055677 0.663961 -0.023958
v -0.055677 0.656317 -0.023958
v -0.050832 0.656317 -0.033022
v -0.050832 0.663961 -0.033022
v -0.042271 0.663961 -0.043452
v -0.042271 0.656317 -0.043452
v -0.034327 0.656317 -0.049972
v -0.034327 0.663961 -0.049972
v -0.022426 0.663961 -0.056333
v -0.022426 0.656317 -0.056333
v -0.012591 0.656317 -0.059317
v -0.012591 0.663961 -0.059317
v -0.004146 0.663961 0.000698
v -0.004061 0.663961 0.001566
v -0.004061 0.663961 -0.000169
v -0.003396 0.663961 -0.001773
v -0.003396 0.663961 0.003170
v -0.003807 0.663961 -0.001004
v -0.003807 0.663961 0.002401
v -0.002169 0.663961 0.004397
v -0.002169 0.663961 -0.003000
v -0.000565 0.663961 -0.003665
v 0.001170 0.663961 -0.003665
v 0.000302 0.663961 -0.003750
v -0.001400 0.663961 -0.003411
v -0.002843 0.663961 0.003844
v -0.002843 0.663961 -0.002447
v -0.001400 0.663961 0.004808
v 0.000302 0.663961 0.005147
v 0.001170 0.663961 0.005062
v -0.000565 0.663961 0.005062
v 0.002774 0.663961 0.004397
v 0.002005 0.663961 0.004808
v 0.002005 0.663961 -0.003411
v 0.003448 0.663961 -0.002447
v 0.004001 0.663961 0.003170
v 0.004001 0.663961 -0.001773
v 0.004751 0.663961 0.000698
v 0.004412 0.663961 0.002401
v 0.004666 0.663961 0.001566
v 0.004666 0.663961 -0.000169
v 0.003448 0.663961 0.003844
v 0.004412 0.663961 -0.001004
v 0.002774 0.663961 -0.003000
v -0.000565 0.656317 -0.003665
v 0.000302 0.656317 -0.003750
v 0.001170 0.656317 -0.003665
v 0.002774 0.656317 0.004397
v 0.002005 0.656317 0.004808
v 0.002005 0.656317 -0.003411
v 0.001170 0.656317 0.005062
v 0.002774 0.656317 -0.003000
v 0.003448 0.656317 -0.002447
v 0.004001 0.656317 0.003170
v 0.004001 0.656317 -0.001773
v 0.004751 0.656317 0.000698
v 0.004412 0.656317 0.002401
v 0.004666 0.656317 0.001566
v 0.004666 0.656317 -0.000169
v 0.003448 0.656317 0.003844
v 0.004412 0.656317 -0.001004
v -0.004146 0.656317 0.000698
v -0.004061 0.656317 0.001566
v -0.004061 0.656317 -0.000169
v -0.003396 0.656317 -0.001773
v -0.003396 0.656317 0.003170
v -0.003807 0.656317 -0.001004
v -0.003807 0.656317 0.002401
v -0.002169 0.656317 0.004397
v -0.002169 0.656317 -0.003000
v 0.000302 0.656317 0.005147
v -0.000565 0.656317 0.005062
v -0.001400 0.656317 0.004808
v -0.001400 0.656317 -0.003411
v -0.002843 0.656317 0.003844
v -0.002843 0.656317 -0.002447
vn -0.9569 -0.0000 0.2903
vn 0.2903 -0.0000 -0.9569
vn -0.0000 -1.0000 -0.0000
vn 0.6344 -0.0000 -0.7730
vn -0.6344 -0.0000 -0.7730
vn 0.8819 -0.0000 -0.4714
vn 0.7730 -0.0000 -0.6344
vn 0.9952 -0.0000 -0.0980
vn -0.0000 1.0000 -0.0000
vn 0.9569 -0.0000 0.2903
vn 0.8819 -0.0000 0.4714
vn 0.7730 -0.0000 0.6344
vn 0.4714 -0.0000 0.8819
vn 0.0980 -0.0000 0.9952
vn -0.2903 -0.0000 0.9569
vn 0.6344 -0.0000 0.7730
vn -0.6344 -0.0000 0.7730
vn -0.8819 -0.0000 0.4714
vn -0.9952 -0.0000 0.0980
vn -0.4714 -0.0000 0.8819
vn -0.9569 -0.0000 -0.2903
vn -0.7730 -0.0000 -0.6344
vn -0.8819 -0.0000 -0.4714
vn -0.4714 -0.0000 -0.8819
vn -0.0980 -0.0000 -0.9952
vn 0.0980 -0.0000 -0.9952
vn 0.4714 -0.0000 -0.8819
vn 0.9569 -0.0000 -0.2903
vn 0.9952 -0.0000 0.0980
vn 0.2903 -0.0000 0.9569
vn -0.0980 -0.0000 0.9952
vn -0.7730 -0.0000 0.6344
vn -0.9952 -0.0000 -0.0980
vn -0.2903 -0.0000 -0.9569
vt 0.062500 0.500000
vt 0.062500 1.000000
vt 0.968750 0.500000
vt 0.968750 1.000000
vt 0.937500 1.000000
vt 0.937500 0.500000
vt 0.883337 0.050447
vt 0.919706 0.080294
vt 0.906250 0.500000
vt 0.906250 1.000000
vt 0.875000 1.000000
vt 0.875000 0.500000
vt 0.343750 1.000000
vt 0.343750 0.500000
vt 0.843750 0.500000
vt 0.843750 1.000000
vt 0.812500 1.000000
vt 0.812500 0.500000
vt 0.625000 0.500000
vt 0.625000 1.000000
vt 0.781250 0.500000
vt 0.781250 1.000000
vt 0.750000 1.000000
vt 0.750000 0.500000
vt 0.080294 0.080294
vt 0.050447 0.116663
vt 0.718750 0.500000
vt 0.718750 1.000000
vt 0.687500 1.000000
vt 0.687500 0.500000
vt 0.656250 0.500000
vt 0.656250 1.000000
vt 0.550447 0.116663
vt 0.580294 0.080294
vt 0.593750 0.500000
vt 0.593750 1.000000
vt 0.562500 1.000000
vt 0.562500 0.500000
vt 0.093750 1.000000
vt 0.093750 0.500000
vt 0.531250 0.500000
vt 0.531250 1.000000
vt 0.500000 1.000000
vt 0.500000 0.500000
vt 0.341844 0.471731
vt 0.383337 0.449553
vt 0.468750 0.500000
vt 0.468750 1.000000
vt 0.437500 1.000000
vt 0.437500 0.500000
vt 0.375000 0.500000
vt 0.375000 1.000000
vt 0.406250 0.500000
vt 0.406250 1.000000
vt 0.080294 0.419706
vt 0.116663 0.449553
vt 0.312500 1.000000
vt 0.312500 0.500000
vt 0.883337 0.449553
vt 0.841844 0.471731
vt 0.281250 0.500000
vt 0.281250 1.000000
vt 0.250000 1.000000
vt 0.250000 0.500000
vt 0.218750 0.500000
vt 0.218750 1.000000
vt 0.187500 1.000000
vt 0.187500 0.500000
vt 0.616663 0.449553
vt 0.580294 0.419706
vt 0.156250 0.500000
vt 0.156250 1.000000
vt 0.125000 1.000000
vt 0.125000 0.500000
vt 0.116663 0.050447
vt 0.158156 0.028269
vt 0.243457 0.227948
vt 0.239936 0.229830
vt 0.236850 0.232362
vt 0.234318 0.235448
vt 0.232436 0.238969
vt 0.231277 0.242789
vt 0.230886 0.246762
vt 0.231277 0.250735
vt 0.232436 0.254555
vt 0.234318 0.258075
vt 0.236850 0.261161
vt 0.239936 0.263694
vt 0.243457 0.265576
vt 0.247277 0.266735
vt 0.251250 0.267126
vt 0.255223 0.266735
vt 0.259043 0.265576
vt 0.262564 0.263694
vt 0.265649 0.261161
vt 0.268182 0.258075
vt 0.270064 0.254555
vt 0.271223 0.250735
vt 0.271614 0.246762
vt 0.271223 0.242789
vt 0.270064 0.238969
vt 0.471731 0.158156
vt 0.485388 0.203178
vt 0.490000 0.250000
vt 0.485388 0.296822
vt 0.471731 0.341844
vt 0.449553 0.383337
vt 0.419706 0.419706
vt 0.296822 0.485388
vt 0.250000 0.490000
vt 0.203178 0.485388
vt 0.158156 0.471731
vt 0.050447 0.383337
vt 0.028269 0.341844
vt 0.014612 0.296822
vt 0.010000 0.250000
vt 0.014612 0.203178
vt 0.028269 0.158156
vt 0.341844 0.028269
vt 0.383337 0.050447
vt 0.419706 0.080294
vt 0.449553 0.116663
vt 0.268182 0.235448
vt 0.265649 0.232362
vt 0.262564 0.229830
vt 0.259043 0.227948
vt 0.255223 0.226789
vt 0.251250 0.226398
vt 0.247277 0.226789
vt 0.203178 0.014612
vt 0.250000 0.010000
vt 0.296822 0.014612
vt 0.031250 0.500000
vt 0.031250 1.000000
vt 0.000000 1.000000
vt 0.000000 0.500000
vt 0.703178 0.485388
vt 0.750000 0.490000
vt 0.796822 0.485388
vt 0.919706 0.419706
vt 0.949553 0.383337
vt 0.971731 0.341844
vt 0.985388 0.296822
vt 0.771223 0.250735
vt 0.770064 0.254555
vt 0.768182 0.258075
vt 0.765650 0.261161
vt 0.762564 0.263694
vt 0.759043 0.265576
vt 0.755223 0.266735
vt 0.751250 0.267126
vt 0.747277 0.266735
vt 0.743457 0.265576
vt 0.739936 0.263694
vt 0.736850 0.261161
vt 0.734318 0.258076
vt 0.732436 0.254555
vt 0.731277 0.250735
vt 0.730886 0.246762
vt 0.731277 0.242789
vt 0.732436 0.238969
vt 0.734318 0.235448
vt 0.736850 0.232362
vt 0.739936 0.229830
vt 0.743457 0.227948
vt 0.747277 0.226789
vt 0.751250 0.226398
vt 0.755223 0.226789
vt 0.796822 0.014612
vt 0.750000 0.010000
vt 0.703178 0.014612
vt 0.658156 0.028269
vt 0.616663 0.050447
vt 0.528269 0.158156
vt 0.514612 0.203178
vt 0.510000 0.250000
vt 0.514612 0.296822
vt 0.528269 0.341844
vt 0.550447 0.383337
vt 0.658156 0.471731
vt 0.990000 0.250000
vt 0.985388 0.203178
vt 0.971731 0.158156
vt 0.949553 0.116663
vt 0.841844 0.028269
vt 0.759043 0.227948
vt 0.762563 0.229830
vt 0.765649 0.232362
vt 0.768182 0.235448
vt 0.770064 0.238969
vt 0.771223 0.242789
vt 0.771614 0.246762
vt 1.000000 0.500000
vt 1.000000 1.000000
vt 0.781250 0.923740
vt 0.375000 0.923740
vt 0.812500 0.923740
vt 0.812500 0.923740
vt 0.406250 0.923740
vt 0.406250 0.923740
vt 0.000000 0.923740
vt 0.000000 0.923740
vt 0.843750 0.923740
vt 0.437500 0.923740
vt 0.031250 0.923740
vt 0.875000 0.923740
vt 0.468750 0.923740
vt 0.468750 0.923740
vt 0.062500 0.923740
vt 0.906250 0.923740
vt 0.500000 0.923740
vt 0.093750 0.923740
vt 0.937500 0.923740
vt 0.531250 0.923740
vt 0.125000 0.923740
vt 0.968750 0.923740
vt 0.562500 0.923740
vt 0.156250 0.923740
vt 0.156250 0.923740
vt 0.593750 0.923740
vt 0.187500 0.923740
vt 0.625000 0.923740
vt 0.218750 0.923740
vt 0.656250 0.923740
vt 0.250000 0.923740
vt 0.687500 0.923740
vt 0.281250 0.923740
vt 0.718750 0.923740
vt 0.312500 0.923740
vt 0.750000 0.923740
vt 0.343750 0.923740
s 0
usemtl マテリアル.029
f 61/1/1 62/2/1 125/2/1 126/1/1
f 3/3/2 4/4/2 6/5/2 5/6/2
f 27/7/3 25/8/3 90/8/3 91/7/3
f 7/9/4 8/10/4 10/11/4 9/12/4
f 44/13/5 43/14/5 107/14/5 108/13/5
f 11/15/6 12/16/6 14/17/6 13/18/6
f 25/19/7 26/20/7 89/20/7 90/19/7
f 15/21/8 16/22/8 18/23/8 17/24/8
f 42/25/9 44/26/9 108/26/9 105/25/9
f 19/27/10 20/28/10 22/29/10 21/30/10
f 8/10/11 7/9/11 71/9/11 72/10/11
f 23/31/12 24/32/12 26/20/12 25/19/12
f 43/33/3 41/34/3 106/34/3 107/33/3
f 27/35/13 28/36/13 30/37/13 29/38/13
f 60/39/7 59/40/7 123/40/7 124/39/7
f 31/41/14 32/42/14 34/43/14 33/44/14
f 6/45/9 8/46/9 72/46/9 69/45/9
f 35/47/15 36/48/15 38/49/15 37/50/15
f 41/51/16 42/52/16 105/52/16 106/51/16
f 39/53/17 40/54/17 42/52/17 41/51/17
f 58/55/9 60/56/9 124/56/9 121/55/9
f 43/14/18 44/13/18 46/57/18 45/58/18
f 7/59/3 5/60/3 70/60/3 71/59/3
f 47/61/19 48/62/19 50/63/19 49/64/19
f 24/32/20 23/31/20 87/31/20 88/32/20
f 51/65/21 52/66/21 54/67/21 53/68/21
f 59/69/3 57/70/3 122/70/3 123/69/3
f 55/71/22 56/72/22 58/73/22 57/74/22
f 5/6/23 6/5/23 69/5/23 70/6/23
f 59/40/24 60/39/24 62/2/24 61/1/24
f 42/25/9 40/75/9 38/76/9 144/77/9 136/78/9 142/79/9 133/80/9 135/81/9 130/82/9 129/83/9 131/84/9 134/85/9 132/86/9 143/87/9 137/88/9 141/89/9 138/90/9 140/91/9 139/92/9 150/93/9 160/94/9 151/95/9 153/96/9 159/97/9 157/98/9 154/99/9 156/100/9 155/101/9 22/102/9 20/103/9 18/104/9 16/105/9 14/106/9 12/107/9 10/108/9 8/46/9 6/45/9 4/109/9 2/110/9 64/111/9 62/112/9 60/56/9 58/55/9 56/113/9 54/114/9 52/115/9 50/116/9 48/117/9 46/118/9 44/26/9
f 30/119/9 28/120/9 26/121/9 24/122/9 22/102/9 155/101/9 152/123/9 158/124/9 148/125/9 149/126/9 146/127/9 145/128/9 147/129/9 144/77/9 38/76/9 36/130/9 34/131/9 32/132/9
f 22/102/9 24/122/9 88/122/9 85/102/9
f 63/133/25 64/134/25 2/135/25 1/136/25
f 63/137/3 1/138/3 3/139/3 5/60/3 7/59/3 9/140/3 11/141/3 13/142/3 15/143/3 175/144/3 177/145/3 171/146/3 169/147/3 168/148/3 166/149/3 163/150/3 162/151/3 161/152/3 190/153/3 186/154/3 192/155/3 181/156/3 183/157/3 180/158/3 178/159/3 179/160/3 184/161/3 182/162/3 191/163/3 185/164/3 189/165/3 188/166/3 187/167/3 167/168/3 31/169/3 33/170/3 35/171/3 37/172/3 39/173/3 41/34/3 43/33/3 45/174/3 47/175/3 49/176/3 51/177/3 53/178/3 55/179/3 57/70/3 59/69/3 61/180/3
f 175/144/3 15/143/3 17/181/3 19/182/3 21/183/3 23/184/3 25/8/3 27/7/3 29/185/3 31/169/3 167/168/3 165/186/3 164/187/3 176/188/3 170/189/3 173/190/3 174/191/3 172/192/3
f 65/193/26 68/194/26 67/4/26 66/3/26
f 70/6/27 69/5/27 72/10/27 71/9/27
f 74/12/7 73/11/7 76/16/7 75/15/7
f 78/18/28 77/17/28 80/22/28 79/21/28
f 82/24/29 81/23/29 84/28/29 83/27/29
f 86/30/11 85/29/11 88/32/11 87/31/11
f 90/19/16 89/20/16 92/36/16 91/35/16
f 94/38/30 93/37/30 96/42/30 95/41/30
f 98/44/31 97/43/31 100/48/31 99/47/31
f 102/50/20 101/49/20 104/54/20 103/53/20
f 106/51/32 105/52/32 108/13/32 107/14/32
f 110/58/1 109/57/1 112/62/1 111/61/1
f 114/64/33 113/63/33 116/66/33 115/65/33
f 118/68/23 117/67/23 120/72/23 119/71/23
f 122/74/5 121/73/5 124/39/5 123/40/5
f 126/1/34 125/2/34 128/134/34 127/133/34
f 26/121/9 28/120/9 92/120/9 89/121/9
f 9/12/5 10/11/5 73/11/5 74/12/5
f 63/137/3 61/180/3 126/180/3 127/137/3
f 28/36/32 27/35/32 91/35/32 92/36/32
f 11/141/3 9/140/3 74/140/3 75/141/3
f 62/112/9 64/111/9 128/111/9 125/112/9
f 45/58/30 46/57/30 109/57/30 110/58/30
f 10/108/9 12/107/9 76/107/9 73/108/9
f 64/134/28 63/133/28 127/133/28 128/134/28
f 47/175/3 45/174/3 110/174/3 111/175/3
f 12/16/16 11/15/16 75/15/16 76/16/16
f 46/118/9 48/117/9 112/117/9 109/118/9
f 29/38/28 30/37/28 93/37/28 94/38/28
f 48/62/34 47/61/34 111/61/34 112/62/34
f 31/169/3 29/185/3 94/185/3 95/169/3
f 30/119/9 32/132/9 96/132/9 93/119/9
f 13/18/34 14/17/34 77/17/34 78/18/34
f 32/42/1 31/41/1 95/41/1 96/42/1
f 15/143/3 13/142/3 78/142/3 79/143/3
f 49/64/31 50/63/31 113/63/31 114/64/31
f 14/106/9 16/105/9 80/105/9 77/106/9
f 51/177/3 49/176/3 114/176/3 115/177/3
f 16/22/30 15/21/30 79/21/30 80/22/30
f 50/116/9 52/115/9 116/115/9 113/116/9
f 33/44/29 34/43/29 97/43/29 98/44/29
f 52/66/26 51/65/26 115/65/26 116/66/26
f 35/171/3 33/170/3 98/170/3 99/171/3
f 34/131/9 36/130/9 100/130/9 97/131/9
f 17/24/26 18/23/26 81/23/26 82/24/26
f 36/48/33 35/47/33 99/47/33 100/48/33
f 19/182/3 17/181/3 82/181/3 83/182/3
f 53/68/20 54/67/20 117/67/20 118/68/20
f 18/104/9 20/103/9 84/103/9 81/104/9
f 3/139/3 1/138/3 65/138/3 66/139/3
f 55/179/3 53/178/3 118/178/3 119/179/3
f 20/28/31 19/27/31 83/27/31 84/28/31
f 2/110/9 4/109/9 67/109/9 68/110/9
f 54/114/9 56/113/9 120/113/9 117/114/9
f 37/50/11 38/49/11 101/49/11 102/50/11
f 1/136/33 2/135/33 68/135/33 65/136/33
f 56/72/27 55/71/27 119/71/27 120/72/27
f 39/173/3 37/172/3 102/172/3 103/173/3
f 4/4/29 3/3/29 66/3/29 67/4/29
f 38/76/9 40/75/9 104/75/9 101/76/9
f 21/30/27 22/29/27 85/29/27 86/30/27
f 40/54/23 39/53/23 103/53/23 104/54/23
f 23/184/3 21/183/3 86/183/3 87/184/3
f 57/74/32 58/73/32 121/73/32 122/74/32
f 161/195/30 138/195/30 141/195/30 190/195/30
f 158/196/22 152/196/22 170/196/22 176/196/22
f 190/197/13 141/198/13 137/198/13 186/197/13
f 152/199/23 155/199/23 173/200/23 170/200/23
f 178/201/8 129/202/8 130/202/8 179/201/8
f 186/203/16 137/203/16 143/203/16 192/203/16
f 155/204/21 156/204/21 174/204/21 173/204/21
f 179/205/28 130/205/28 135/205/28 184/205/28
f 192/206/12 143/206/12 132/206/12 181/206/12
f 156/207/33 154/207/33 172/208/33 174/208/33
f 184/209/6 135/209/6 133/209/6 182/209/6
f 181/210/11 132/210/11 134/210/11 183/210/11
f 154/211/19 157/211/19 175/211/19 172/211/19
f 182/212/7 133/212/7 142/212/7 191/212/7
f 183/213/10 134/213/10 131/213/10 180/213/10
f 157/214/1 159/214/1 177/214/1 175/214/1
f 142/215/4 136/215/4 185/215/4 191/215/4
f 180/216/29 131/216/29 129/216/29 178/216/29
f 159/217/18 153/217/18 171/217/18 177/217/18
f 136/218/27 144/218/27 189/219/27 185/219/27
f 153/220/32 151/220/32 169/220/32 171/220/32
f 144/221/2 147/221/2 188/221/2 189/221/2
f 169/222/17 151/222/17 160/222/17 168/222/17
f 147/223/26 145/223/26 187/223/26 188/223/26
f 168/224/20 160/224/20 150/224/20 166/224/20
f 145/225/25 146/225/25 167/225/25 187/225/25
f 166/226/15 150/226/15 139/226/15 163/226/15
f 146/227/34 149/227/34 165/227/34 167/227/34
f 163/228/31 139/228/31 140/228/31 162/228/31
f 149/229/24 148/229/24 164/229/24 165/229/24
f 162/230/14 140/230/14 138/230/14 161/230/14
f 148/231/5 158/231/5 176/231/5 164/231/5
