# Blender 4.5.4 LTS
# www.blender.org
mtllib hari2.mtl
o 立方体
v -1.580433 0.010435 0.020150
v -1.580433 -0.010435 0.020150
v -1.580433 0.010435 -0.020150
v -1.580433 -0.010435 -0.020150
v 0.937307 0.010435 0.020150
v 0.937307 -0.010435 0.020150
v 0.937307 0.010435 -0.020150
v 0.937307 -0.010435 -0.020150
v -1.580433 -0.006957 0.026867
v -1.580433 -0.006957 -0.026867
v 1.217056 -0.006957 -0.026867
v 1.217056 -0.006957 0.026867
v -1.580433 0.006957 -0.026867
v 1.217056 0.006957 -0.026867
v 1.217056 0.006957 0.026867
v -1.580433 0.006957 0.026867
v -1.020936 0.010435 -0.026867
v -1.020936 -0.010435 -0.026867
v -1.020936 0.010435 0.026867
v -1.020936 -0.010435 0.026867
v -1.020936 -0.006957 0.040300
v -1.020936 -0.006957 -0.040300
v -1.020936 0.006957 -0.040300
v -1.020936 0.006957 0.040300
v -1.580433 0.010435 0.000000
v -1.580433 -0.010000 0.025716
v -1.580433 -0.010435 -0.000000
v -1.580433 0.010000 -0.025716
v -1.510496 0.010435 -0.025716
v 0.061796 -0.010435 -0.025716
v 1.169136 0.010000 -0.025716
v 1.121216 0.010435 -0.000000
v 1.121216 -0.010435 -0.000000
v 1.169136 0.010000 0.025716
v 0.061796 0.010435 0.025716
v -1.510496 -0.010435 0.025716
v -1.580433 0.000000 0.026867
v -1.580433 -0.010000 -0.025716
v 1.169136 -0.010000 -0.025716
v 1.169136 -0.010000 0.025716
v -1.510496 -0.006957 0.038621
v 1.636679 -0.006957 0.000000
v 0.098060 -0.006957 -0.038621
v -1.580433 -0.006957 -0.000000
v -1.580433 0.000000 -0.026867
v 1.217056 0.000000 -0.026867
v 1.217056 0.000000 0.026867
v -1.580433 0.010000 0.025716
v -1.580433 0.006957 -0.000000
v 0.098060 0.006957 -0.038621
v 1.636679 0.006957 0.000000
v -1.510496 0.006957 0.038621
v 0.061796 0.010435 -0.025716
v -1.510496 -0.010435 -0.025716
v -1.510496 0.010435 0.025716
v 0.061796 -0.010435 0.025716
v 0.098060 -0.006957 0.038621
v -1.510496 -0.006957 -0.038621
v -1.510496 0.006957 -0.038621
v 0.098060 0.006957 0.038621
v -1.020936 0.010000 0.038621
v -1.020936 0.010000 -0.038621
v -1.020936 0.000000 -0.040300
v -1.020936 0.000000 0.040300
v -1.020936 -0.010435 0.000000
v -1.020936 0.010435 0.000000
v -1.020936 -0.010000 0.038621
v -1.020936 -0.010000 -0.038621
v -1.580433 -0.010000 0.000000
v 0.088994 -0.010000 -0.037004
v 1.571922 -0.010000 0.000000
v -1.510496 -0.010000 0.037004
v 0.079928 0.010435 -0.000000
v -1.510496 -0.010435 -0.000000
v -1.510496 -0.000000 0.038621
v 1.636679 -0.000000 -0.000000
v 0.098060 -0.000000 -0.038621
v -1.580433 -0.000000 0.000000
v -1.580433 0.010000 -0.000000
v 0.088994 0.010000 -0.037004
v 1.571922 0.010000 0.000000
v -1.510496 0.010000 0.037004
v 0.088994 0.010000 0.037004
v -1.510496 0.010000 -0.037004
v -1.510496 -0.000000 -0.038621
v 0.098060 -0.000000 0.038621
v 0.079928 -0.010435 0.000000
v -1.510496 0.010435 -0.000000
v 0.088994 -0.010000 0.037004
v -1.510496 -0.010000 -0.037004
vn -1.0000 -0.0000 -0.0000
vn -1.0000 -0.0002 -0.0000
vn 0.0013 -0.4777 -0.8785
vn -0.0000 -0.9993 -0.0377
vn 0.0004 -0.9990 -0.0455
vn 0.0092 -0.4837 -0.8752
vn 0.0376 -0.8077 -0.5884
vn 0.0012 -0.9999 -0.0148
vn 0.0012 -0.9999 0.0148
vn 0.0376 -0.8077 0.5884
vn -0.0030 -0.4762 0.8794
vn -0.0001 -0.9993 0.0377
vn -0.0062 -0.9987 0.0515
vn -0.1483 -0.4093 0.9003
vn -0.0000 1.0000 -0.0000
vn -0.0000 -1.0000 -0.0000
vn -0.0034 -0.0000 1.0000
vn -0.1657 -0.0000 0.9862
vn 0.0639 -0.0000 -0.9980
vn 0.0639 -0.0000 0.9980
vn 0.0015 -0.0000 -1.0000
vn 0.0105 -0.0000 -0.9999
vn -0.0000 0.9993 -0.0377
vn 0.0013 0.4777 -0.8785
vn 0.0092 0.4837 -0.8752
vn 0.0004 0.9990 -0.0455
vn 0.0012 0.9999 -0.0148
vn 0.0376 0.8077 -0.5884
vn 0.0376 0.8077 0.5884
vn 0.0012 0.9999 0.0148
vn -0.0001 0.9993 0.0377
vn -0.0030 0.4762 0.8794
vn -0.1483 0.4093 0.9003
vn -0.0062 0.9987 0.0515
vn 0.0004 0.9990 0.0455
vn 0.0092 0.4837 0.8752
vn 0.0013 0.4777 0.8785
vn -0.0000 0.9993 0.0377
vn -0.0062 0.9987 -0.0515
vn -0.1483 0.4093 -0.9003
vn -0.0030 0.4762 -0.8794
vn -0.0001 0.9993 -0.0377
vn -0.1657 -0.0000 -0.9862
vn -0.0034 -0.0000 -1.0000
vn 0.0105 -0.0000 0.9999
vn 0.0015 -0.0000 1.0000
vn 0.0092 -0.4837 0.8752
vn 0.0004 -0.9990 0.0455
vn -0.0000 -0.9993 0.0377
vn 0.0013 -0.4777 0.8785
vn -0.1483 -0.4093 -0.9003
vn -0.0062 -0.9987 -0.0515
vn -0.0001 -0.9993 -0.0377
vn -0.0030 -0.4762 -0.8794
vt 0.625000 0.000000
vt 0.625000 0.000000
vt 0.621528 0.125000
vt 0.590278 0.124132
vt 0.625000 0.125000
vt 0.625000 0.250000
vt 0.625000 0.250000
vt 0.875000 0.500000
vt 0.836806 0.505208
vt 0.750675 0.509356
vt 0.750000 0.500000
vt 0.833333 0.541667
vt 0.752701 0.545235
vt 0.687500 0.562500
vt 0.665895 0.541763
vt 0.625000 0.500000
vt 0.635031 0.625000
vt 0.592014 0.625000
vt 0.673804 0.625000
vt 0.687500 0.687500
vt 0.665895 0.708237
vt 0.625000 0.750000
vt 0.875000 0.750000
vt 0.836806 0.744792
vt 0.870660 0.745660
vt 0.875000 0.750000
vt 0.833333 0.708333
vt 0.869792 0.711806
vt 0.875000 0.750000
vt 0.125000 0.500000
vt 0.250000 0.500000
vt 0.250000 0.625000
vt 0.159722 0.625000
vt 0.375000 0.500000
vt 0.340278 0.625000
vt 0.375000 0.750000
vt 0.250000 0.750000
vt 0.125000 0.750000
vt 0.833333 0.541667
vt 0.869792 0.538194
vt 0.869792 0.625000
vt 0.833333 0.625000
vt 0.875000 0.500000
vt 0.875000 0.625000
vt 0.833333 0.708333
vt 0.416667 0.958333
vt 0.505208 0.961806
vt 0.504340 0.995660
vt 0.413194 0.994792
vt 0.625000 1.000000
vt 0.625000 1.000000
vt 0.500000 1.000000
vt 0.375000 1.000000
vt 0.416667 0.500000
vt 0.504340 0.500000
vt 0.501736 0.625000
vt 0.416667 0.625000
vt 0.504340 0.750000
vt 0.416667 0.750000
vt 0.416667 0.291667
vt 0.505208 0.288194
vt 0.505208 0.379340
vt 0.416667 0.380208
vt 0.625000 0.375000
vt 0.375000 0.000000
vt 0.500000 0.000000
vt 0.500868 0.120660
vt 0.413194 0.119792
vt 0.504340 0.211806
vt 0.416667 0.208333
vt 0.375000 0.000000
vt 0.375000 0.000000
vt 0.379340 0.120660
vt 0.375000 0.125000
vt 0.380208 0.211806
vt 0.375000 0.250000
vt 0.380208 0.288194
vt 0.380208 0.379340
vt 0.375000 0.375000
vt 0.379340 0.500000
vt 0.376736 0.625000
vt 0.379340 0.750000
vt 0.380208 0.961806
vt 0.379340 0.995660
vt 0.375000 1.000000
vt 0.375000 1.000000
vt 0.380208 0.870660
vt 0.375000 0.875000
vt 0.416667 0.869792
vt 0.380208 0.250000
vt 0.375000 0.250000
vt 0.416667 0.250000
vt 0.505208 0.250000
vt 0.505208 0.870660
vt 0.625000 0.875000
vt 0.752701 0.545235
vt 0.751350 0.625000
vt 0.752701 0.704765
vt 0.125000 0.500000
vt 0.128472 0.625000
vt 0.125000 0.625000
vt 0.125000 0.750000
vt 0.125000 0.750000
vt 0.750675 0.740644
vt 0.750000 0.750000
vt 0.875000 0.500000
vt 0.870660 0.504340
vt 0.869792 0.538194
s 0
usemtl マテリアル
f 9/1/1 44/4/1 69/3/1 26/2/1
f 26/2/2 69/3/2 27/5/2 2/2/2
f 69/3/1 38/6/1 4/6/1 27/5/1
f 44/4/1 10/7/1 38/6/1 69/3/1
f 22/8/3 43/11/3 70/10/3 68/9/3
f 68/9/4 70/10/4 30/13/4 18/12/4
f 70/10/5 39/15/5 8/14/5 30/13/5
f 43/11/6 11/16/6 39/15/6 70/10/6
f 11/16/7 42/18/7 71/17/7 39/15/7
f 39/15/8 71/17/8 33/19/8 8/14/8
f 71/17/9 40/21/9 6/20/9 33/19/9
f 42/18/10 12/22/10 40/21/10 71/17/10
f 21/23/11 41/26/11 72/25/11 67/24/11
f 67/24/12 72/25/12 36/28/12 20/27/12
f 72/25/13 26/26/13 2/23/13 36/28/13
f 41/26/14 9/29/14 26/26/14 72/25/14
f 17/30/15 66/33/15 73/32/15 53/31/15
f 53/31/15 73/32/15 32/35/15 7/34/15
f 73/32/15 35/37/15 5/36/15 32/35/15
f 66/33/15 19/38/15 35/37/15 73/32/15
f 18/39/16 65/42/16 74/41/16 54/40/16
f 54/40/16 74/41/16 27/44/16 4/43/16
f 74/41/16 36/28/16 2/23/16 27/44/16
f 65/42/16 20/45/16 36/28/16 74/41/16
f 24/46/17 52/49/17 75/48/17 64/47/17
f 64/47/17 75/48/17 41/51/17 21/50/17
f 75/48/18 37/52/18 9/51/18 41/51/18
f 52/49/18 16/53/18 37/52/18 75/48/18
f 14/54/19 51/57/19 76/56/19 46/55/19
f 46/55/19 76/56/19 42/18/19 11/16/19
f 76/56/20 47/58/20 12/22/20 42/18/20
f 51/57/20 15/59/20 47/58/20 76/56/20
f 23/60/21 50/63/21 77/62/21 63/61/21
f 63/61/21 77/62/21 43/64/21 22/7/21
f 77/62/22 46/55/22 11/16/22 43/64/22
f 50/63/22 14/54/22 46/55/22 77/62/22
f 16/65/1 49/68/1 78/67/1 37/66/1
f 37/66/1 78/67/1 44/4/1 9/1/1
f 78/67/1 45/69/1 10/7/1 44/4/1
f 49/68/1 13/70/1 45/69/1 78/67/1
f 1/71/1 25/74/1 79/73/1 48/72/1
f 48/72/1 79/73/1 49/68/1 16/65/1
f 79/73/1 28/75/1 13/70/1 49/68/1
f 25/74/1 3/76/1 28/75/1 79/73/1
f 17/76/23 53/79/23 80/78/23 62/77/23
f 62/77/24 80/78/24 50/63/24 23/60/24
f 80/78/25 31/80/25 14/54/25 50/63/25
f 53/79/26 7/34/26 31/80/26 80/78/26
f 7/34/27 32/35/27 81/81/27 31/80/27
f 31/80/28 81/81/28 51/57/28 14/54/28
f 81/81/29 34/82/29 15/59/29 51/57/29
f 32/35/30 5/36/30 34/82/30 81/81/30
f 19/53/31 55/85/31 82/84/31 61/83/31
f 61/83/32 82/84/32 52/49/32 24/46/32
f 82/84/33 48/85/33 16/53/33 52/49/33
f 55/85/34 1/86/34 48/85/34 82/84/34
f 5/36/35 35/88/35 83/87/35 34/82/35
f 34/82/36 83/87/36 60/89/36 15/59/36
f 83/87/37 61/83/37 24/46/37 60/89/37
f 35/88/38 19/53/38 61/83/38 83/87/38
f 3/76/39 29/91/39 84/90/39 28/75/39
f 28/75/40 84/90/40 59/92/40 13/70/40
f 84/90/41 62/77/41 23/60/41 59/92/41
f 29/91/42 17/76/42 62/77/42 84/90/42
f 13/70/43 59/92/43 85/93/43 45/69/43
f 45/69/43 85/93/43 58/6/43 10/7/43
f 85/93/44 63/61/44 22/7/44 58/6/44
f 59/92/44 23/60/44 63/61/44 85/93/44
f 15/59/45 60/89/45 86/94/45 47/58/45
f 47/58/45 86/94/45 57/95/45 12/22/45
f 86/94/46 64/47/46 21/50/46 57/95/46
f 60/89/46 24/46/46 64/47/46 86/94/46
f 8/14/16 33/19/16 87/97/16 30/96/16
f 30/96/16 87/97/16 65/42/16 18/39/16
f 87/97/16 56/98/16 20/45/16 65/42/16
f 33/19/16 6/20/16 56/98/16 87/97/16
f 3/99/15 25/101/15 88/100/15 29/99/15
f 29/99/15 88/100/15 66/33/15 17/30/15
f 88/100/15 55/102/15 19/38/15 66/33/15
f 25/101/15 1/103/15 55/102/15 88/100/15
f 12/22/47 57/105/47 89/104/47 40/21/47
f 40/21/48 89/104/48 56/98/48 6/20/48
f 89/104/49 67/24/49 20/27/49 56/98/49
f 57/105/50 21/23/50 67/24/50 89/104/50
f 10/106/51 58/106/51 90/107/51 38/106/51
f 38/106/52 90/107/52 54/108/52 4/43/52
f 90/107/53 68/9/53 18/12/53 54/108/53
f 58/106/54 22/8/54 68/9/54 90/107/54
