# Blender 4.5.3 LTS
# www.blender.org
mtllib gia.mtl
o 円柱.010
v 0.007046 0.652647 -0.527114
v 0.007046 0.667119 -0.527114
v 0.111652 0.652647 -0.516812
v 0.111652 0.667119 -0.516812
v 0.212238 0.652647 -0.486299
v 0.212238 0.667119 -0.486299
v 0.304938 0.652647 -0.436750
v 0.304938 0.667119 -0.436750
v 0.386190 0.652647 -0.370068
v 0.386190 0.667119 -0.370068
v 0.452873 0.652647 -0.288815
v 0.452873 0.667119 -0.288815
v 0.502422 0.652647 -0.196115
v 0.502422 0.667119 -0.196115
v 0.532934 0.652647 -0.095529
v 0.532934 0.667119 -0.095529
v 0.543237 0.652647 0.009076
v 0.543237 0.667119 0.009076
v 0.532934 0.652647 0.113682
v 0.532934 0.667119 0.113682
v 0.502422 0.652647 0.214268
v 0.502422 0.667119 0.214268
v 0.452873 0.652647 0.306968
v 0.452873 0.667119 0.306968
v 0.386190 0.652647 0.388221
v 0.386190 0.667119 0.388221
v 0.304938 0.652647 0.454903
v 0.304938 0.667119 0.454903
v 0.212238 0.652647 0.504452
v 0.212238 0.667119 0.504452
v 0.111652 0.652647 0.534964
v 0.111652 0.667119 0.534964
v 0.007046 0.652647 0.545267
v 0.007046 0.667119 0.545267
v -0.097559 0.652647 0.534964
v -0.097559 0.667119 0.534964
v -0.198145 0.652647 0.504452
v -0.198145 0.667119 0.504452
v -0.290845 0.652647 0.454903
v -0.290845 0.667119 0.454903
v -0.372098 0.652647 0.388221
v -0.372098 0.667119 0.388221
v -0.438780 0.652647 0.306968
v -0.438780 0.667119 0.306968
v -0.488329 0.652647 0.214268
v -0.488329 0.667119 0.214268
v -0.518842 0.652647 0.113682
v -0.518842 0.667119 0.113682
v -0.529145 0.652647 0.009076
v -0.529145 0.667119 0.009076
v -0.518842 0.652647 -0.095529
v -0.518842 0.667119 -0.095529
v -0.488329 0.652647 -0.196115
v -0.488329 0.667119 -0.196115
v -0.438780 0.652647 -0.288815
v -0.438780 0.667119 -0.288815
v -0.372098 0.652647 -0.370068
v -0.372098 0.667119 -0.370068
v -0.290845 0.652647 -0.436750
v -0.290845 0.667119 -0.436750
v -0.198145 0.652647 -0.486299
v -0.198145 0.667119 -0.486299
v -0.097559 0.652647 -0.516812
v -0.097559 0.667119 -0.516812
v -0.131088 0.652647 0.524794
v -0.164617 0.652647 0.514623
v -0.164617 0.667119 0.514623
v -0.131088 0.667119 0.524794
v -0.027822 0.652647 0.541833
v -0.062691 0.652647 0.538399
v -0.062691 0.667119 0.538399
v -0.027822 0.667119 0.541833
v 0.076783 0.652647 0.538399
v 0.041915 0.652647 0.541833
v 0.041915 0.667119 0.541833
v 0.076783 0.667119 0.538399
v 0.178709 0.652647 0.514623
v 0.145180 0.652647 0.524794
v 0.145180 0.667119 0.524794
v 0.178709 0.667119 0.514623
v 0.274038 0.652647 0.471419
v 0.243138 0.652647 0.487936
v 0.243138 0.667119 0.487936
v 0.274038 0.667119 0.471419
v 0.359106 0.652647 0.410448
v 0.332022 0.652647 0.432675
v 0.332022 0.667119 0.432675
v 0.359106 0.667119 0.410448
v -0.229045 0.652647 0.487936
v -0.259945 0.652647 0.471419
v -0.259945 0.667119 0.471419
v -0.229045 0.667119 0.487936
v -0.317930 0.652647 0.432675
v -0.345014 0.652647 0.410448
v -0.345014 0.667119 0.410448
v -0.317930 0.667119 0.432675
v -0.394325 0.652647 0.361136
v -0.416553 0.652647 0.334052
v -0.416553 0.667119 0.334052
v -0.394325 0.667119 0.361136
v -0.455297 0.652647 0.276068
v -0.471813 0.652647 0.245168
v -0.471813 0.667119 0.245168
v -0.455297 0.667119 0.276068
v 0.430645 0.652647 0.334052
v 0.408418 0.652647 0.361136
v 0.408418 0.667119 0.361136
v 0.430645 0.667119 0.334052
v 0.485905 0.652647 0.245168
v 0.469389 0.652647 0.276068
v 0.469389 0.667119 0.276068
v 0.485905 0.667119 0.245168
v 0.522763 0.652647 0.147211
v 0.512593 0.652647 0.180739
v 0.512593 0.667119 0.180739
v 0.522763 0.667119 0.147211
v 0.539803 0.652647 0.043945
v 0.536368 0.652647 0.078813
v 0.536368 0.667119 0.078813
v 0.539803 0.667119 0.043945
v 0.536368 0.652647 -0.060661
v 0.539803 0.652647 -0.025792
v 0.539803 0.667119 -0.025792
v 0.536368 0.667119 -0.060661
v 0.512593 0.652647 -0.162586
v 0.522763 0.652647 -0.129058
v 0.522763 0.667119 -0.129058
v 0.512593 0.667119 -0.162586
v 0.469389 0.652647 -0.257915
v 0.485905 0.652647 -0.227015
v 0.485905 0.667119 -0.227015
v 0.469389 0.667119 -0.257915
v 0.408418 0.652647 -0.342984
v 0.430645 0.652647 -0.315899
v 0.430645 0.667119 -0.315899
v 0.408418 0.667119 -0.342984
v 0.332022 0.652647 -0.414523
v 0.359106 0.652647 -0.392295
v 0.359106 0.667119 -0.392295
v 0.332022 0.667119 -0.414523
v 0.243138 0.652647 -0.469783
v 0.274038 0.652647 -0.453266
v 0.274038 0.667119 -0.453266
v 0.243138 0.667119 -0.469783
v 0.145180 0.652647 -0.506641
v 0.178709 0.652647 -0.496470
v 0.178709 0.667119 -0.496470
v 0.145180 0.667119 -0.506641
v 0.041915 0.652647 -0.523680
v 0.076783 0.652647 -0.520246
v 0.076783 0.667119 -0.520246
v 0.041915 0.667119 -0.523680
v -0.062691 0.652647 -0.520246
v -0.027822 0.652647 -0.523680
v -0.027822 0.667119 -0.523680
v -0.062691 0.667119 -0.520246
v -0.164617 0.652647 -0.496470
v -0.131088 0.652647 -0.506641
v -0.131088 0.667119 -0.506641
v -0.164617 0.667119 -0.496470
v -0.259945 0.652647 -0.453266
v -0.229045 0.652647 -0.469783
v -0.229045 0.667119 -0.469783
v -0.259945 0.667119 -0.453266
v -0.345014 0.652647 -0.392295
v -0.317930 0.652647 -0.414523
v -0.317930 0.667119 -0.414523
v -0.345014 0.667119 -0.392295
v -0.416553 0.652647 -0.315899
v -0.394325 0.652647 -0.342984
v -0.394325 0.667119 -0.342984
v -0.416553 0.667119 -0.315899
v -0.471813 0.652647 -0.227015
v -0.455297 0.652647 -0.257915
v -0.455297 0.667119 -0.257915
v -0.471813 0.667119 -0.227015
v -0.508671 0.652647 -0.129058
v -0.498500 0.652647 -0.162586
v -0.498500 0.667119 -0.162586
v -0.508671 0.667119 -0.129058
v -0.525710 0.652647 -0.025792
v -0.522276 0.652647 -0.060661
v -0.522276 0.667119 -0.060661
v -0.525710 0.667119 -0.025792
v -0.522276 0.652647 0.078813
v -0.525710 0.652647 0.043945
v -0.525710 0.667119 0.043945
v -0.522276 0.667119 0.078813
v -0.498500 0.652647 0.180739
v -0.508671 0.652647 0.147211
v -0.508671 0.667119 0.147211
v -0.498500 0.667119 0.180739
v 0.079396 0.652647 -0.546771
v 0.114264 0.652647 -0.543337
v 0.044527 0.667119 -0.550206
v 0.009659 0.667119 -0.553640
v 0.009659 0.652647 -0.553640
v 0.114264 0.667119 -0.543337
v 0.224802 0.667119 -0.509806
v 0.224802 0.652647 -0.509806
v 0.286602 0.652647 -0.476773
v 0.317502 0.652647 -0.460257
v 0.255702 0.667119 -0.493289
v 0.317502 0.667119 -0.460257
v 0.406794 0.667119 -0.386977
v 0.406794 0.652647 -0.386977
v 0.451249 0.652647 -0.332808
v 0.473476 0.652647 -0.305724
v 0.429021 0.667119 -0.359893
v 0.473476 0.667119 -0.305724
v 0.527928 0.667119 -0.203852
v 0.527928 0.652647 -0.203852
v 0.548270 0.652647 -0.136795
v 0.558440 0.652647 -0.103266
v 0.538099 0.667119 -0.170324
v 0.558440 0.667119 -0.103266
v 0.569762 0.667119 0.011689
v 0.569762 0.652647 0.011689
v 0.562894 0.652647 0.081426
v 0.559460 0.652647 0.116295
v 0.566328 0.667119 0.046557
v 0.559460 0.667119 0.116295
v 0.525928 0.667119 0.226832
v 0.525928 0.652647 0.226832
v 0.492896 0.652647 0.288632
v 0.476379 0.652647 0.319533
v 0.509412 0.667119 0.257732
v 0.476379 0.667119 0.319533
v 0.403099 0.667119 0.408824
v 0.403099 0.652647 0.408824
v 0.348931 0.652647 0.453279
v 0.321847 0.652647 0.475506
v 0.376015 0.667119 0.431052
v 0.321847 0.667119 0.475506
v 0.219975 0.667119 0.529958
v 0.219975 0.652647 0.529958
v 0.152918 0.652647 0.550300
v 0.119389 0.652647 0.560470
v 0.186446 0.667119 0.540129
v 0.119389 0.667119 0.560470
v 0.004434 0.667119 0.571793
v 0.004434 0.652647 0.571793
v -0.065303 0.652647 0.564924
v -0.100172 0.652647 0.561490
v -0.030435 0.667119 0.568358
v -0.100172 0.667119 0.561490
v -0.210710 0.667119 0.527959
v -0.210710 0.652647 0.527959
v -0.272510 0.652647 0.494926
v -0.303410 0.652647 0.478409
v -0.241610 0.667119 0.511442
v -0.303410 0.667119 0.478409
v -0.392702 0.667119 0.405129
v -0.392702 0.652647 0.405129
v -0.437156 0.652647 0.350961
v -0.459384 0.652647 0.323877
v -0.414929 0.667119 0.378045
v -0.459384 0.667119 0.323877
v -0.513836 0.667119 0.222005
v -0.513836 0.652647 0.222005
v -0.534177 0.652647 0.154948
v -0.544348 0.652647 0.121419
v -0.524006 0.667119 0.188476
v -0.544348 0.667119 0.121419
v -0.555670 0.667119 0.006464
v -0.555670 0.652647 0.006464
v -0.548802 0.652647 -0.063273
v -0.545367 0.652647 -0.098142
v -0.552236 0.667119 -0.028405
v -0.545367 0.667119 -0.098142
v -0.511836 0.667119 -0.208680
v -0.511836 0.652647 -0.208680
v -0.478803 0.652647 -0.270480
v -0.462287 0.652647 -0.301380
v -0.495320 0.667119 -0.239580
v -0.462287 0.667119 -0.301380
v -0.389007 0.667119 -0.390671
v -0.389007 0.652647 -0.390671
v -0.334839 0.652647 -0.435126
v -0.307754 0.652647 -0.457354
v -0.361923 0.667119 -0.412899
v -0.307754 0.667119 -0.457354
v -0.205882 0.667119 -0.511805
v -0.205882 0.652647 -0.511805
v -0.138825 0.652647 -0.532147
v -0.105297 0.652647 -0.542318
v -0.172354 0.667119 -0.521976
v -0.105297 0.667119 -0.542318
v -0.138825 0.652647 0.550300
v -0.172354 0.652647 0.540129
v -0.172354 0.667119 0.540129
v -0.138825 0.667119 0.550300
v -0.030435 0.652647 0.568358
v -0.065303 0.667119 0.564924
v 0.079396 0.652647 0.564924
v 0.044527 0.652647 0.568358
v 0.044527 0.667119 0.568358
v 0.079396 0.667119 0.564924
v 0.186446 0.652647 0.540129
v 0.152918 0.667119 0.550300
v 0.286602 0.652647 0.494926
v 0.255702 0.652647 0.511442
v 0.255702 0.667119 0.511442
v 0.286602 0.667119 0.494926
v 0.376015 0.652647 0.431052
v 0.348931 0.667119 0.453279
v -0.241610 0.652647 0.511442
v -0.272510 0.667119 0.494926
v -0.334839 0.652647 0.453279
v -0.361923 0.652647 0.431052
v -0.361923 0.667119 0.431052
v -0.334839 0.667119 0.453279
v -0.414929 0.652647 0.378045
v -0.437156 0.667119 0.350961
v -0.478803 0.652647 0.288632
v -0.495320 0.652647 0.257732
v -0.495320 0.667119 0.257732
v -0.478803 0.667119 0.288632
v 0.451249 0.652647 0.350961
v 0.429021 0.652647 0.378045
v 0.429021 0.667119 0.378045
v 0.451249 0.667119 0.350961
v 0.509412 0.652647 0.257732
v 0.492896 0.667119 0.288632
v 0.548270 0.652647 0.154948
v 0.538099 0.652647 0.188476
v 0.538099 0.667119 0.188476
v 0.548270 0.667119 0.154948
v 0.566328 0.652647 0.046557
v 0.562894 0.667119 0.081426
v 0.562894 0.652647 -0.063273
v 0.566328 0.652647 -0.028405
v 0.566328 0.667119 -0.028405
v 0.562894 0.667119 -0.063273
v 0.538099 0.652647 -0.170324
v 0.548270 0.667119 -0.136795
v 0.492896 0.652647 -0.270480
v 0.509412 0.652647 -0.239580
v 0.509412 0.667119 -0.239580
v 0.492896 0.667119 -0.270480
v 0.429021 0.652647 -0.359893
v 0.451249 0.667119 -0.332808
v 0.348931 0.652647 -0.435126
v 0.376015 0.652647 -0.412899
v 0.376015 0.667119 -0.412899
v 0.348931 0.667119 -0.435126
v 0.255702 0.652647 -0.493289
v 0.286602 0.667119 -0.476773
v 0.152918 0.652647 -0.532147
v 0.186446 0.652647 -0.521976
v 0.186446 0.667119 -0.521976
v 0.152918 0.667119 -0.532147
v 0.044527 0.652647 -0.550206
v 0.079396 0.667119 -0.546771
v -0.065303 0.652647 -0.546771
v -0.030435 0.652647 -0.550206
v -0.030435 0.667119 -0.550206
v -0.065303 0.667119 -0.546771
v -0.172354 0.652647 -0.521976
v -0.138825 0.667119 -0.532147
v -0.272510 0.652647 -0.476773
v -0.241610 0.652647 -0.493289
v -0.241610 0.667119 -0.493289
v -0.272510 0.667119 -0.476773
v -0.361923 0.652647 -0.412899
v -0.334839 0.667119 -0.435126
v -0.437156 0.652647 -0.332808
v -0.414929 0.652647 -0.359893
v -0.414929 0.667119 -0.359893
v -0.437156 0.667119 -0.332808
v -0.495320 0.652647 -0.239580
v -0.478803 0.667119 -0.270480
v -0.534177 0.652647 -0.136795
v -0.524006 0.652647 -0.170324
v -0.524006 0.667119 -0.170324
v -0.534177 0.667119 -0.136795
v -0.552236 0.652647 -0.028405
v -0.548802 0.667119 -0.063273
v -0.548802 0.652647 0.081426
v -0.552236 0.652647 0.046557
v -0.552236 0.667119 0.046557
v -0.548802 0.667119 0.081426
v -0.524006 0.652647 0.188476
v -0.534177 0.667119 0.154948
v -0.018515 0.667119 0.010274
v -0.017985 0.667119 0.015657
v -0.017985 0.667119 0.004891
v -0.013865 0.667119 0.025603
v -0.016415 0.667119 0.020833
v -0.013865 0.667119 -0.005055
v -0.016415 0.667119 -0.000285
v -0.006252 0.667119 0.033216
v -0.006252 0.667119 -0.012668
v 0.009077 0.667119 0.037866
v 0.003694 0.667119 0.037335
v -0.001482 0.667119 0.035765
v -0.001482 0.667119 -0.015218
v -0.010434 0.667119 0.029784
v -0.010434 0.667119 -0.009237
v 0.003694 0.667119 -0.016788
v 0.009077 0.667119 -0.017318
v 0.024406 0.667119 -0.012668
v 0.019636 0.667119 0.035765
v 0.019636 0.667119 -0.015218
v 0.014460 0.667119 0.037335
v 0.014460 0.667119 -0.016788
v 0.028587 0.667119 0.029784
v 0.032019 0.667119 0.025603
v 0.032019 0.667119 -0.005055
v 0.036669 0.667119 0.010274
v 0.036138 0.667119 0.015657
v 0.036138 0.667119 0.004891
v 0.034568 0.667119 -0.000285
v 0.034568 0.667119 0.020833
v 0.028587 0.667119 -0.009237
v 0.024406 0.667119 0.033216
v -0.018515 0.652647 0.010274
v -0.017985 0.652647 0.015657
v -0.016415 0.652647 0.020833
v -0.013865 0.652647 0.025603
v -0.001482 0.652647 0.035765
v -0.006252 0.652647 0.033216
v -0.010434 0.652647 0.029784
v 0.009077 0.652647 0.037866
v 0.019636 0.652647 0.035765
v 0.014460 0.652647 0.037335
v 0.032019 0.652647 0.025603
v 0.028587 0.652647 0.029784
v 0.036138 0.652647 0.015657
v 0.034568 0.652647 0.020833
v 0.024406 0.652647 0.033216
v 0.003694 0.652647 0.037335
v -0.017985 0.652647 0.004891
v -0.013865 0.652647 -0.005055
v -0.016415 0.652647 -0.000285
v -0.010434 0.652647 -0.009237
v -0.006252 0.652647 -0.012668
v 0.009077 0.652647 -0.017318
v 0.003694 0.652647 -0.016788
v -0.001482 0.652647 -0.015218
v 0.019636 0.652647 -0.015218
v 0.028587 0.652647 -0.009237
v 0.024406 0.652647 -0.012668
v 0.036138 0.652647 0.004891
v 0.034568 0.652647 -0.000285
v 0.036669 0.652647 0.010274
v 0.032019 0.652647 -0.005055
v 0.014460 0.652647 -0.016788
vn -0.0000 1.0000 -0.0000
vn 0.2903 -0.0000 -0.9569
vn -0.0000 -1.0000 -0.0000
vn 0.6344 -0.0000 -0.7730
vn -0.2903 -0.0000 -0.9569
vn 0.8819 -0.0000 -0.4714
vn -0.0980 -0.0000 0.9952
vn 0.9952 -0.0000 -0.0980
vn 0.9569 -0.0000 0.2903
vn 0.7730 -0.0000 0.6344
vn 0.0980 -0.0000 -0.9952
vn 0.4714 -0.0000 0.8819
vn 0.0980 -0.0000 0.9952
vn -0.2903 -0.0000 0.9569
vn -0.6344 -0.0000 0.7730
vn 0.9569 -0.0000 -0.2903
vn -0.8819 -0.0000 0.4714
vn -0.9952 -0.0000 0.0980
vn -0.9569 -0.0000 -0.2903
vn -0.9569 -0.0000 0.2903
vn -0.7730 -0.0000 -0.6344
vn 0.6344 -0.0000 0.7730
vn -0.4714 -0.0000 -0.8819
vn -0.0980 -0.0000 -0.9952
vn 0.2903 -0.0000 0.9569
vn -0.4714 -0.0000 0.8819
vn 0.4714 -0.0000 -0.8819
vn -0.7730 -0.0000 0.6344
vn -0.6344 -0.0000 -0.7730
vn 0.8819 -0.0000 0.4714
vn 0.9952 -0.0000 0.0980
vn 0.7730 -0.0000 -0.6344
vn -0.8819 -0.0000 -0.4714
vn -0.9952 -0.0000 -0.0980
vt 0.281214 0.486926
vt 0.296822 0.485388
vt 0.947917 0.500000
vt 0.947917 1.000000
vt 0.937500 1.000000
vt 0.937500 0.500000
vt 0.855675 0.035662
vt 0.869506 0.043055
vt 0.885417 0.500000
vt 0.885417 1.000000
vt 0.875000 1.000000
vt 0.875000 0.500000
vt 0.812500 0.500000
vt 0.812500 1.000000
vt 0.822917 0.500000
vt 0.822917 1.000000
vt 0.229167 0.500000
vt 0.229167 1.000000
vt 0.760417 0.500000
vt 0.760417 1.000000
vt 0.750000 1.000000
vt 0.750000 0.500000
vt 0.708333 0.500000
vt 0.708333 1.000000
vt 0.697917 0.500000
vt 0.697917 1.000000
vt 0.687500 1.000000
vt 0.687500 0.500000
vt 0.281250 1.000000
vt 0.281250 0.500000
vt 0.635417 0.500000
vt 0.635417 1.000000
vt 0.625000 1.000000
vt 0.625000 0.500000
vt 0.239583 1.000000
vt 0.239583 0.500000
vt 0.572917 0.500000
vt 0.572917 1.000000
vt 0.562500 1.000000
vt 0.562500 0.500000
vt 0.480836 0.188171
vt 0.476284 0.173163
vt 0.510417 0.500000
vt 0.510417 1.000000
vt 0.500000 1.000000
vt 0.500000 0.500000
vt 0.028269 0.158156
vt 0.023716 0.173163
vt 0.447917 0.500000
vt 0.447917 1.000000
vt 0.437500 1.000000
vt 0.437500 0.500000
vt 0.765607 0.488463
vt 0.750000 0.490000
vt 0.385417 0.500000
vt 0.385417 1.000000
vt 0.375000 1.000000
vt 0.375000 0.500000
vt 0.541667 0.500000
vt 0.541667 1.000000
vt 0.322917 0.500000
vt 0.322917 1.000000
vt 0.312500 1.000000
vt 0.312500 0.500000
vt 0.514612 0.203178
vt 0.519164 0.188171
vt 0.260417 0.500000
vt 0.260417 1.000000
vt 0.250000 1.000000
vt 0.250000 0.500000
vt 0.197917 0.500000
vt 0.197917 1.000000
vt 0.187500 1.000000
vt 0.187500 0.500000
vt 0.552083 1.000000
vt 0.552083 0.500000
vt 0.135417 0.500000
vt 0.135417 1.000000
vt 0.125000 1.000000
vt 0.125000 0.500000
vt 0.843750 1.000000
vt 0.843750 0.500000
vt 0.072917 0.500000
vt 0.072917 1.000000
vt 0.062500 1.000000
vt 0.062500 0.500000
vt 0.070345 0.092417
vt 0.080294 0.080294
vt 0.092417 0.070345
vt 0.104540 0.060396
vt 0.116663 0.050447
vt 0.130494 0.043055
vt 0.144325 0.035662
vt 0.158156 0.028269
vt 0.173163 0.023716
vt 0.188171 0.019164
vt 0.203178 0.014612
vt 0.218786 0.013074
vt 0.234393 0.011537
vt 0.250000 0.010000
vt 0.265607 0.011537
vt 0.281214 0.013074
vt 0.253318 0.237351
vt 0.250909 0.237114
vt 0.248499 0.237351
vt 0.246183 0.238054
vt 0.244048 0.239195
vt 0.242176 0.240731
vt 0.240640 0.242603
vt 0.239499 0.244738
vt 0.238796 0.247055
vt 0.238559 0.249464
vt 0.238796 0.251873
vt 0.239499 0.254190
vt 0.240640 0.256325
vt 0.242176 0.258197
vt 0.244047 0.259733
vt 0.246183 0.260874
vt 0.248499 0.261577
vt 0.250909 0.261814
vt 0.253318 0.261577
vt 0.255635 0.260874
vt 0.257770 0.259733
vt 0.259642 0.258197
vt 0.261178 0.256325
vt 0.262319 0.254190
vt 0.263022 0.251873
vt 0.486926 0.281214
vt 0.485388 0.296822
vt 0.480836 0.311829
vt 0.476284 0.326837
vt 0.471731 0.341844
vt 0.464338 0.355675
vt 0.456945 0.369506
vt 0.449553 0.383337
vt 0.439604 0.395460
vt 0.429655 0.407583
vt 0.419706 0.419706
vt 0.407583 0.429655
vt 0.395460 0.439604
vt 0.383337 0.449553
vt 0.369506 0.456945
vt 0.355675 0.464338
vt 0.341844 0.471731
vt 0.326837 0.476284
vt 0.311829 0.480836
vt 0.265607 0.488463
vt 0.250000 0.490000
vt 0.234393 0.488463
vt 0.218786 0.486926
vt 0.203178 0.485388
vt 0.188171 0.480836
vt 0.173163 0.476284
vt 0.158156 0.471731
vt 0.144325 0.464338
vt 0.130494 0.456945
vt 0.116663 0.449553
vt 0.104540 0.439604
vt 0.092417 0.429655
vt 0.080294 0.419706
vt 0.070345 0.407583
vt 0.060396 0.395460
vt 0.050447 0.383337
vt 0.043055 0.369506
vt 0.035662 0.355675
vt 0.028269 0.341844
vt 0.023716 0.326837
vt 0.019164 0.311829
vt 0.014612 0.296822
vt 0.013074 0.281214
vt 0.011537 0.265607
vt 0.010000 0.250000
vt 0.011537 0.234393
vt 0.013074 0.218786
vt 0.014612 0.203178
vt 0.019164 0.188171
vt 0.035662 0.144325
vt 0.043055 0.130494
vt 0.050447 0.116663
vt 0.060396 0.104540
vt 0.296822 0.014612
vt 0.311829 0.019164
vt 0.326837 0.023716
vt 0.341844 0.028269
vt 0.355675 0.035662
vt 0.369506 0.043055
vt 0.383337 0.050447
vt 0.395460 0.060396
vt 0.407583 0.070345
vt 0.419706 0.080294
vt 0.429655 0.092417
vt 0.439604 0.104540
vt 0.449553 0.116663
vt 0.456945 0.130494
vt 0.464338 0.144325
vt 0.471731 0.158156
vt 0.485388 0.203178
vt 0.486926 0.218786
vt 0.488463 0.234393
vt 0.490000 0.250000
vt 0.488463 0.265607
vt 0.263259 0.249464
vt 0.263022 0.247055
vt 0.262319 0.244738
vt 0.261178 0.242603
vt 0.259642 0.240731
vt 0.257770 0.239195
vt 0.255635 0.238054
vt 0.010417 0.500000
vt 0.010417 1.000000
vt 0.000000 1.000000
vt 0.000000 0.500000
vt 0.907583 0.070345
vt 0.895460 0.060396
vt 0.883337 0.050447
vt 0.841844 0.028269
vt 0.826837 0.023716
vt 0.811829 0.019164
vt 0.796822 0.014612
vt 0.781214 0.013074
vt 0.765607 0.011537
vt 0.750000 0.010000
vt 0.734393 0.011537
vt 0.718785 0.013074
vt 0.748499 0.237351
vt 0.750909 0.237114
vt 0.753318 0.237351
vt 0.755635 0.238054
vt 0.757770 0.239195
vt 0.759642 0.240731
vt 0.761178 0.242603
vt 0.762319 0.244738
vt 0.763021 0.247055
vt 0.986926 0.218786
vt 0.985388 0.203178
vt 0.980836 0.188171
vt 0.976284 0.173163
vt 0.971731 0.158156
vt 0.964338 0.144325
vt 0.956945 0.130494
vt 0.949553 0.116663
vt 0.939604 0.104540
vt 0.929655 0.092417
vt 0.919706 0.080294
vt 0.929655 0.407583
vt 0.939604 0.395460
vt 0.949553 0.383337
vt 0.956945 0.369506
vt 0.964338 0.355675
vt 0.971731 0.341844
vt 0.976283 0.326837
vt 0.980836 0.311829
vt 0.985388 0.296822
vt 0.986926 0.281214
vt 0.988463 0.265607
vt 0.990000 0.250000
vt 0.988463 0.234393
vt 0.763259 0.249464
vt 0.763021 0.251873
vt 0.762319 0.254190
vt 0.761178 0.256325
vt 0.759641 0.258197
vt 0.757770 0.259733
vt 0.755635 0.260874
vt 0.753318 0.261577
vt 0.750909 0.261814
vt 0.748500 0.261577
vt 0.746183 0.260874
vt 0.744048 0.259733
vt 0.742176 0.258197
vt 0.740640 0.256325
vt 0.739499 0.254190
vt 0.738796 0.251873
vt 0.738559 0.249464
vt 0.738796 0.247055
vt 0.739499 0.244738
vt 0.740640 0.242603
vt 0.742176 0.240731
vt 0.744048 0.239195
vt 0.746183 0.238054
vt 0.703178 0.014612
vt 0.688171 0.019164
vt 0.673163 0.023716
vt 0.658156 0.028269
vt 0.644325 0.035662
vt 0.630494 0.043055
vt 0.616663 0.050447
vt 0.604540 0.060396
vt 0.592417 0.070345
vt 0.580294 0.080294
vt 0.570345 0.092417
vt 0.560396 0.104540
vt 0.550447 0.116663
vt 0.543054 0.130494
vt 0.535662 0.144325
vt 0.528269 0.158156
vt 0.523716 0.173163
vt 0.513074 0.218786
vt 0.511537 0.234393
vt 0.510000 0.250000
vt 0.511537 0.265607
vt 0.513074 0.281214
vt 0.514612 0.296822
vt 0.519164 0.311829
vt 0.523716 0.326837
vt 0.528269 0.341844
vt 0.535662 0.355675
vt 0.543054 0.369506
vt 0.550447 0.383337
vt 0.560396 0.395460
vt 0.570345 0.407583
vt 0.580294 0.419706
vt 0.592417 0.429655
vt 0.604540 0.439604
vt 0.616663 0.449553
vt 0.630494 0.456945
vt 0.644325 0.464338
vt 0.658156 0.471731
vt 0.673163 0.476284
vt 0.688171 0.480836
vt 0.703178 0.485388
vt 0.718786 0.486926
vt 0.734393 0.488463
vt 0.781214 0.486926
vt 0.796822 0.485388
vt 0.811829 0.480836
vt 0.826837 0.476284
vt 0.841844 0.471731
vt 0.855675 0.464338
vt 0.869506 0.456945
vt 0.883337 0.449553
vt 0.895460 0.439604
vt 0.907583 0.429655
vt 0.919706 0.419706
vt 0.468750 0.500000
vt 0.468750 1.000000
vt 0.458333 1.000000
vt 0.458333 0.500000
vt 0.489583 0.500000
vt 0.489583 1.000000
vt 0.479167 1.000000
vt 0.479167 0.500000
vt 0.531250 0.500000
vt 0.531250 1.000000
vt 0.520833 1.000000
vt 0.520833 0.500000
vt 0.958333 0.500000
vt 0.958333 1.000000
vt 0.593750 0.500000
vt 0.593750 1.000000
vt 0.583333 1.000000
vt 0.583333 0.500000
vt 0.614583 0.500000
vt 0.614583 1.000000
vt 0.604167 1.000000
vt 0.604167 0.500000
vt 0.427083 0.500000
vt 0.427083 1.000000
vt 0.416667 1.000000
vt 0.416667 0.500000
vt 0.406250 0.500000
vt 0.406250 1.000000
vt 0.395833 1.000000
vt 0.395833 0.500000
vt 0.666667 0.500000
vt 0.666667 1.000000
vt 0.364583 0.500000
vt 0.364583 1.000000
vt 0.354167 1.000000
vt 0.354167 0.500000
vt 0.343750 0.500000
vt 0.343750 1.000000
vt 0.333333 1.000000
vt 0.333333 0.500000
vt 0.656250 0.500000
vt 0.656250 1.000000
vt 0.645833 1.000000
vt 0.645833 0.500000
vt 0.677083 1.000000
vt 0.677083 0.500000
vt 0.718750 0.500000
vt 0.718750 1.000000
vt 0.739583 0.500000
vt 0.739583 1.000000
vt 0.729167 1.000000
vt 0.729167 0.500000
vt 0.781250 0.500000
vt 0.781250 1.000000
vt 0.770833 1.000000
vt 0.770833 0.500000
vt 0.208333 0.500000
vt 0.208333 1.000000
vt 0.802083 0.500000
vt 0.802083 1.000000
vt 0.791667 1.000000
vt 0.791667 0.500000
vt 0.833333 1.000000
vt 0.833333 0.500000
vt 0.864583 0.500000
vt 0.864583 1.000000
vt 0.854167 1.000000
vt 0.854167 0.500000
vt 0.906250 0.500000
vt 0.906250 1.000000
vt 0.895833 1.000000
vt 0.895833 0.500000
vt 0.927083 0.500000
vt 0.927083 1.000000
vt 0.916667 1.000000
vt 0.916667 0.500000
vt 0.968750 0.500000
vt 0.968750 1.000000
vt 0.989583 0.500000
vt 0.989583 1.000000
vt 0.979167 1.000000
vt 0.979167 0.500000
vt 0.031250 0.500000
vt 0.031250 1.000000
vt 0.020833 1.000000
vt 0.020833 0.500000
vt 0.052083 0.500000
vt 0.052083 1.000000
vt 0.041667 1.000000
vt 0.041667 0.500000
vt 0.093750 0.500000
vt 0.093750 1.000000
vt 0.083333 1.000000
vt 0.083333 0.500000
vt 0.114583 0.500000
vt 0.114583 1.000000
vt 0.104167 1.000000
vt 0.104167 0.500000
vt 0.156250 0.500000
vt 0.156250 1.000000
vt 0.145833 1.000000
vt 0.145833 0.500000
vt 0.177083 0.500000
vt 0.177083 1.000000
vt 0.166667 1.000000
vt 0.166667 0.500000
vt 0.218750 0.500000
vt 0.218750 1.000000
vt 0.270833 1.000000
vt 0.270833 0.500000
vt 0.302083 0.500000
vt 0.302083 1.000000
vt 0.291667 1.000000
vt 0.291667 0.500000
vt 1.000000 0.500000
vt 1.000000 1.000000
vt 1.000000 0.871024
vt 1.000000 0.888852
vt 0.968750 0.871024
vt 0.968750 0.888852
vt 0.937500 0.871024
vt 0.937500 0.888852
vt 0.906250 0.871024
vt 0.906250 0.888852
vt 0.875000 0.871024
vt 0.875000 0.888852
vt 0.843750 0.871024
vt 0.843750 0.888852
vt 0.812500 0.871024
vt 0.812500 0.888852
vt 0.781250 0.871024
vt 0.781250 0.888852
vt 0.750000 0.871024
vt 0.750000 0.888852
vt 0.718750 0.871024
vt 0.718750 0.888852
vt 0.687500 0.871024
vt 0.687500 0.888852
vt 0.656250 0.871024
vt 0.656250 0.888852
vt 0.625000 0.888852
vt 0.625000 0.871024
vt 0.593750 0.888852
vt 0.593750 0.871024
vt 0.562500 0.888852
vt 0.562500 0.871024
vt 0.531250 0.888852
vt 0.531250 0.871024
vt 0.500000 0.888852
vt 0.500000 0.871024
vt 0.468750 0.888852
vt 0.468750 0.871024
vt 0.437500 0.888852
vt 0.437500 0.871024
vt 0.406250 0.888852
vt 0.406250 0.871024
vt 0.375000 0.888852
vt 0.375000 0.871024
vt 0.343750 0.888852
vt 0.343750 0.871024
vt 0.312500 0.888852
vt 0.312500 0.871024
vt 0.281250 0.888852
vt 0.281250 0.871024
vt 0.250000 0.888852
vt 0.250000 0.871024
vt 0.218750 0.888852
vt 0.218750 0.871024
vt 0.187500 0.888852
vt 0.187500 0.871024
vt 0.156250 0.888852
vt 0.156250 0.871024
vt 0.125000 0.871024
vt 0.125000 0.888852
vt 0.093750 0.871024
vt 0.093750 0.888852
vt 0.062500 0.871024
vt 0.062500 0.888852
vt 0.031250 0.871024
vt 0.031250 0.888852
s 0
usemtl マテリアル.002
f 151/1/1 4/2/1 198/2/1 354/1/1
f 146/3/2 147/4/2 6/5/2 5/6/2
f 82/7/3 81/8/3 301/8/3 302/7/3
f 138/9/4 139/10/4 10/11/4 9/12/4
f 13/13/5 14/14/5 211/14/5 212/13/5
f 130/15/6 131/16/6 14/14/6 13/13/6
f 182/17/7 183/18/7 378/18/7 267/17/7
f 122/19/8 123/20/8 18/21/8 17/22/8
f 113/23/2 116/24/2 328/24/2 325/23/2
f 114/25/9 115/26/9 22/27/9 21/28/9
f 48/29/5 47/30/5 262/30/5 264/29/5
f 106/31/10 107/32/10 26/33/10 25/34/10
f 184/35/11 181/36/11 377/36/11 269/35/11
f 82/37/12 83/38/12 30/39/12 29/40/12
f 116/41/1 115/42/1 327/42/1 328/41/1
f 74/43/13 75/44/13 34/45/13 33/46/13
f 46/47/1 192/48/1 263/48/1 259/47/1
f 66/49/14 67/50/14 38/51/14 37/52/14
f 149/53/3 1/54/3 197/54/3 353/53/3
f 94/55/15 95/56/15 42/57/15 41/58/15
f 78/59/16 79/60/16 300/60/16 237/59/16
f 102/61/17 103/62/17 46/63/17 45/64/17
f 47/65/3 190/66/3 261/66/3 262/65/3
f 186/67/18 187/68/18 50/69/18 49/70/18
f 147/4/9 146/3/9 350/3/9 351/4/9
f 178/71/19 179/72/19 54/73/19 53/74/19
f 80/75/20 77/76/20 299/76/20 239/75/20
f 170/77/21 171/78/21 58/79/21 57/80/21
f 12/81/22 11/82/22 208/82/22 210/81/22
f 162/83/23 163/84/23 62/85/23 61/86/23
f 100/87/1 42/88/1 95/89/1 96/90/1 40/91/1 91/92/1 92/93/1 38/94/1 67/95/1 68/96/1 36/97/1 71/98/1 72/99/1 34/100/1 75/101/1 76/102/1 405/103/1 394/104/1 395/105/1 396/106/1 392/107/1 398/108/1 388/109/1 389/110/1 386/111/1 385/112/1 387/113/1 391/114/1 390/115/1 399/116/1 393/117/1 397/118/1 400/119/1 401/120/1 406/121/1 404/122/1 402/123/1 415/124/1 409/125/1 413/126/1 412/127/1 124/128/1 16/129/1 127/130/1 128/131/1 14/132/1 131/133/1 132/134/1 12/135/1 135/136/1 136/137/1 10/138/1 139/139/1 140/140/1 8/141/1 143/142/1 144/143/1 6/144/1 147/145/1 148/146/1 4/2/1 151/1/1 152/147/1 2/148/1 155/149/1 156/150/1 64/151/1 159/152/1 160/153/1 62/154/1 163/155/1 164/156/1 60/157/1 167/158/1 168/159/1 58/160/1 171/161/1 172/162/1 56/163/1 175/164/1 176/165/1 54/166/1 179/167/1 180/168/1 52/169/1 183/170/1 184/171/1 50/172/1 187/173/1 188/174/1 48/175/1 191/176/1 192/48/1 46/47/1 103/177/1 104/178/1 44/179/1 99/180/1
f 405/103/1 76/102/1 32/181/1 79/182/1 80/183/1 30/184/1 83/185/1 84/186/1 28/187/1 87/188/1 88/189/1 26/190/1 107/191/1 108/192/1 24/193/1 111/194/1 112/195/1 22/196/1 115/42/1 116/41/1 20/197/1 119/198/1 120/199/1 18/200/1 123/201/1 124/128/1 412/127/1 410/202/1 411/203/1 414/204/1 408/205/1 407/206/1 416/207/1 403/208/1
f 183/170/1 52/169/1 270/169/1 378/170/1
f 154/209/24 155/210/24 2/211/24 1/212/24
f 85/213/3 86/214/3 27/215/3 81/8/3 82/7/3 29/216/3 77/217/3 78/218/3 31/219/3 73/220/3 74/221/3 33/222/3 69/223/3 70/224/3 432/225/3 424/226/3 426/227/3 425/228/3 431/229/3 428/230/3 427/231/3 430/232/3 429/233/3 118/234/3 19/235/3 113/236/3 114/237/3 21/238/3 109/239/3 110/240/3 23/241/3 105/242/3 106/243/3 25/244/3
f 133/245/3 134/246/3 11/247/3 129/248/3 130/249/3 13/250/3 125/251/3 126/252/3 15/253/3 121/254/3 122/255/3 17/256/3 117/257/3 118/234/3 429/233/3 446/258/3 444/259/3 445/260/3 447/261/3 442/262/3 443/263/3 441/264/3 448/265/3 438/266/3 439/267/3 440/268/3 437/269/3 436/270/3 434/271/3 435/272/3 433/273/3 417/274/3 418/275/3 419/276/3 420/277/3 423/278/3 422/279/3 421/280/3 432/225/3 70/224/3 35/281/3 65/282/3 66/283/3 37/284/3 89/285/3 90/286/3 39/287/3 93/288/3 94/289/3 41/290/3 97/291/3 98/292/3 43/293/3 101/294/3 102/295/3 45/296/3 189/297/3 190/66/3 47/65/3 185/298/3 186/299/3 49/300/3 181/301/3 182/302/3 51/303/3 177/304/3 178/305/3 53/306/3 173/307/3 174/308/3 55/309/3 169/310/3 170/311/3 57/312/3 165/313/3 166/314/3 59/315/3 161/316/3 162/317/3 61/318/3 157/319/3 158/320/3 63/321/3 153/322/3 154/323/3 1/54/3 149/53/3 150/324/3 3/325/3 145/326/3 146/327/3 5/328/3 141/329/3 142/330/3 7/331/3 137/332/3 138/333/3 9/334/3
f 35/335/14 36/336/14 68/337/14 65/338/14
f 114/237/3 113/236/3 325/236/3 326/237/3
f 45/64/25 46/63/25 259/63/25 260/64/25
f 69/339/7 72/340/7 71/341/7 70/342/7
f 31/343/13 32/344/13 76/345/13 73/346/13
f 145/347/19 148/348/19 352/348/19 349/347/19
f 10/138/1 136/137/1 209/137/1 205/138/1
f 77/76/25 80/75/25 79/60/25 78/59/25
f 27/349/12 28/350/12 84/351/12 81/352/12
f 148/146/1 147/145/1 351/145/1 352/146/1
f 79/182/1 32/181/1 240/181/1 300/182/1
f 85/353/22 88/354/22 87/355/22 86/356/22
f 11/247/3 134/246/3 207/246/3 208/247/3
f 89/357/26 92/358/26 91/359/26 90/360/26
f 39/361/15 40/362/15 96/363/15 93/364/15
f 181/301/3 49/300/3 266/300/3 377/301/3
f 110/365/27 111/366/27 324/366/27 225/365/27
f 97/367/28 100/368/28 99/369/28 98/370/28
f 43/371/17 44/372/17 104/373/17 101/374/17
f 9/12/29 10/11/29 205/11/29 206/12/29
f 23/375/10 24/376/10 108/377/10 105/378/10
f 179/72/2 178/71/2 374/71/2 375/72/2
f 112/379/26 109/380/26 323/380/26 227/379/26
f 109/380/30 112/379/30 111/366/30 110/365/30
f 19/381/9 20/382/9 116/24/9 113/23/9
f 44/372/29 43/371/29 256/371/29 258/372/29
f 146/327/3 145/326/3 349/326/3 350/327/3
f 117/383/31 120/384/31 119/385/31 118/386/31
f 15/387/8 16/388/8 124/389/8 121/390/8
f 77/217/3 29/216/3 236/216/3 299/217/3
f 177/391/14 180/392/14 376/392/14 373/391/14
f 125/393/16 128/394/16 127/395/16 126/396/16
f 11/82/6 12/81/6 132/397/6 129/398/6
f 42/88/1 100/87/1 257/87/1 253/88/1
f 75/44/18 74/43/18 296/43/18 297/44/18
f 133/399/32 136/400/32 135/401/32 134/402/32
f 7/403/4 8/404/4 140/405/4 137/406/4
f 180/168/1 179/167/1 375/167/1 376/168/1
f 111/194/1 24/193/1 228/193/1 324/194/1
f 141/407/27 144/408/27 143/409/27 142/410/27
f 3/411/2 4/412/2 148/348/2 145/347/2
f 43/293/3 98/292/3 255/292/3 256/293/3
f 142/410/33 143/409/33 348/409/33 201/410/33
f 149/413/11 152/414/11 151/415/11 150/416/11
f 63/417/24 64/418/24 156/419/24 153/420/24
f 73/346/8 76/345/8 298/345/8 295/346/8
f 8/404/30 7/403/30 202/403/30 204/404/30
f 157/421/5 160/422/5 159/423/5 158/424/5
f 59/425/23 60/426/23 164/427/23 161/428/23
f 41/58/22 42/57/22 253/57/22 254/58/22
f 144/408/30 141/407/30 347/407/30 203/408/30
f 165/429/29 168/430/29 167/431/29 166/432/29
f 55/433/21 56/434/21 172/435/21 169/436/21
f 76/102/1 75/101/1 297/101/1 298/102/1
f 6/144/1 144/143/1 203/143/1 199/144/1
f 173/437/33 176/438/33 175/439/33 174/440/33
f 51/441/19 52/442/19 180/392/19 177/391/19
f 178/305/3 177/304/3 373/304/3 374/305/3
f 109/239/3 21/238/3 224/238/3 323/239/3
f 181/36/34 184/35/34 183/18/34 182/17/34
f 47/30/18 48/29/18 188/443/18 185/444/18
f 7/331/3 142/330/3 201/330/3 202/331/3
f 107/32/15 106/31/15 320/31/15 321/32/15
f 189/445/20 192/446/20 191/447/20 190/448/20
f 193/416/11 354/415/11 198/412/11 194/411/11
f 201/410/27 348/409/27 204/404/27 202/403/27
f 207/402/32 342/401/32 210/81/32 208/82/32
f 213/396/16 336/395/16 216/388/16 214/387/16
f 219/386/31 330/385/31 222/382/31 220/381/31
f 225/365/30 324/366/30 228/376/30 226/375/30
f 231/356/22 306/355/22 234/350/22 232/349/22
f 237/59/25 300/60/25 240/344/25 238/343/25
f 243/342/7 294/341/7 246/336/7 244/335/7
f 249/360/26 308/359/26 252/362/26 250/361/26
f 255/370/28 314/369/28 258/372/28 256/371/28
f 261/448/20 384/447/20 264/29/20 262/30/20
f 267/17/34 378/18/34 270/442/34 268/441/34
f 273/440/33 372/439/33 276/434/33 274/433/33
f 279/432/29 366/431/29 282/426/29 280/425/29
f 285/424/5 360/423/5 288/418/5 286/417/5
f 289/338/14 292/337/14 291/50/14 290/49/14
f 242/46/7 241/45/7 245/340/7 293/339/7
f 295/346/13 298/345/13 297/44/13 296/43/13
f 236/40/25 235/39/25 239/75/25 299/76/25
f 301/352/12 304/351/12 303/38/12 302/37/12
f 230/34/22 229/33/22 233/354/22 305/353/22
f 248/52/26 247/51/26 251/358/26 307/357/26
f 309/364/15 312/363/15 311/56/15 310/55/15
f 254/58/28 253/57/28 257/368/28 313/367/28
f 315/374/17 318/373/17 317/62/17 316/61/17
f 319/378/10 322/377/10 321/32/10 320/31/10
f 224/28/30 223/27/30 227/379/30 323/380/30
f 325/23/9 328/24/9 327/26/9 326/25/9
f 218/22/31 217/21/31 221/384/31 329/383/31
f 331/390/8 334/389/8 333/20/8 332/19/8
f 212/13/16 211/14/16 215/394/16 335/393/16
f 337/398/6 340/397/6 339/16/6 338/15/6
f 206/12/32 205/11/32 209/400/32 341/399/32
f 343/406/4 346/405/4 345/10/4 344/9/4
f 200/6/27 199/5/27 203/408/27 347/407/27
f 349/347/2 352/348/2 351/4/2 350/3/2
f 197/449/11 196/450/11 195/414/11 353/413/11
f 355/420/24 358/419/24 357/210/24 356/209/24
f 284/86/5 283/85/5 287/422/5 359/421/5
f 361/428/23 364/427/23 363/84/23 362/83/23
f 278/80/29 277/79/29 281/430/29 365/429/29
f 367/436/21 370/435/21 369/78/21 368/77/21
f 272/74/33 271/73/33 275/438/33 371/437/33
f 373/391/19 376/392/19 375/72/19 374/71/19
f 266/70/34 265/69/34 269/35/34 377/36/34
f 379/444/18 382/443/18 381/68/18 380/67/18
f 260/64/20 259/63/20 263/446/20 383/445/20
f 115/26/14 114/25/14 326/25/14 327/26/14
f 15/253/3 126/252/3 213/252/3 214/253/3
f 117/257/3 17/256/3 218/256/3 329/257/3
f 186/299/3 185/298/3 379/298/3 380/299/3
f 14/132/1 128/131/1 215/131/1 211/132/1
f 84/186/1 83/185/1 303/185/1 304/186/1
f 152/414/31 149/413/31 353/413/31 195/414/31
f 49/70/7 50/69/7 265/69/7 266/70/7
f 16/388/25 15/387/25 214/387/25 216/388/25
f 81/352/6 84/351/6 304/351/6 301/352/6
f 150/416/34 151/415/34 354/415/34 193/416/34
f 51/303/3 182/302/3 267/302/3 268/303/3
f 119/198/1 20/197/1 222/197/1 330/198/1
f 188/174/1 187/173/1 381/173/1 382/174/1
f 83/38/17 82/37/17 302/37/17 303/38/17
f 50/172/1 184/171/1 269/171/1 265/172/1
f 185/444/13 188/443/13 382/443/13 379/444/13
f 85/213/3 25/244/3 230/244/3 305/213/3
f 154/323/3 153/322/3 355/322/3 356/323/3
f 52/442/11 51/441/11 268/441/11 270/442/11
f 120/384/7 117/383/7 329/383/7 221/384/7
f 187/68/24 186/67/24 380/67/24 381/68/24
f 17/22/11 18/21/11 217/21/11 218/22/11
f 118/386/11 119/385/11 330/385/11 219/386/11
f 189/297/3 45/296/3 260/296/3 383/297/3
f 19/235/3 118/234/3 219/234/3 220/235/3
f 87/188/1 28/187/1 234/187/1 306/188/1
f 156/150/1 155/149/1 357/149/1 358/150/1
f 18/200/1 120/199/1 221/199/1 217/200/1
f 153/420/18 156/419/18 358/419/18 355/420/18
f 53/74/26 54/73/26 271/73/26 272/74/26
f 122/255/3 121/254/3 331/254/3 332/255/3
f 191/176/1 48/175/1 264/175/1 384/176/1
f 20/382/7 19/381/7 220/381/7 222/382/7
f 88/354/28 85/353/28 305/353/28 233/354/28
f 155/210/8 154/209/8 356/209/8 357/210/8
f 55/309/3 174/308/3 273/308/3 274/309/3
f 86/356/32 87/355/32 306/355/32 231/356/32
f 157/319/3 61/318/3 284/318/3 359/319/3
f 54/166/1 176/165/1 275/165/1 271/166/1
f 124/128/1 123/201/1 333/201/1 334/128/1
f 192/446/5 189/445/5 383/445/5 263/446/5
f 89/285/3 37/284/3 248/284/3 307/285/3
f 56/434/27 55/433/27 274/433/27 276/434/27
f 121/390/24 124/389/24 334/389/24 331/390/24
f 190/448/25 191/447/25 384/447/25 261/448/25
f 21/28/27 22/27/27 223/27/27 224/28/27
f 159/152/1 64/151/1 288/151/1 360/152/1
f 123/20/13 122/19/13 332/19/13 333/20/13
f 23/241/3 110/240/3 225/240/3 226/241/3
f 91/92/1 40/91/1 252/91/1 308/92/1
f 125/251/3 13/250/3 212/250/3 335/251/3
f 22/196/1 112/195/1 227/195/1 223/196/1
f 160/422/16 157/421/16 359/421/16 287/422/16
f 57/80/28 58/79/28 277/79/28 278/80/28
f 24/376/26 23/375/26 226/375/26 228/376/26
f 92/358/33 89/357/33 307/357/33 251/358/33
f 158/424/20 159/423/20 360/423/20 285/424/20
f 59/315/3 166/314/3 279/314/3 280/315/3
f 127/130/1 16/129/1 216/129/1 336/130/1
f 90/360/30 91/359/30 308/359/30 249/360/30
f 58/160/1 168/159/1 281/159/1 277/160/1
f 162/317/3 161/316/3 361/316/3 362/317/3
f 60/426/32 59/425/32 280/425/32 282/426/32
f 128/394/25 125/393/25 335/393/25 215/394/25
f 25/34/32 26/33/32 229/33/32 230/34/32
f 94/289/3 93/288/3 309/288/3 310/289/3
f 126/396/5 127/395/5 336/395/5 213/396/5
f 27/215/3 86/214/3 231/214/3 232/215/3
f 164/156/1 163/155/1 363/155/1 364/156/1
f 26/190/1 88/189/1 233/189/1 229/190/1
f 96/90/1 95/89/1 311/89/1 312/90/1
f 161/428/17 164/427/17 364/427/17 361/428/17
f 61/86/20 62/85/20 283/85/20 284/86/20
f 130/249/3 129/248/3 337/248/3 338/249/3
f 28/350/28 27/349/28 232/349/28 234/350/28
f 93/364/10 96/363/10 312/363/10 309/364/10
f 163/84/6 162/83/6 362/83/6 363/84/6
f 63/321/3 158/320/3 285/320/3 286/321/3
f 95/56/21 94/55/21 310/55/21 311/56/21
f 165/313/3 57/312/3 278/312/3 365/313/3
f 62/154/1 160/153/1 287/153/1 283/154/1
f 132/134/1 131/133/1 339/133/1 340/134/1
f 97/291/3 41/290/3 254/290/3 313/291/3
f 64/418/16 63/417/16 286/417/16 288/418/16
f 129/398/23 132/397/23 340/397/23 337/398/23
f 29/40/16 30/39/16 235/39/16 236/40/16
f 167/158/1 60/157/1 282/157/1 366/158/1
f 131/16/12 130/15/12 338/15/12 339/16/12
f 31/219/3 78/218/3 237/218/3 238/219/3
f 99/180/1 44/179/1 258/179/1 314/180/1
f 133/245/3 9/334/3 206/334/3 341/245/3
f 30/184/1 80/183/1 239/183/1 235/184/1
f 168/430/32 165/429/32 365/429/32 281/430/32
f 32/344/20 31/343/20 238/343/20 240/344/20
f 100/368/29 97/367/29 313/367/29 257/368/29
f 166/432/28 167/431/28 366/431/28 279/432/28
f 66/283/3 65/282/3 289/282/3 290/283/3
f 135/136/1 12/135/1 210/135/1 342/136/1
f 98/370/22 99/369/22 314/369/22 255/370/22
f 170/311/3 169/310/3 367/310/3 368/311/3
f 68/96/1 67/95/1 291/95/1 292/96/1
f 136/400/22 133/399/22 341/399/22 209/400/22
f 33/46/31 34/45/31 241/45/31 242/46/31
f 102/295/3 101/294/3 315/294/3 316/295/3
f 65/338/9 68/337/9 292/337/9 289/338/9
f 134/402/29 135/401/29 342/401/29 207/402/29
f 35/281/3 70/224/3 243/224/3 244/281/3
f 172/162/1 171/161/1 369/161/1 370/162/1
f 67/50/19 66/49/19 290/49/19 291/50/19
f 34/100/1 72/99/1 245/99/1 241/100/1
f 104/178/1 103/177/1 317/177/1 318/178/1
f 169/436/15 172/435/15 370/435/15 367/436/15
f 69/223/3 33/222/3 242/222/3 293/223/3
f 138/333/3 137/332/3 343/332/3 344/333/3
f 36/336/34 35/335/34 244/335/34 246/336/34
f 101/374/12 104/373/12 318/373/12 315/374/12
f 171/78/4 170/77/4 368/77/4 369/78/4
f 3/325/3 150/324/3 193/324/3 194/325/3
f 103/62/23 102/61/23 316/61/23 317/62/23
f 173/307/3 53/306/3 272/306/3 371/307/3
f 2/148/1 152/147/1 195/147/1 196/148/1
f 71/98/1 36/97/1 246/97/1 294/98/1
f 140/140/1 139/139/1 345/139/1 346/140/1
f 1/212/34 2/211/34 196/211/34 197/212/34
f 137/406/21 140/405/21 346/405/21 343/406/21
f 37/52/30 38/51/30 247/51/30 248/52/30
f 106/243/3 105/242/3 319/242/3 320/243/3
f 175/164/1 56/163/1 276/163/1 372/164/1
f 4/412/31 3/411/31 194/411/31 198/412/31
f 72/340/34 69/339/34 293/339/34 245/340/34
f 139/10/10 138/9/10 344/9/10 345/10/10
f 39/287/3 90/286/3 249/286/3 250/287/3
f 70/342/31 71/341/31 294/341/31 243/342/31
f 141/329/3 5/328/3 200/328/3 347/329/3
f 38/94/1 92/93/1 251/93/1 247/94/1
f 108/192/1 107/191/1 321/191/1 322/192/1
f 176/438/27 173/437/27 371/437/27 275/438/27
f 40/362/33 39/361/33 250/361/33 252/362/33
f 105/378/4 108/377/4 322/377/4 319/378/4
f 174/440/26 175/439/26 372/439/26 273/440/26
f 5/6/33 6/5/33 199/5/33 200/6/33
f 74/221/3 73/220/3 295/220/3 296/221/3
f 143/142/1 8/141/1 204/141/1 348/142/1
f 433/451/31 387/452/31 385/452/31 417/451/31
f 435/453/9 391/454/9 387/454/9 433/453/9
f 434/455/30 390/456/30 391/456/30 435/455/30
f 436/457/10 399/458/10 390/458/10 434/457/10
f 437/459/22 393/460/22 399/460/22 436/459/22
f 440/461/12 397/462/12 393/462/12 437/461/12
f 439/463/25 400/464/25 397/464/25 440/463/25
f 438/465/13 401/466/13 400/466/13 439/465/13
f 448/467/7 406/468/7 401/468/7 438/467/7
f 441/469/14 404/470/14 406/470/14 448/469/14
f 443/471/26 402/472/26 404/472/26 441/471/26
f 442/473/15 415/474/15 402/474/15 443/473/15
f 409/475/28 415/475/28 442/476/28 447/476/28
f 413/477/17 409/477/17 447/478/17 445/478/17
f 412/479/20 413/479/20 445/480/20 444/480/20
f 410/481/18 412/481/18 444/482/18 446/482/18
f 411/483/34 410/483/34 446/484/34 429/484/34
f 414/485/19 411/485/19 429/486/19 430/486/19
f 408/487/33 414/487/33 430/488/33 427/488/33
f 407/489/21 408/489/21 427/490/21 428/490/21
f 416/491/29 407/491/29 428/492/29 431/492/29
f 403/493/23 416/493/23 431/494/23 425/494/23
f 405/495/5 403/495/5 425/496/5 426/496/5
f 394/497/24 405/497/24 426/498/24 424/498/24
f 395/499/11 394/499/11 424/500/11 432/500/11
f 396/501/2 395/501/2 432/502/2 421/502/2
f 392/503/27 396/503/27 421/504/27 422/504/27
f 398/505/4 392/505/4 422/506/4 423/506/4
f 420/507/32 388/508/32 398/508/32 423/507/32
f 419/509/6 389/510/6 388/510/6 420/509/6
f 418/511/16 386/512/16 389/512/16 419/511/16
f 417/513/8 385/514/8 386/514/8 418/513/8
